if (_typeface_js && _typeface_js.loadFace) _typeface_js.loadFace({"glyphs":{"0":{"ha":832,"x_min":0,"x_max":0,"o":"m 415 935 b 763 619 569 935 763 839 l 763 294 b 415 -21 763 75 569 -21 b 69 294 263 -21 69 75 l 69 619 b 415 935 69 839 263 935 m 560 589 b 415 740 560 678 500 740 b 272 589 331 740 272 678 l 272 325 b 415 174 272 236 331 174 b 560 325 500 174 560 236 "},"1":{"ha":683,"x_min":0,"x_max":0,"o":"m 563 194 b 603 154 594 194 603 179 l 603 40 b 563 0 603 15 594 0 l 132 0 b 92 40 100 0 92 15 l 92 154 b 132 194 92 179 100 194 l 250 194 l 250 567 l 132 567 b 92 607 100 567 92 581 l 92 719 b 132 760 92 746 100 760 l 163 760 b 250 876 189 760 250 772 l 250 876 b 290 913 251 906 267 913 l 425 913 b 465 876 449 913 464 906 l 465 876 b 465 872 465 875 465 874 l 465 194 l 563 194 "},"2":{"ha":776,"x_min":0,"x_max":0,"o":"m 672 194 b 713 154 704 194 713 179 l 713 40 b 672 0 713 15 704 0 l 97 0 b 60 40 65 0 60 8 l 60 143 b 85 201 60 174 72 192 b 338 419 85 201 203 306 b 514 643 426 496 514 571 b 396 746 514 715 463 746 b 256 604 321 746 256 685 b 219 565 256 581 249 565 l 97 565 b 60 607 69 565 60 576 b 394 933 60 838 217 933 b 725 644 561 933 725 815 b 563 356 725 503 640 426 b 379 194 481 282 379 194 l 672 194 "},"3":{"ha":781,"x_min":0,"x_max":0,"o":"m 507 535 b 718 282 604 513 718 425 b 372 -21 718 82 560 -19 b 39 242 197 -21 39 93 b 78 283 39 278 47 283 l 201 283 b 236 253 225 283 231 276 b 381 171 257 186 335 171 b 511 281 439 171 511 206 b 364 390 511 354 460 390 l 301 390 b 264 431 269 390 264 399 l 264 519 b 281 567 264 540 269 554 l 426 719 l 125 719 b 85 760 93 719 85 736 l 85 872 b 125 913 85 897 93 913 l 656 913 b 696 872 688 913 696 897 l 696 760 b 681 719 696 742 692 733 l 507 535 "},"4":{"ha":853,"x_min":0,"x_max":0,"o":"m 758 374 b 799 333 790 374 799 358 l 799 219 b 758 179 799 194 790 179 l 675 179 l 675 40 b 635 0 675 8 660 0 l 504 0 b 464 40 479 0 464 8 l 464 179 l 76 179 b 36 219 44 179 36 194 l 36 333 b 57 382 36 351 43 363 l 456 890 b 497 915 464 900 478 915 l 635 915 b 675 875 660 915 675 907 l 675 374 l 758 374 m 464 635 l 264 374 l 464 374 "},"5":{"ha":779,"x_min":0,"x_max":0,"o":"m 403 590 b 711 286 579 590 711 467 b 368 -21 711 86 538 -21 b 39 243 192 -21 39 94 b 76 283 39 278 46 283 l 201 283 b 235 257 224 283 231 281 b 368 172 251 201 307 172 b 508 300 458 172 508 225 b 371 425 508 367 449 425 b 232 374 303 425 271 403 b 201 368 224 368 215 368 l 88 368 b 50 410 58 368 50 374 l 85 872 b 124 913 86 897 93 913 l 617 913 b 657 872 649 913 657 897 l 657 758 b 617 718 657 733 649 718 l 272 718 l 260 556 b 403 590 286 572 344 590 "},"6":{"ha":824,"x_min":0,"x_max":0,"o":"m 54 300 b 76 431 54 342 60 379 b 168 604 97 492 132 549 l 340 874 b 407 913 357 901 376 913 l 583 913 b 601 869 608 913 615 888 l 415 608 b 465 614 432 611 449 614 b 767 319 625 614 767 486 b 413 -21 767 132 608 -21 b 54 300 240 -21 54 100 m 265 310 b 408 169 265 232 329 169 b 553 310 488 169 553 232 b 408 449 553 388 488 449 b 265 310 329 449 265 388 "},"7":{"ha":749,"x_min":0,"x_max":0,"o":"m 661 913 b 701 872 693 913 701 897 l 701 764 b 686 707 701 732 686 707 l 363 42 b 307 0 349 13 336 0 l 131 0 b 115 42 108 0 101 17 l 465 717 l 125 717 b 85 757 93 717 85 732 l 85 872 b 125 913 85 897 93 913 l 661 913 "},"8":{"ha":813,"x_min":0,"x_max":0,"o":"m 757 263 b 403 -19 757 106 636 -19 b 47 263 168 -19 47 106 b 200 483 47 361 103 432 b 79 678 126 528 79 600 b 403 932 79 814 188 932 b 725 678 617 932 725 814 b 604 483 725 600 678 528 b 757 263 703 432 757 361 m 535 275 b 403 386 535 338 475 386 b 271 275 329 386 271 338 b 403 164 271 213 329 164 b 535 275 475 164 535 213 m 296 671 b 403 576 296 638 322 576 b 510 671 482 576 510 638 b 403 769 510 726 461 769 b 296 671 343 769 296 726 "},"9":{"ha":821,"x_min":0,"x_max":0,"o":"m 767 613 b 744 482 767 571 761 533 b 653 308 724 421 689 364 l 481 39 b 414 0 464 11 444 0 l 238 0 b 219 43 213 0 206 25 l 406 304 b 356 299 389 301 372 299 b 54 593 196 299 54 426 b 408 933 54 781 213 933 b 767 613 581 933 767 813 m 556 603 b 413 743 556 681 492 743 b 268 603 333 743 268 681 b 413 464 268 525 333 464 b 556 603 492 464 556 525 "},"B":{"ha":954,"x_min":0,"x_max":0,"o":"m 754 474 b 882 267 765 469 882 417 b 551 0 882 90 744 0 l 143 0 b 103 40 111 0 103 15 l 103 875 b 143 915 103 900 111 915 l 532 915 b 856 664 758 915 856 794 b 754 474 856 524 767 479 m 554 197 b 661 288 622 197 661 225 b 546 372 661 353 613 372 l 514 372 b 474 413 482 372 474 388 l 474 518 b 514 558 474 543 482 558 l 532 558 l 532 558 b 647 642 613 558 647 588 b 532 719 647 704 604 719 l 321 719 l 321 197 l 554 197 "},"C":{"ha":878,"x_min":0,"x_max":0,"o":"m 807 271 b 446 -21 807 92 618 -21 b 74 293 281 -21 74 75 l 74 621 b 446 935 74 839 281 935 b 807 671 618 935 789 847 b 764 631 807 638 796 631 l 631 631 b 589 674 601 631 600 657 b 446 740 560 719 521 740 b 292 601 354 740 292 689 l 292 313 b 446 174 292 224 354 174 b 592 268 521 174 581 201 b 629 318 596 296 599 318 l 765 318 b 807 271 796 318 807 304 "},"D":{"ha":903,"x_min":0,"x_max":0,"o":"m 454 914 b 828 601 619 914 828 818 l 828 313 b 454 0 828 94 619 0 l 143 0 b 103 40 111 0 103 15 l 103 874 b 143 914 103 899 111 914 l 454 914 m 610 582 b 454 721 610 669 546 721 l 321 721 l 321 193 l 454 193 b 610 332 546 193 610 243 "},"E":{"ha":871,"x_min":0,"x_max":0,"o":"m 765 194 b 806 154 797 194 806 179 l 806 40 b 765 0 806 15 797 0 l 143 0 b 103 40 111 0 103 15 l 103 874 b 143 914 103 899 111 914 l 742 914 b 782 874 774 914 782 899 l 782 758 b 742 718 782 733 774 718 l 322 718 l 322 567 l 694 567 b 735 526 726 567 735 551 l 735 418 b 694 378 735 393 726 378 l 322 378 l 322 194 l 765 194 "},"F":{"ha":836,"x_min":0,"x_max":0,"o":"m 740 914 b 781 874 772 914 781 899 l 781 760 b 740 719 781 735 772 719 l 321 719 l 321 557 l 682 557 b 722 517 714 557 722 542 l 722 407 b 682 367 722 382 714 367 l 321 367 l 321 42 b 281 0 321 6 313 0 l 143 0 b 103 40 111 0 103 15 l 103 874 b 143 914 103 899 111 914 l 740 914 "},"G":{"ha":897,"x_min":0,"x_max":0,"o":"m 782 510 b 822 469 814 510 822 494 l 822 268 b 449 -21 810 68 607 -21 b 75 281 285 -21 75 63 l 75 622 b 449 935 75 842 285 935 b 822 649 622 935 822 835 b 782 610 822 615 814 610 l 647 610 b 607 657 608 610 614 638 b 449 742 592 700 542 742 b 296 592 357 742 296 681 l 296 313 b 449 172 296 224 357 172 b 603 321 539 172 603 214 l 478 321 b 438 361 446 321 438 336 l 438 469 b 478 510 438 494 446 510 l 782 510 "},"H":{"ha":951,"x_min":0,"x_max":0,"o":"m 808 914 b 849 874 833 914 849 906 l 849 40 b 808 0 849 8 833 0 l 671 0 b 631 40 646 0 631 8 l 631 354 l 321 354 l 321 40 b 281 0 321 8 307 0 l 143 0 b 103 40 118 0 103 8 l 103 874 b 143 914 103 906 118 914 l 281 914 b 321 874 307 914 321 906 l 321 560 l 631 560 l 631 874 b 671 914 631 906 646 914 l 808 914 "},"I":{"ha":617,"x_min":0,"x_max":0,"o":"m 500 190 b 540 150 532 190 540 175 l 540 40 b 500 0 540 15 532 0 l 107 0 b 67 40 75 0 67 15 l 67 150 b 107 190 67 175 75 190 l 194 190 l 194 721 l 110 721 b 69 761 78 721 69 736 l 69 874 b 110 914 69 899 78 914 l 496 914 b 536 874 528 914 536 899 l 536 761 b 496 721 536 736 528 721 l 413 721 l 413 190 l 500 190 "},":":{"ha":425,"x_min":0,"x_max":0,"o":"m 306 235 b 346 194 331 235 346 226 l 346 40 b 306 0 346 8 331 0 l 151 0 b 111 40 126 0 111 8 l 111 194 b 151 235 111 226 126 235 l 306 235 m 306 618 b 346 578 331 618 346 610 l 346 424 b 306 383 346 392 331 383 l 151 383 b 111 424 126 383 111 392 l 111 578 b 151 618 111 610 126 618 l 306 618 "},";":{"ha":429,"x_min":0,"x_max":0,"o":"m 307 618 b 350 571 342 618 350 610 l 350 428 b 307 383 350 390 342 383 l 158 383 b 115 428 124 383 115 390 l 115 571 b 158 618 115 610 124 618 l 307 618 m 310 235 b 350 194 335 235 350 226 l 350 68 b 340 4 350 38 349 26 l 261 -157 b 224 -182 251 -174 242 -182 l 135 -182 b 122 -144 117 -182 111 -162 l 197 0 l 156 0 b 115 40 131 0 115 8 l 115 194 b 156 235 115 226 131 235 l 310 235 "},"<":{"ha":786,"x_min":0,"x_max":0,"o":"m 668 658 b 713 636 685 665 713 669 l 713 511 b 671 461 713 475 688 468 l 317 332 l 671 203 b 713 153 688 196 713 189 l 713 29 b 668 6 713 -4 685 -1 l 104 228 b 74 285 83 236 74 253 l 74 379 b 104 436 74 411 83 428 "},"=":{"ha":779,"x_min":0,"x_max":0,"o":"m 669 376 b 710 336 694 376 710 368 l 710 228 b 669 188 710 196 694 188 l 108 188 b 68 228 83 188 68 196 l 68 336 b 108 376 68 368 83 376 l 669 376 m 669 704 b 710 664 694 704 710 696 l 710 556 b 669 515 710 524 694 515 l 108 515 b 68 556 83 515 68 524 l 68 664 b 108 704 68 696 83 704 l 669 704 "},">":{"ha":786,"x_min":0,"x_max":0,"o":"m 682 436 b 713 379 703 428 713 411 l 713 285 b 682 228 713 253 703 236 l 118 6 b 74 29 101 -1 74 -4 l 74 153 b 115 203 74 189 99 196 l 469 332 l 115 461 b 74 511 99 468 74 475 l 74 636 b 118 658 74 669 101 665 "},"?":{"ha":758,"x_min":0,"x_max":0,"o":"m 717 679 b 596 490 717 582 649 528 b 489 338 547 457 489 417 b 444 293 489 304 481 293 l 329 293 b 285 338 293 293 285 310 b 358 542 285 436 308 490 b 493 671 407 592 493 607 b 397 747 493 715 449 747 b 279 660 326 747 289 697 b 279 660 279 658 279 661 b 236 617 275 638 269 617 l 97 617 b 74 660 75 617 74 629 b 396 933 85 769 157 933 b 717 679 560 933 717 854 m 460 235 b 500 194 485 235 500 226 l 500 40 b 460 0 500 8 485 0 l 306 0 b 265 40 281 0 265 8 l 265 194 b 306 235 265 226 281 235 l 460 235 "},"J":{"ha":806,"x_min":0,"x_max":0,"o":"m 672 936 b 713 896 704 936 713 921 l 713 299 b 368 0 713 82 533 0 b 42 300 183 0 42 104 b 75 338 42 307 43 338 l 222 338 b 257 308 254 338 257 315 b 368 193 261 226 306 193 b 494 329 460 193 494 243 l 494 740 l 251 740 b 211 781 218 740 211 756 l 211 896 b 251 936 211 921 218 936 l 672 936 "},"!":{"ha":447,"x_min":0,"x_max":0,"o":"m 196 288 b 156 328 163 288 160 293 b 96 885 97 876 96 881 b 136 914 96 908 108 914 l 322 914 b 364 885 351 914 364 910 b 303 328 364 881 363 876 b 264 288 299 292 296 288 l 196 288 m 307 235 b 347 194 332 235 347 226 l 347 40 b 307 0 347 8 332 0 l 153 0 b 113 40 128 0 113 8 l 113 194 b 153 235 113 226 128 235 l 307 235 "},"\"":{"ha":615,"x_min":0,"x_max":0,"o":"m 215 914 b 256 874 247 914 256 899 l 256 560 b 215 519 256 535 247 519 l 119 519 b 79 560 86 519 79 535 l 79 874 b 119 914 79 899 86 914 l 215 914 m 496 914 b 535 874 526 914 535 899 l 535 560 b 496 519 535 535 526 519 l 399 519 b 360 560 368 519 360 535 l 360 874 b 399 914 360 899 368 914 l 496 914 "},"#":{"ha":914,"x_min":0,"x_max":0,"o":"m 821 671 b 846 633 851 671 849 651 b 836 553 846 632 836 553 b 800 519 832 529 819 519 b 719 519 794 519 719 519 l 719 519 l 711 457 l 703 394 l 783 394 b 808 357 814 394 811 375 b 799 276 808 356 799 276 b 763 243 794 253 782 243 b 682 243 743 243 682 243 l 651 39 b 610 0 649 10 629 0 l 508 0 b 481 44 476 0 478 25 l 511 243 l 347 243 l 317 39 b 275 0 314 10 294 0 l 174 0 b 144 44 142 0 143 25 l 175 243 l 94 243 b 69 282 65 243 67 263 b 81 361 69 283 81 361 b 115 394 83 386 96 394 l 196 394 l 196 394 l 213 519 l 132 519 b 107 558 103 519 104 539 b 118 638 107 560 118 638 b 153 671 121 663 133 671 b 233 671 172 671 233 671 l 264 876 b 306 914 267 906 286 914 l 407 914 b 436 869 439 914 438 889 l 406 671 l 569 671 l 600 876 b 640 914 603 906 621 914 l 743 914 b 771 869 775 914 774 889 l 740 671 l 821 671 m 547 519 l 385 519 l 368 394 l 532 394 "},"%":{"ha":1236,"x_min":0,"x_max":0,"o":"m 958 513 b 1160 329 1067 513 1160 440 l 1160 207 b 958 22 1160 94 1067 22 b 757 207 850 22 757 94 l 757 329 b 958 513 757 440 850 513 m 1013 325 b 958 386 1013 354 990 386 b 906 325 926 386 906 354 l 906 211 b 958 150 906 182 926 150 b 1013 211 990 150 1013 182 m 917 969 b 939 933 942 969 946 950 l 451 42 b 400 0 442 24 428 0 b 319 0 400 0 342 0 b 297 36 294 0 290 19 l 786 928 b 836 969 794 946 808 969 b 917 969 836 969 894 969 m 479 639 b 278 456 479 528 386 456 b 76 639 169 456 76 528 l 76 761 b 278 946 76 874 169 946 b 479 761 386 946 479 874 l 479 639 m 331 757 b 278 818 331 786 310 818 b 224 757 246 818 224 786 l 224 643 b 278 582 224 614 246 582 b 331 643 310 582 331 614 "},"&":{"ha":1001,"x_min":0,"x_max":0,"o":"m 993 46 b 971 0 1010 28 996 0 l 817 0 b 757 28 789 0 776 10 l 686 96 b 411 -21 614 19 518 -19 b 68 281 211 -21 68 93 b 279 535 68 422 182 513 l 100 726 b 90 754 92 738 90 746 l 90 874 b 131 914 90 899 99 914 l 174 914 l 174 914 l 661 914 b 701 874 693 914 701 899 l 701 761 b 661 721 701 736 693 721 l 374 721 l 657 413 b 711 496 683 457 704 485 b 751 519 719 508 729 519 b 906 519 751 519 868 519 b 925 481 933 519 933 499 l 797 261 l 993 46 m 407 171 b 554 239 447 171 515 190 l 414 390 b 275 279 324 388 275 350 b 407 171 275 204 347 171 "},"'":{"ha":335,"x_min":0,"x_max":0,"o":"m 215 914 b 254 874 246 914 254 899 l 254 560 b 215 519 254 535 246 519 l 118 519 b 79 560 88 519 79 535 l 79 874 b 118 914 79 899 88 914 l 215 914 "},"(":{"ha":496,"x_min":0,"x_max":0,"o":"m 300 363 b 421 -175 301 171 335 8 b 401 -210 428 -190 422 -210 l 253 -210 b 215 -182 232 -210 221 -194 b 92 363 132 -6 92 172 b 215 908 92 554 132 732 b 253 936 221 921 232 936 l 401 936 b 421 901 422 936 428 917 b 300 363 335 718 301 556 "},"*":{"ha":682,"x_min":0,"x_max":0,"o":"m 603 697 b 578 647 613 667 601 654 l 442 610 l 529 499 b 521 443 544 479 546 461 l 471 407 b 414 415 444 388 429 396 l 336 533 l 258 415 b 203 407 244 396 229 388 l 153 443 b 144 499 128 461 129 479 l 232 610 l 96 647 b 71 697 72 654 61 667 l 89 756 b 140 782 99 786 117 789 l 272 732 l 265 874 b 306 914 265 899 274 914 l 367 914 b 407 874 399 914 407 899 l 401 732 l 533 782 b 585 756 557 789 575 786 l 603 697 "},"+":{"ha":772,"x_min":0,"x_max":0,"o":"m 671 532 b 711 492 696 532 711 524 l 711 383 b 671 343 711 351 696 343 l 485 343 l 485 157 b 444 117 485 132 476 117 l 336 117 b 296 157 304 117 296 132 l 296 343 l 108 343 b 68 383 83 343 68 351 l 68 492 b 108 532 68 524 83 532 l 296 532 l 296 718 b 336 758 296 743 304 758 l 444 758 b 485 718 476 758 485 743 l 485 532 l 671 532 "},",":{"ha":418,"x_min":0,"x_max":0,"o":"m 286 235 b 326 194 311 235 326 226 l 326 69 b 317 4 326 39 325 26 l 238 -157 b 200 -182 228 -174 218 -182 l 111 -182 b 97 -143 93 -182 88 -161 l 174 0 l 132 0 b 92 40 107 0 92 8 l 92 194 b 132 235 92 226 107 235 l 286 235 "},"-":{"ha":603,"x_min":0,"x_max":0,"o":"m 490 465 b 531 425 515 465 531 457 l 531 317 b 490 276 531 285 515 276 l 113 276 b 72 317 88 276 72 285 l 72 425 b 113 465 72 457 88 465 l 490 465 "},".":{"ha":393,"x_min":0,"x_max":0,"o":"m 274 235 b 314 194 299 235 314 226 l 314 40 b 274 0 314 8 299 0 l 119 0 b 79 40 94 0 79 8 l 79 194 b 119 235 79 226 94 235 l 274 235 "},"/":{"ha":557,"x_min":0,"x_max":0,"o":"m 513 963 b 544 924 547 963 549 938 l 213 38 b 169 0 206 21 196 0 l 50 0 b 18 39 15 0 14 25 l 351 925 b 394 963 358 942 368 963 "},"K":{"ha":908,"x_min":0,"x_max":0,"o":"m 864 914 b 878 875 890 914 890 888 l 565 536 l 864 44 b 843 0 875 26 869 0 l 674 0 b 604 44 640 0 622 15 b 406 378 604 44 481 253 l 319 288 l 319 40 b 281 0 319 8 304 0 l 143 0 b 103 40 117 0 103 8 l 103 874 b 143 914 103 906 117 914 l 281 914 b 319 874 304 914 319 906 l 319 564 l 607 881 b 676 914 635 911 644 914 l 864 914 "},"L":{"ha":808,"x_min":0,"x_max":0,"o":"m 721 194 b 761 154 753 194 761 179 l 761 40 b 721 0 761 15 753 0 l 143 0 b 103 40 111 0 103 15 l 103 874 b 143 914 103 906 118 914 l 281 914 b 321 874 306 914 321 906 l 321 194 l 721 194 "},"M":{"ha":1065,"x_min":0,"x_max":0,"o":"m 922 915 b 963 875 954 915 963 900 l 963 40 b 922 0 963 8 947 0 l 789 0 b 749 40 764 0 749 8 l 749 511 l 610 268 b 569 239 603 257 590 239 l 500 239 b 461 268 479 239 468 257 l 321 511 l 321 40 b 281 0 321 8 306 0 l 143 0 b 103 40 118 0 103 8 l 103 875 b 143 915 103 900 111 915 l 281 915 b 344 868 328 915 333 885 l 535 526 l 726 868 b 789 915 736 885 743 915 l 922 915 "},"N":{"ha":947,"x_min":0,"x_max":0,"o":"m 804 914 b 844 874 829 914 844 906 l 844 40 b 804 0 844 15 836 0 l 678 0 b 615 47 643 0 633 19 l 321 524 l 321 40 b 281 0 321 8 306 0 l 143 0 b 103 40 118 0 103 8 l 103 874 b 143 914 103 899 111 914 l 274 914 b 336 867 308 914 318 894 l 631 392 l 631 874 b 671 914 631 906 646 914 l 804 914 "},"O":{"ha":896,"x_min":0,"x_max":0,"o":"m 821 293 b 447 -21 821 74 613 -21 b 76 293 282 -21 76 74 l 76 621 b 447 935 76 840 282 935 b 821 621 613 935 821 840 m 603 601 b 447 742 603 690 539 742 b 293 601 357 742 293 690 l 293 313 b 447 172 293 224 357 172 b 603 313 539 172 603 224 "},"P":{"ha":872,"x_min":0,"x_max":0,"o":"m 456 914 b 819 592 694 914 819 783 b 454 271 819 399 692 271 l 321 271 l 321 40 b 281 0 321 8 306 0 l 143 0 b 103 40 118 0 103 8 l 103 874 b 143 914 103 899 111 914 l 456 914 m 454 458 b 610 588 563 458 610 518 b 454 718 610 660 563 718 l 321 718 l 321 458 l 454 458 "},"Q":{"ha":897,"x_min":0,"x_max":0,"o":"m 824 65 b 818 1 842 49 842 25 l 751 -53 b 689 -60 729 -75 707 -78 l 622 8 b 446 -22 564 -17 506 -22 b 75 292 281 -22 75 72 l 75 619 b 446 933 75 839 281 933 b 819 619 611 933 819 839 l 819 292 b 771 125 819 221 807 171 l 824 65 m 603 601 b 447 742 603 690 539 742 b 293 601 357 742 293 690 l 293 313 b 447 172 293 224 357 172 b 603 313 539 172 603 224 "},"R":{"ha":925,"x_min":0,"x_max":0,"o":"m 851 44 b 831 0 864 25 857 0 l 667 0 b 597 42 633 0 617 13 l 447 265 b 432 336 435 282 432 297 l 432 447 b 472 488 432 472 440 488 l 500 488 b 632 600 568 488 632 535 b 504 718 632 672 576 718 l 319 718 l 319 40 b 279 0 319 8 304 0 l 142 0 b 103 40 117 0 103 8 l 103 872 b 142 913 103 897 110 913 l 492 913 b 768 824 643 913 710 882 b 849 606 819 774 849 694 b 656 329 849 460 742 358 l 851 44 "},"S":{"ha":840,"x_min":0,"x_max":0,"o":"m 533 531 b 781 271 633 500 781 460 b 411 -21 781 74 625 -21 b 38 274 238 -21 38 79 b 78 313 38 306 46 313 l 213 313 b 263 274 244 313 260 308 b 289 217 264 256 271 238 b 425 171 317 183 374 171 b 561 265 500 171 561 188 b 319 382 561 343 438 344 b 50 658 179 426 50 482 b 388 935 50 839 214 928 b 757 671 564 935 757 854 b 717 632 757 638 749 632 l 581 632 b 543 669 554 632 550 651 b 514 711 538 683 531 694 b 396 749 488 736 438 749 b 274 668 350 749 274 731 b 533 531 274 583 478 553 "},"T":{"ha":797,"x_min":0,"x_max":0,"o":"m 721 914 b 761 874 753 914 761 899 l 761 758 b 721 718 761 733 753 718 l 508 718 l 508 40 b 468 0 508 8 493 0 l 331 0 b 290 40 306 0 290 8 l 290 718 l 76 718 b 36 758 44 718 36 733 l 36 874 b 76 914 36 899 44 914 l 721 914 "},"U":{"ha":918,"x_min":0,"x_max":0,"o":"m 786 914 b 826 874 811 914 826 906 l 826 279 b 458 -21 826 61 624 -21 b 92 279 293 -21 92 61 l 92 874 b 132 914 92 906 107 914 l 269 914 b 310 874 294 914 310 906 l 310 310 b 458 172 310 222 367 172 b 608 310 550 172 608 222 l 608 874 b 649 914 608 906 624 914 l 786 914 "},"V":{"ha":883,"x_min":0,"x_max":0,"o":"m 832 914 b 857 874 858 914 864 892 l 560 42 b 503 0 543 6 533 0 l 369 0 b 313 42 339 0 329 6 l 14 874 b 39 914 7 892 13 914 l 193 914 b 250 869 229 914 239 903 l 439 294 l 626 869 b 685 914 638 903 647 914 l 832 914 "},"W":{"ha":1247,"x_min":0,"x_max":0,"o":"m 1193 914 b 1217 874 1218 914 1222 890 l 961 29 b 924 0 961 29 954 0 l 807 0 b 763 32 771 0 763 32 l 624 475 l 485 32 b 440 0 485 32 476 0 l 318 0 b 281 29 288 0 281 29 l 24 874 b 49 914 19 890 24 914 l 201 914 b 257 869 243 914 251 886 l 394 397 l 528 869 b 575 914 533 889 543 914 l 672 914 b 718 869 703 914 713 889 l 853 397 l 990 869 b 1046 914 994 886 1004 914 l 1193 914 "},"X":{"ha":814,"x_min":0,"x_max":0,"o":"m 782 43 b 765 0 793 26 786 0 l 607 0 b 546 39 576 0 565 3 l 408 286 l 269 39 b 208 0 251 3 239 0 l 50 0 b 33 43 29 0 22 26 l 281 468 l 29 875 b 50 914 21 890 26 914 l 214 914 b 269 874 240 914 251 903 l 408 650 l 546 874 b 603 914 565 903 575 914 l 765 914 b 786 875 789 914 796 890 l 536 468 "},"Y":{"ha":839,"x_min":0,"x_max":0,"o":"m 799 914 b 821 875 825 914 828 890 l 535 343 l 535 40 b 494 0 535 8 519 0 l 356 0 b 315 40 329 0 315 8 l 315 343 l 18 875 b 40 914 11 890 14 914 l 200 914 b 265 872 232 914 246 910 l 428 574 l 585 872 b 649 914 603 910 617 914 l 799 914 "},"Z":{"ha":788,"x_min":0,"x_max":0,"o":"m 697 194 b 738 154 729 194 738 179 l 738 40 b 697 0 738 15 729 0 l 92 0 b 50 40 56 0 50 7 l 50 149 b 68 201 50 181 68 201 l 443 719 l 103 719 b 63 760 71 719 63 735 l 63 874 b 103 914 63 899 71 914 l 661 914 b 701 874 693 914 701 899 l 701 765 b 683 711 701 747 697 729 l 311 194 l 697 194 "},"[":{"ha":575,"x_min":0,"x_max":0,"o":"m 315 -22 l 479 -22 b 519 -62 511 -22 519 -37 l 519 -176 b 479 -217 519 -201 511 -217 l 143 -217 b 103 -176 111 -217 103 -201 l 103 894 b 143 935 103 919 111 935 l 479 935 b 519 894 511 935 519 919 l 519 781 b 479 740 519 756 511 740 l 315 740 "},"|":{"ha":468,"x_min":0,"x_max":0,"o":"m 289 1100 b 329 1060 314 1100 329 1092 l 329 -190 b 289 -231 329 -222 314 -231 l 179 -231 b 139 -190 154 -231 139 -222 l 139 1060 b 179 1100 139 1092 154 1100 l 289 1100 "},"ˇ":{"ha":611,"x_min":0,"x_max":0,"o":"m 178 924 b 226 894 200 924 215 908 l 297 808 l 368 894 b 415 924 379 908 393 924 l 539 924 b 554 888 560 924 568 901 l 389 697 b 351 681 379 686 364 681 l 243 681 b 206 697 229 681 215 686 l 39 888 b 56 924 25 901 33 924 l 178 924 "},"˘":{"ha":694,"x_min":0,"x_max":0,"o":"m 567 914 b 579 886 583 914 579 889 b 351 715 563 769 465 717 b 124 886 238 717 139 769 b 136 914 122 889 118 914 l 206 914 b 228 892 219 914 224 901 b 351 824 246 846 303 824 b 475 892 400 824 456 846 b 497 914 479 901 483 914 l 567 914 "},"˝":{"ha":694,"x_min":0,"x_max":0,"o":"m 69 686 b 51 725 43 686 43 713 l 144 875 b 207 914 165 910 176 914 l 383 914 b 410 875 418 914 422 888 l 271 725 b 206 686 251 706 240 686 m 446 686 b 428 725 419 686 419 713 l 521 875 b 583 914 542 910 553 914 l 760 914 b 786 875 794 914 799 888 l 647 725 b 582 686 628 706 617 686 "},"«":{"ha":657,"x_min":0,"x_max":0,"o":"m 249 674 b 285 657 263 688 285 679 l 285 535 b 256 486 285 513 269 497 l 169 415 l 256 344 b 285 297 269 333 285 319 l 285 174 b 249 158 285 153 263 144 l 58 324 b 42 361 47 333 42 349 l 42 469 b 58 507 42 483 47 497 l 249 674 m 574 535 b 544 486 574 513 558 497 l 458 415 l 544 344 b 574 297 558 333 574 319 l 574 174 b 538 158 574 153 551 144 l 347 324 b 331 361 336 333 331 349 l 331 469 b 347 507 331 483 336 497 l 538 674 b 574 657 551 688 574 679 l 574 535 "},"¥":{"ha":825,"x_min":0,"x_max":0,"o":"m 788 914 b 810 875 814 914 818 890 l 650 576 l 707 576 b 747 536 732 576 747 568 l 747 463 b 707 422 747 431 732 422 l 567 422 l 524 343 l 524 340 l 707 340 b 747 300 732 340 747 332 l 747 226 b 707 186 747 194 732 186 l 524 186 l 524 40 b 483 0 524 8 508 0 l 344 0 b 304 40 319 0 304 8 l 304 186 l 111 186 b 71 226 86 186 71 194 l 71 300 b 111 340 71 332 86 340 l 304 340 l 304 343 l 260 422 l 111 422 b 71 463 86 422 71 431 l 71 536 b 111 576 71 568 86 576 l 174 576 l 7 875 b 29 914 0 890 3 914 l 190 914 b 254 872 222 914 235 910 l 415 576 l 418 576 l 574 872 b 638 914 593 910 606 914 l 788 914 "},"¤":{"ha":936,"x_min":0,"x_max":0,"o":"m 721 686 b 778 686 743 708 760 704 l 824 640 b 824 583 842 622 846 606 l 768 526 b 767 174 836 419 835 282 l 824 117 b 824 60 846 94 842 78 l 779 15 b 722 15 761 -3 744 -7 l 665 72 b 313 71 557 4 421 4 l 256 15 b 199 15 233 -7 217 -3 l 153 61 b 153 118 135 79 131 96 l 208 174 b 210 526 142 282 142 419 l 154 583 b 154 640 132 606 136 622 l 199 685 b 256 685 217 703 233 707 l 313 629 b 665 631 419 697 557 697 l 721 686 m 596 243 b 596 457 656 301 656 399 b 381 458 536 517 440 517 b 382 243 322 399 322 303 b 596 243 440 183 538 183 "},"£":{"ha":904,"x_min":0,"x_max":0,"o":"m 808 194 b 849 154 840 194 849 179 l 849 40 b 808 0 849 17 840 0 l 88 0 l 88 0 b 49 40 57 1 49 17 l 49 154 b 89 194 49 179 56 194 b 181 318 128 194 175 206 l 89 318 b 49 358 57 318 49 333 l 49 467 b 89 507 49 492 57 507 l 181 507 l 181 657 b 500 935 181 835 329 935 b 832 625 664 935 832 842 b 806 594 832 596 826 594 l 668 594 b 629 625 638 594 629 613 b 507 740 629 718 585 740 b 400 601 431 740 400 675 l 400 507 l 581 507 b 621 467 613 507 621 492 l 621 358 b 581 318 621 333 613 318 l 400 318 b 354 194 400 250 378 214 l 808 194 "},"ß":{"ha":914,"x_min":0,"x_max":0,"o":"m 715 482 b 842 272 726 478 842 422 b 511 3 842 96 704 3 b 476 3 511 3 506 3 l 433 3 b 393 43 401 3 393 18 l 393 160 b 433 200 393 185 401 200 l 518 200 b 628 293 586 200 628 231 b 515 381 628 356 575 381 l 478 381 b 438 421 446 381 438 396 l 438 526 b 478 567 438 551 446 567 l 499 567 b 614 653 581 567 614 599 b 499 733 614 707 571 733 b 319 554 378 733 319 682 l 319 -119 b 279 -160 319 -151 304 -160 l 143 -160 b 103 -119 118 -160 103 -151 l 103 597 b 492 929 107 808 278 929 b 817 675 718 929 817 806 b 715 482 817 535 729 488 "},"Œ":{"ha":1282,"x_min":0,"x_max":0,"o":"m 1178 194 b 1218 154 1210 194 1218 179 l 1218 40 b 1178 0 1218 15 1210 0 l 433 0 b 67 315 269 3 67 99 l 67 599 b 433 914 67 815 269 914 l 1156 914 b 1194 874 1186 914 1194 899 l 1194 760 b 1156 719 1194 735 1186 719 l 801 719 l 801 565 l 1107 565 b 1147 525 1139 565 1147 550 l 1147 417 b 1107 376 1147 392 1139 376 l 801 376 l 801 194 l 1178 194 m 596 728 l 440 728 b 286 568 349 728 286 657 l 286 346 b 440 188 286 257 349 188 l 596 188 "},"˜":{"ha":661,"x_min":0,"x_max":0,"o":"m 622 914 b 639 886 639 914 639 894 l 639 885 b 489 732 639 803 579 732 b 376 757 453 732 407 746 b 278 789 376 757 294 786 b 229 757 260 792 238 785 b 194 732 225 743 219 732 l 131 732 b 114 760 114 732 114 751 l 114 761 b 264 914 114 843 174 914 b 376 889 300 914 346 900 b 475 857 376 889 458 860 b 524 889 493 854 515 861 b 558 914 528 903 533 914 l 622 914 "},"÷":{"ha":772,"x_min":0,"x_max":0,"o":"m 382 788 b 507 663 451 788 507 732 b 382 538 507 593 451 538 b 256 663 313 538 256 593 b 382 788 256 732 313 788 m 382 231 b 507 106 451 231 507 175 b 382 -21 507 36 451 -21 b 256 106 313 -21 256 36 b 382 231 256 175 313 231 m 663 479 b 703 439 688 479 703 471 l 703 331 b 663 290 703 299 688 290 l 100 290 b 60 331 75 290 60 299 l 60 439 b 100 479 60 471 75 479 l 663 479 "},"^":{"ha":744,"x_min":0,"x_max":0,"o":"m 660 475 b 664 460 663 469 664 464 b 639 440 664 447 654 440 l 508 440 b 464 474 472 440 472 457 l 372 674 l 281 474 b 235 440 272 457 271 440 l 106 440 b 79 461 90 440 79 449 b 83 475 79 465 81 469 l 281 889 b 313 914 290 910 300 914 l 432 914 b 463 889 444 914 454 910 l 660 475 "},"ˆ":{"ha":694,"x_min":0,"x_max":0,"o":"m 463 671 b 415 700 440 671 426 686 l 344 786 l 274 700 b 225 671 263 686 247 671 l 103 671 b 86 707 81 671 72 693 l 253 897 b 290 914 263 908 276 914 l 399 914 b 436 897 411 914 426 908 l 601 707 b 586 671 615 693 607 671 l 463 671 "},"—":{"ha":1063,"x_min":0,"x_max":0,"o":"m 954 478 b 994 438 979 478 994 469 l 994 329 b 954 289 994 297 979 289 l 108 289 b 68 329 83 289 68 297 l 68 438 b 108 478 68 469 83 478 l 954 478 "},"¨":{"ha":772,"x_min":0,"x_max":0,"o":"m 290 914 b 331 874 314 914 331 906 l 331 783 b 290 743 331 751 314 743 l 138 743 b 97 783 111 743 97 751 l 97 874 b 138 914 97 906 111 914 l 290 914 m 633 914 b 674 874 658 914 674 906 l 674 783 b 633 743 674 751 658 743 l 481 743 b 440 783 456 743 440 751 l 440 874 b 481 914 440 906 456 914 l 633 914 "},"×":{"ha":747,"x_min":0,"x_max":0,"o":"m 672 272 b 672 215 690 254 696 238 l 596 138 b 539 138 574 115 557 121 l 374 304 l 207 138 b 150 138 190 121 174 115 l 74 215 b 74 272 51 238 57 254 l 240 438 l 74 603 b 74 660 57 621 51 638 l 150 738 b 207 738 174 760 190 754 l 374 571 l 539 738 b 596 738 557 754 574 760 l 672 660 b 672 603 696 638 690 621 l 507 438 l 672 272 "},"€":{"ha":954,"x_min":0,"x_max":0,"o":"m 854 317 b 896 269 885 317 896 303 b 535 -21 896 90 707 -21 b 163 292 369 -21 163 74 l 163 297 l 89 297 b 49 338 64 297 49 306 l 49 388 b 89 428 49 419 64 428 l 163 428 l 163 494 l 89 494 b 49 535 64 494 49 503 l 49 585 b 89 625 49 617 64 625 l 163 625 b 535 933 167 839 371 933 b 896 669 707 933 878 846 b 853 629 896 636 885 629 l 719 629 b 678 672 690 629 689 656 b 535 739 649 718 610 739 b 383 625 453 739 393 697 l 565 625 b 606 585 589 625 606 617 l 606 535 b 565 494 606 503 589 494 l 381 494 l 381 428 l 565 428 b 606 388 589 428 606 419 l 606 338 b 565 297 606 306 589 297 l 382 297 b 535 172 388 218 449 172 b 681 267 610 172 669 200 b 718 317 685 294 688 317 l 854 317 "},")":{"ha":496,"x_min":0,"x_max":0,"o":"m 196 363 b 75 901 194 556 161 718 b 94 936 68 917 74 936 l 243 936 b 281 908 264 936 275 921 b 404 363 364 732 404 554 b 281 -182 404 172 364 -6 b 243 -210 275 -194 264 -210 l 94 -210 b 75 -175 74 -210 68 -190 b 196 363 161 8 194 171 "},"]":{"ha":575,"x_min":0,"x_max":0,"o":"m 260 740 l 96 740 b 56 781 64 740 56 756 l 56 894 b 96 935 56 919 64 935 l 432 935 b 472 894 464 935 472 919 l 472 -176 b 432 -217 472 -201 464 -217 l 96 -217 b 56 -176 64 -217 56 -201 l 56 -62 b 96 -22 56 -37 64 -22 l 260 -22 "},"\\":{"ha":557,"x_min":0,"x_max":0,"o":"m 164 963 b 207 925 190 963 200 942 l 540 39 b 508 0 544 25 543 0 l 389 0 b 346 38 363 0 353 21 l 14 924 b 46 963 10 938 11 963 "},"`":{"ha":772,"x_min":0,"x_max":0,"o":"m 344 686 b 279 725 310 686 299 706 l 140 875 b 167 914 128 888 132 914 l 343 914 b 406 875 374 914 385 910 l 499 725 b 481 686 507 713 507 686 "},"–":{"ha":790,"x_min":0,"x_max":0,"o":"m 682 478 b 722 438 707 478 722 469 l 722 329 b 682 289 722 297 707 289 l 108 289 b 68 329 83 289 68 297 l 68 438 b 108 478 68 469 83 478 l 682 478 "},"‚":{"ha":418,"x_min":0,"x_max":0,"o":"m 286 235 b 326 194 311 235 326 226 l 326 69 b 317 4 326 39 325 26 l 238 -157 b 200 -182 228 -174 218 -182 l 111 -182 b 97 -143 93 -182 88 -161 l 174 0 l 132 0 b 92 40 107 0 92 8 l 92 194 b 132 235 92 226 107 235 l 286 235 "},"„":{"ha":758,"x_min":0,"x_max":0,"o":"m 626 235 b 667 194 651 235 667 226 l 667 69 b 657 4 667 39 665 26 l 578 -157 b 540 -182 568 -174 558 -182 l 451 -182 b 439 -143 433 -182 428 -161 l 514 0 l 472 0 b 432 40 447 0 432 8 l 432 194 b 472 235 432 226 447 235 l 626 235 m 286 235 b 326 194 311 235 326 226 l 326 69 b 317 4 326 39 325 26 l 238 -157 b 200 -182 228 -174 218 -182 l 111 -182 b 97 -143 93 -182 88 -161 l 174 0 l 132 0 b 92 40 107 0 92 8 l 92 194 b 132 235 92 226 107 235 l 286 235 "},"“":{"ha":758,"x_min":0,"x_max":0,"o":"m 132 497 b 92 538 107 497 92 506 l 92 663 b 101 728 92 693 93 706 l 181 889 b 218 914 190 906 200 914 l 307 914 b 319 875 325 914 331 893 l 244 732 l 286 732 b 326 692 311 732 326 724 l 326 538 b 286 497 326 506 311 497 m 472 497 b 432 538 447 497 432 506 l 432 663 b 442 728 432 693 433 706 l 521 889 b 558 914 531 906 540 914 l 647 914 b 661 875 665 914 671 893 l 585 732 l 626 732 b 667 692 651 732 667 724 l 667 538 b 626 497 667 506 651 497 "},"”":{"ha":758,"x_min":0,"x_max":0,"o":"m 626 914 b 667 874 651 914 667 906 l 667 749 b 657 683 667 718 665 706 l 578 522 b 540 497 568 506 558 497 l 451 497 b 439 536 433 497 428 518 l 514 679 l 472 679 b 432 719 447 679 432 688 l 432 874 b 472 914 432 906 447 914 m 286 914 b 326 874 311 914 326 906 l 326 749 b 317 683 326 718 325 706 l 238 522 b 200 497 228 506 218 497 l 111 497 b 97 536 93 497 88 518 l 174 679 l 132 679 b 92 719 107 679 92 688 l 92 874 b 132 914 92 906 107 914 "},"’":{"ha":424,"x_min":0,"x_max":0,"o":"m 332 735 b 322 683 332 717 329 701 l 243 522 b 206 497 233 506 224 497 l 104 497 b 92 508 97 497 92 501 b 96 521 92 511 93 517 l 179 679 l 140 679 b 97 724 106 679 97 686 l 97 869 b 140 914 97 907 106 914 l 289 914 b 332 869 324 914 332 907 "},"‘":{"ha":418,"x_min":0,"x_max":0,"o":"m 132 501 b 92 542 107 501 92 510 l 92 667 b 101 732 92 697 93 710 l 181 893 b 218 918 190 910 200 918 l 307 918 b 321 879 325 918 331 897 l 244 736 l 286 736 b 326 696 311 736 326 728 l 326 542 b 286 501 326 510 311 501 "},"¦":{"ha":468,"x_min":0,"x_max":0,"o":"m 289 850 b 329 810 314 850 329 842 l 329 518 b 289 478 329 486 314 478 l 179 478 b 139 518 154 478 139 486 l 139 810 b 179 850 139 842 154 850 l 289 850 m 289 215 b 329 175 314 215 329 207 l 329 -117 b 289 -157 329 -149 314 -157 l 179 -157 b 139 -117 154 -157 139 -149 l 139 175 b 179 215 139 207 154 215 l 289 215 "},"_":{"ha":819,"x_min":0,"x_max":0,"o":"m 779 -122 b 819 -162 804 -122 819 -131 l 819 -206 b 779 -246 819 -237 804 -246 l 40 -246 b 0 -206 15 -246 0 -237 l 0 -162 b 40 -122 0 -131 15 -122 l 779 -122 "},"˚":{"ha":694,"x_min":0,"x_max":0,"o":"m 156 781 b 313 936 156 867 228 936 b 468 781 397 936 468 865 b 313 624 468 696 399 624 b 156 781 226 624 156 694 m 239 781 b 313 707 239 742 274 707 b 385 781 351 707 385 743 b 313 853 385 818 350 853 b 239 781 275 853 239 819 "},"À":{"ha":910,"x_min":0,"x_max":0,"o":"m 889 39 b 865 0 896 22 896 0 l 719 0 b 667 42 689 0 678 8 l 628 151 l 288 151 l 249 42 b 196 0 238 8 226 0 l 50 0 b 26 39 19 0 19 22 l 335 871 b 392 914 346 900 361 914 l 525 914 b 582 871 556 914 569 900 l 889 39 m 563 346 l 458 653 l 354 346 m 382 994 b 317 1033 347 994 336 1014 l 178 1183 b 204 1222 165 1196 169 1222 l 381 1222 b 443 1183 411 1222 422 1218 l 536 1033 b 518 994 544 1021 544 994 "},"´":{"ha":772,"x_min":0,"x_max":0,"o":"m 306 686 b 288 725 279 686 279 713 l 381 875 b 443 914 401 910 413 914 l 619 914 b 646 875 654 914 658 888 l 507 725 b 442 686 488 706 476 686 "},"Á":{"ha":910,"x_min":0,"x_max":0,"o":"m 889 39 b 865 0 896 22 896 0 l 719 0 b 667 42 689 0 678 8 l 628 151 l 288 151 l 249 42 b 196 0 238 8 226 0 l 50 0 b 26 39 19 0 19 22 l 335 871 b 392 914 346 900 361 914 l 525 914 b 582 871 556 914 569 900 l 889 39 m 563 346 l 458 653 l 354 346 m 394 994 b 376 1033 368 994 368 1021 l 469 1183 b 532 1222 490 1218 501 1222 l 708 1222 b 735 1183 743 1222 747 1196 l 596 1033 b 531 994 576 1014 565 994 "},"Â":{"ha":910,"x_min":0,"x_max":0,"o":"m 889 39 b 865 0 896 22 896 0 l 719 0 b 667 42 689 0 678 8 l 628 151 l 288 151 l 249 42 b 196 0 238 8 226 0 l 50 0 b 26 39 19 0 19 22 l 335 871 b 392 914 346 900 361 914 l 525 914 b 582 871 556 914 569 900 l 889 39 m 563 346 l 458 653 l 354 346 m 578 994 b 531 1024 556 994 542 1010 l 460 1110 l 389 1024 b 340 994 378 1010 363 994 l 218 994 b 201 1031 196 994 188 1017 l 368 1221 b 406 1238 378 1232 392 1238 l 514 1238 b 551 1221 526 1238 542 1232 l 717 1031 b 701 994 731 1017 722 994 l 578 994 "},"Ã":{"ha":910,"x_min":0,"x_max":0,"o":"m 889 39 b 865 0 896 22 896 0 l 719 0 b 667 42 689 0 678 8 l 628 151 l 288 151 l 249 42 b 196 0 238 8 226 0 l 50 0 b 26 39 19 0 19 22 l 335 871 b 392 914 346 900 361 914 l 525 914 b 582 871 556 914 569 900 l 889 39 m 563 346 l 458 653 l 354 346 m 711 1176 b 728 1149 728 1176 728 1157 l 728 1147 b 578 994 728 1065 668 994 b 465 1019 542 994 496 1008 b 367 1051 465 1019 383 1049 b 318 1019 349 1054 326 1047 b 283 994 314 1006 308 994 l 219 994 b 203 1022 203 994 203 1014 l 203 1024 b 353 1176 203 1106 263 1176 b 465 1151 389 1176 435 1163 b 564 1119 465 1151 547 1122 b 613 1151 582 1117 604 1124 b 647 1176 617 1165 622 1176 l 711 1176 "},"Ä":{"ha":910,"x_min":0,"x_max":0,"o":"m 358 1165 b 399 1125 382 1165 399 1157 l 399 1035 b 358 994 399 1003 382 994 l 206 994 b 165 1035 179 994 165 1003 l 165 1125 b 206 1165 165 1157 179 1165 l 358 1165 m 701 1165 b 742 1125 726 1165 742 1157 l 742 1035 b 701 994 742 1003 726 994 l 549 994 b 508 1035 524 994 508 1003 l 508 1125 b 549 1165 508 1157 524 1165 l 701 1165 m 889 39 b 865 0 896 22 896 0 l 719 0 b 667 42 689 0 678 8 l 628 151 l 288 151 l 249 42 b 196 0 238 8 226 0 l 50 0 b 26 39 19 0 19 22 l 335 871 b 392 914 346 900 361 914 l 525 914 b 582 871 556 914 569 900 l 889 39 m 563 346 l 458 653 l 354 346 "},"Å":{"ha":910,"x_min":0,"x_max":0,"o":"m 382 1013 b 456 939 382 974 417 939 b 528 1013 494 939 528 975 b 456 1085 528 1050 493 1085 b 382 1013 418 1085 382 1051 m 563 346 l 458 653 l 354 346 m 889 39 b 865 0 896 22 896 0 l 719 0 b 667 42 689 0 678 8 l 628 151 l 288 151 l 249 42 b 196 0 238 8 226 0 l 50 0 b 26 39 19 0 19 22 l 335 871 b 349 897 339 882 343 890 b 299 1013 318 925 299 967 b 456 1168 299 1099 371 1168 b 611 1013 540 1168 611 1097 b 564 900 611 969 593 928 b 582 871 571 893 576 883 l 889 39 "},"Æ":{"ha":1347,"x_min":0,"x_max":0,"o":"m 1243 194 b 1283 154 1275 194 1283 179 l 1283 40 b 1243 0 1283 15 1275 0 l 654 0 b 614 33 633 0 614 4 l 614 151 l 319 151 l 267 42 b 204 0 251 14 236 0 l 42 0 b 22 39 22 0 14 19 l 417 860 b 490 915 433 893 453 915 l 1219 915 b 1260 875 1251 915 1260 900 l 1260 761 b 1219 721 1260 736 1251 721 l 822 721 l 822 567 l 1172 567 b 1213 526 1204 567 1213 551 l 1213 418 b 1172 378 1213 393 1204 378 l 822 378 l 822 194 l 1243 194 m 614 722 l 569 722 l 400 347 l 614 347 "},"È":{"ha":871,"x_min":0,"x_max":0,"o":"m 765 194 b 806 154 797 194 806 179 l 806 40 b 765 0 806 15 797 0 l 143 0 b 103 40 111 0 103 15 l 103 874 b 143 914 103 899 111 914 l 742 914 b 782 874 774 914 782 899 l 782 758 b 742 718 782 733 774 718 l 322 718 l 322 567 l 694 567 b 735 526 726 567 735 551 l 735 418 b 694 378 735 393 726 378 l 322 378 l 322 194 l 765 194 m 408 994 b 343 1033 374 994 363 1014 l 204 1183 b 231 1222 192 1196 196 1222 l 407 1222 b 469 1183 438 1222 449 1218 l 563 1033 b 544 994 571 1021 571 994 "},"É":{"ha":871,"x_min":0,"x_max":0,"o":"m 765 194 b 806 154 797 194 806 179 l 806 40 b 765 0 806 15 797 0 l 143 0 b 103 40 111 0 103 15 l 103 874 b 143 914 103 899 111 914 l 742 914 b 782 874 774 914 782 899 l 782 758 b 742 718 782 733 774 718 l 322 718 l 322 567 l 694 567 b 735 526 726 567 735 551 l 735 418 b 694 378 735 393 726 378 l 322 378 l 322 194 l 765 194 m 353 994 b 335 1033 326 994 326 1021 l 428 1183 b 490 1222 449 1218 460 1222 l 667 1222 b 693 1183 701 1222 706 1196 l 554 1033 b 489 994 535 1014 524 994 "},"Ê":{"ha":871,"x_min":0,"x_max":0,"o":"m 765 194 b 806 154 797 194 806 179 l 806 40 b 765 0 806 15 797 0 l 143 0 b 103 40 111 0 103 15 l 103 874 b 143 914 103 899 111 914 l 742 914 b 782 874 774 914 782 899 l 782 758 b 742 718 782 733 774 718 l 322 718 l 322 567 l 694 567 b 735 526 726 567 735 551 l 735 418 b 694 378 735 393 726 378 l 322 378 l 322 194 l 765 194 m 572 994 b 525 1024 550 994 536 1010 l 454 1110 l 383 1024 b 335 994 372 1010 357 994 l 213 994 b 196 1031 190 994 182 1017 l 363 1221 b 400 1238 372 1232 386 1238 l 508 1238 b 546 1221 521 1238 536 1232 l 711 1031 b 696 994 725 1017 717 994 l 572 994 "},"Ë":{"ha":871,"x_min":0,"x_max":0,"o":"m 765 194 b 806 154 797 194 806 179 l 806 40 b 765 0 806 15 797 0 l 143 0 b 103 40 111 0 103 15 l 103 874 b 143 914 103 899 111 914 l 742 914 b 782 874 774 914 782 899 l 782 758 b 742 718 782 733 774 718 l 322 718 l 322 567 l 694 567 b 735 526 726 567 735 551 l 735 418 b 694 378 735 393 726 378 l 322 378 l 322 194 l 765 194 m 350 1165 b 390 1125 374 1165 390 1157 l 390 1035 b 350 994 390 1003 374 994 l 197 994 b 157 1035 171 994 157 1003 l 157 1125 b 197 1165 157 1157 171 1165 l 350 1165 m 693 1165 b 733 1125 718 1165 733 1157 l 733 1035 b 693 994 733 1003 718 994 l 540 994 b 500 1035 515 994 500 1003 l 500 1125 b 540 1165 500 1157 515 1165 l 693 1165 "},"Ì":{"ha":678,"x_min":0,"x_max":0,"o":"m 289 994 b 224 1033 254 994 243 1014 l 85 1183 b 111 1222 72 1196 76 1222 l 288 1222 b 350 1183 318 1222 329 1218 l 443 1033 b 425 994 451 1021 451 994 m 560 194 b 600 154 592 194 600 179 l 600 40 b 560 0 600 15 592 0 l 128 0 b 88 40 96 0 88 15 l 88 154 b 128 194 88 179 96 194 l 235 194 l 235 719 l 150 719 b 110 760 118 719 110 735 l 110 874 b 150 914 110 899 118 914 l 536 914 b 576 874 568 914 576 899 l 576 760 b 536 719 576 735 568 719 l 453 719 l 453 194 l 560 194 "},"Í":{"ha":672,"x_min":0,"x_max":0,"o":"m 550 194 b 590 154 582 194 590 179 l 590 40 b 550 0 590 15 582 0 l 118 0 b 78 40 86 0 78 15 l 78 154 b 118 194 78 179 86 194 l 225 194 l 225 719 l 140 719 b 100 760 108 719 100 735 l 100 874 b 140 914 100 899 108 914 l 526 914 b 567 874 558 914 567 899 l 567 760 b 526 719 567 735 558 719 l 443 719 l 443 194 l 550 194 m 247 994 b 229 1033 221 994 221 1021 l 322 1183 b 385 1222 343 1218 354 1222 l 561 1222 b 588 1183 596 1222 600 1196 l 449 1033 b 383 994 429 1014 418 994 "},"Î":{"ha":686,"x_min":0,"x_max":0,"o":"m 550 194 b 590 154 582 194 590 179 l 590 40 b 550 0 590 15 582 0 l 118 0 b 78 40 86 0 78 15 l 78 154 b 118 194 78 179 86 194 l 225 194 l 225 719 l 140 719 b 100 760 108 719 100 735 l 100 874 b 140 914 100 899 108 914 l 526 914 b 567 874 558 914 567 899 l 567 760 b 526 719 567 735 558 719 l 443 719 l 443 194 l 550 194 m 463 994 b 415 1024 440 994 426 1010 l 344 1110 l 274 1024 b 225 994 263 1010 247 994 l 103 994 b 86 1031 81 994 72 1017 l 253 1221 b 290 1238 263 1232 276 1238 l 399 1238 b 436 1221 411 1238 426 1232 l 601 1031 b 586 994 615 1017 607 994 l 463 994 "},"Ï":{"ha":732,"x_min":0,"x_max":0,"o":"m 582 194 b 622 154 614 194 622 179 l 622 40 b 582 0 622 15 614 0 l 150 0 b 110 40 118 0 110 15 l 110 154 b 150 194 110 179 118 194 l 257 194 l 257 719 l 172 719 b 132 760 140 719 132 735 l 132 874 b 172 914 132 899 140 914 l 558 914 b 599 874 590 914 599 899 l 599 760 b 558 719 599 735 590 719 l 475 719 l 475 194 l 582 194 m 271 1165 b 311 1125 294 1165 311 1157 l 311 1035 b 271 994 311 1003 294 994 l 118 994 b 78 1035 92 994 78 1003 l 78 1125 b 118 1165 78 1157 92 1165 l 271 1165 m 614 1165 b 654 1125 639 1165 654 1157 l 654 1035 b 614 994 654 1003 639 994 l 461 994 b 421 1035 436 994 421 1003 l 421 1125 b 461 1165 421 1157 436 1165 l 614 1165 "},"Ñ":{"ha":947,"x_min":0,"x_max":0,"o":"m 804 914 b 844 874 829 914 844 906 l 844 40 b 804 0 844 15 836 0 l 678 0 b 615 47 643 0 633 19 l 321 524 l 321 40 b 281 0 321 8 306 0 l 143 0 b 103 40 118 0 103 8 l 103 874 b 143 914 103 899 111 914 l 274 914 b 336 867 308 914 318 894 l 631 392 l 631 874 b 671 914 631 906 646 914 l 804 914 m 738 1176 b 754 1149 754 1176 754 1157 l 754 1147 b 604 994 754 1065 694 994 b 492 1019 568 994 522 1008 b 393 1051 492 1019 410 1049 b 344 1019 375 1054 353 1047 b 310 994 340 1006 335 994 l 246 994 b 229 1022 229 994 229 1014 l 229 1024 b 379 1176 229 1106 289 1176 b 492 1151 415 1176 461 1163 b 590 1119 492 1151 574 1122 b 639 1151 608 1117 631 1124 b 674 1176 643 1165 649 1176 l 738 1176 "},"Ò":{"ha":896,"x_min":0,"x_max":0,"o":"m 442 994 b 376 1033 407 994 396 1014 l 238 1183 b 264 1222 225 1196 229 1222 l 440 1222 b 503 1183 471 1222 482 1218 l 596 1033 b 578 994 604 1021 604 994 m 821 293 b 447 -21 821 74 613 -21 b 76 293 282 -21 76 74 l 76 621 b 447 935 76 840 282 935 b 821 621 613 935 821 840 m 603 601 b 447 742 603 690 539 742 b 293 601 357 742 293 690 l 293 313 b 447 172 293 224 357 172 b 603 313 539 172 603 224 "},"Ó":{"ha":896,"x_min":0,"x_max":0,"o":"m 821 293 b 447 -21 821 74 613 -21 b 76 293 282 -21 76 74 l 76 621 b 447 935 76 840 282 935 b 821 621 613 935 821 840 m 603 601 b 447 742 603 690 539 742 b 293 601 357 742 293 690 l 293 313 b 447 172 293 224 357 172 b 603 313 539 172 603 224 m 317 994 b 299 1033 290 994 290 1021 l 392 1183 b 454 1222 413 1218 424 1222 l 631 1222 b 657 1183 665 1222 669 1196 l 518 1033 b 453 994 499 1014 488 994 "},"Ô":{"ha":896,"x_min":0,"x_max":0,"o":"m 821 621 b 447 935 821 840 613 935 b 76 621 282 935 76 840 l 76 293 b 447 -21 76 74 282 -21 b 821 293 613 -21 821 74 l 821 621 m 603 313 b 447 172 603 224 539 172 b 293 313 357 172 293 224 l 293 601 b 447 742 293 690 357 742 b 603 601 539 742 603 690 m 567 994 b 519 1024 544 994 531 1010 l 449 1110 l 378 1024 b 329 994 367 1010 351 994 l 207 994 b 190 1031 185 994 176 1017 l 357 1221 b 394 1238 367 1232 381 1238 l 503 1238 b 540 1221 515 1238 531 1232 l 706 1031 b 690 994 719 1017 711 994 l 567 994 "},"Õ":{"ha":896,"x_min":0,"x_max":0,"o":"m 821 621 b 447 935 821 840 613 935 b 76 621 282 935 76 840 l 76 293 b 447 -21 76 74 282 -21 b 821 293 613 -21 821 74 l 821 621 m 603 313 b 447 172 603 224 539 172 b 293 313 357 172 293 224 l 293 601 b 447 742 293 690 357 742 b 603 601 539 742 603 690 m 693 1176 b 710 1149 710 1176 710 1157 l 710 1147 b 560 994 710 1065 650 994 b 447 1019 524 994 478 1008 b 349 1051 447 1019 365 1049 b 300 1019 331 1054 308 1047 b 265 994 296 1006 290 994 l 201 994 b 185 1022 185 994 185 1014 l 185 1024 b 335 1176 185 1106 244 1176 b 447 1151 371 1176 417 1163 b 546 1119 447 1151 529 1122 b 594 1151 564 1117 586 1124 b 629 1176 599 1165 604 1176 l 693 1176 "},"Ö":{"ha":896,"x_min":0,"x_max":0,"o":"m 821 621 b 447 935 821 840 613 935 b 76 621 282 935 76 840 l 76 293 b 447 -21 76 74 282 -21 b 821 293 613 -21 821 74 l 821 621 m 603 313 b 447 172 603 224 539 172 b 293 313 357 172 293 224 l 293 601 b 447 742 293 690 357 742 b 603 601 539 742 603 690 m 351 1165 b 392 1125 375 1165 392 1157 l 392 1035 b 351 994 392 1003 375 994 l 199 994 b 158 1035 172 994 158 1003 l 158 1125 b 199 1165 158 1157 172 1165 l 351 1165 m 694 1165 b 735 1125 719 1165 735 1157 l 735 1035 b 694 994 735 1003 719 994 l 542 994 b 501 1035 517 994 501 1003 l 501 1125 b 542 1165 501 1157 517 1165 l 694 1165 "},"Ù":{"ha":918,"x_min":0,"x_max":0,"o":"m 786 914 b 826 874 811 914 826 906 l 826 279 b 458 -21 826 61 624 -21 b 92 279 293 -21 92 61 l 92 874 b 132 914 92 906 107 914 l 269 914 b 310 874 294 914 310 906 l 310 310 b 458 172 310 222 367 172 b 608 310 550 172 608 222 l 608 874 b 649 914 608 906 624 914 l 786 914 m 442 994 b 376 1033 407 994 396 1014 l 238 1183 b 264 1222 225 1196 229 1222 l 440 1222 b 503 1183 471 1222 482 1218 l 596 1033 b 578 994 604 1021 604 994 "},"Ú":{"ha":918,"x_min":0,"x_max":0,"o":"m 786 914 b 826 874 811 914 826 906 l 826 279 b 458 -21 826 61 624 -21 b 92 279 293 -21 92 61 l 92 874 b 132 914 92 906 107 914 l 269 914 b 310 874 294 914 310 906 l 310 310 b 458 172 310 222 367 172 b 608 310 550 172 608 222 l 608 874 b 649 914 608 906 624 914 l 786 914 m 333 994 b 315 1033 307 994 307 1021 l 408 1183 b 471 1222 429 1218 440 1222 l 647 1222 b 674 1183 682 1222 686 1196 l 535 1033 b 469 994 515 1014 504 994 "},"Û":{"ha":918,"x_min":0,"x_max":0,"o":"m 786 914 b 826 874 811 914 826 906 l 826 279 b 458 -21 826 61 624 -21 b 92 279 293 -21 92 61 l 92 874 b 132 914 92 906 107 914 l 269 914 b 310 874 294 914 310 906 l 310 310 b 458 172 310 222 367 172 b 608 310 550 172 608 222 l 608 874 b 649 914 608 906 624 914 l 786 914 m 576 994 b 529 1024 554 994 540 1010 l 458 1110 l 388 1024 b 339 994 376 1010 361 994 l 217 994 b 200 1031 194 994 186 1017 l 367 1221 b 404 1238 376 1232 390 1238 l 513 1238 b 550 1221 525 1238 540 1232 l 715 1031 b 700 994 729 1017 721 994 l 576 994 "},"Ü":{"ha":918,"x_min":0,"x_max":0,"o":"m 364 1165 b 404 1125 388 1165 404 1157 l 404 1035 b 364 994 404 1003 388 994 l 211 994 b 171 1035 185 994 171 1003 l 171 1125 b 211 1165 171 1157 185 1165 l 364 1165 m 707 1165 b 747 1125 732 1165 747 1157 l 747 1035 b 707 994 747 1003 732 994 l 554 994 b 514 1035 529 994 514 1003 l 514 1125 b 554 1165 514 1157 529 1165 l 707 1165 m 786 914 b 826 874 811 914 826 906 l 826 279 b 458 -21 826 61 624 -21 b 92 279 293 -21 92 61 l 92 874 b 132 914 92 906 107 914 l 269 914 b 310 874 294 914 310 906 l 310 310 b 458 172 310 222 367 172 b 608 310 550 172 608 222 l 608 874 b 649 914 608 906 624 914 l 786 914 "},"Ý":{"ha":839,"x_min":0,"x_max":0,"o":"m 799 914 b 821 875 825 914 828 890 l 535 343 l 535 40 b 494 0 535 8 519 0 l 356 0 b 315 40 329 0 315 8 l 315 343 l 18 875 b 40 914 11 890 14 914 l 200 914 b 265 872 232 914 246 910 l 428 574 l 585 872 b 649 914 603 910 617 914 l 799 914 m 338 994 b 319 1033 311 994 311 1021 l 413 1183 b 475 1222 433 1218 444 1222 l 651 1222 b 678 1183 686 1222 690 1196 l 539 1033 b 474 994 519 1014 508 994 "},"…":{"ha":1249,"x_min":0,"x_max":0,"o":"m 274 233 b 314 193 299 233 314 225 l 314 39 b 274 -1 314 7 299 -1 l 119 -1 b 79 39 94 -1 79 7 l 79 193 b 119 233 79 225 94 233 l 274 233 m 1040 233 b 1081 193 1065 233 1081 225 l 1081 39 b 1040 -1 1081 7 1065 -1 l 886 -1 b 846 39 861 -1 846 7 l 846 193 b 886 233 846 225 861 233 l 1040 233 m 657 233 b 697 193 682 233 697 225 l 697 39 b 657 -1 697 7 682 -1 l 503 -1 b 463 39 478 -1 463 7 l 463 193 b 503 233 463 225 478 233 l 657 233 "},"−":{"ha":701,"x_min":0,"x_max":0,"o":"m 593 478 b 633 438 618 478 633 469 l 633 329 b 593 289 633 297 618 289 l 108 289 b 68 329 83 289 68 297 l 68 438 b 108 478 68 469 83 478 l 593 478 "},"˙":{"ha":694,"x_min":0,"x_max":0,"o":"m 444 914 b 485 874 468 914 485 906 l 485 783 b 444 743 485 751 468 743 l 292 743 b 251 783 265 743 251 751 l 251 874 b 292 914 251 906 265 914 l 444 914 "},"¿":{"ha":747,"x_min":0,"x_max":0,"o":"m 47 13 b 368 -242 47 -162 204 -242 b 690 32 607 -242 679 -78 b 667 75 690 63 689 75 l 528 75 b 485 32 494 75 489 54 b 485 32 485 31 485 33 b 367 -56 475 -6 438 -56 b 271 21 315 -56 271 -24 b 406 150 271 85 357 100 b 479 354 456 201 479 256 b 435 399 479 382 471 399 l 319 399 b 275 354 283 399 275 388 b 168 201 275 275 217 235 b 47 13 115 164 47 110 m 304 457 b 264 497 279 457 264 465 l 264 651 b 304 692 264 683 279 692 l 458 692 b 499 651 483 692 499 683 l 499 497 b 458 457 499 465 483 457 "},"°":{"ha":544,"x_min":0,"x_max":0,"o":"m 65 729 b 272 936 65 849 153 936 b 479 729 392 936 479 849 b 272 522 479 610 392 522 b 65 729 153 522 65 610 m 174 729 b 272 631 174 672 218 631 b 371 729 326 631 371 672 b 272 828 371 786 326 828 b 174 729 218 828 174 786 "},"±":{"ha":779,"x_min":0,"x_max":0,"o":"m 671 492 b 711 451 696 492 711 483 l 711 356 b 671 315 711 324 696 315 l 478 315 l 478 176 l 671 176 b 711 136 696 176 711 168 l 711 40 b 671 0 711 8 696 0 l 108 0 b 68 40 83 0 68 8 l 68 136 b 108 176 68 168 83 176 l 301 176 l 301 315 l 108 315 b 68 356 83 315 68 324 l 68 451 b 108 492 68 483 83 492 l 301 492 l 301 615 b 342 656 301 640 310 656 l 438 656 b 478 615 469 656 478 640 l 478 492 l 671 492 "},"·":{"ha":408,"x_min":0,"x_max":0,"o":"m 79 329 b 217 467 79 406 140 467 b 354 329 293 467 354 406 b 217 192 354 253 293 192 b 79 329 140 192 79 253 "},"¸":{"ha":694,"x_min":0,"x_max":0,"o":"m 457 69 b 474 35 481 69 481 46 l 432 -61 b 388 -394 644 -83 607 -394 l 294 -394 b 161 -343 238 -394 192 -375 b 254 -249 99 -281 192 -189 b 297 -267 265 -258 281 -267 l 385 -267 b 385 -160 446 -267 449 -162 l 285 -160 b 265 -121 261 -160 256 -144 b 381 69 336 18 350 69 "},"•":{"ha":653,"x_min":0,"x_max":0,"o":"m 100 496 b 281 676 100 597 179 676 b 463 496 382 676 463 597 b 281 314 463 394 382 314 b 100 496 179 314 100 394 "}," ":{"ha":376,"x_min":0,"x_max":0,"o":""},"@":{"ha":1157,"x_min":0,"x_max":0,"o":"m 842 0 b 800 32 806 0 800 17 l 800 46 b 668 -3 767 17 731 -3 b 518 51 608 -3 556 17 b 458 285 461 107 458 176 b 518 506 458 394 461 450 b 667 561 556 542 607 561 b 793 518 718 561 765 540 l 793 549 b 757 660 793 600 782 635 b 644 697 732 685 694 697 l 500 697 b 378 660 464 697 411 693 b 342 549 347 629 342 594 l 342 242 b 365 161 342 204 347 183 b 351 111 375 149 368 125 l 249 35 b 199 39 236 26 210 25 b 140 229 156 94 140 146 l 140 556 b 219 810 140 660 153 743 b 486 889 289 879 393 889 l 658 889 b 914 810 751 889 844 879 b 993 556 981 743 993 660 l 993 42 b 960 0 993 28 986 0 m 793 310 b 708 394 793 360 757 394 b 628 310 663 394 628 360 l 628 240 b 708 157 628 192 663 157 b 793 240 757 157 793 192 "},"~":{"ha":1157,"x_min":0,"x_max":0,"o":"m 911 436 b 907 382 925 422 925 401 b 708 289 861 340 794 289 b 564 326 660 289 607 303 b 451 361 521 351 492 361 b 369 332 422 361 394 347 b 313 340 351 321 325 325 l 242 411 b 244 467 228 425 226 447 b 443 558 290 508 357 558 b 588 521 492 558 544 544 b 700 486 632 496 660 486 b 782 515 729 486 757 500 b 840 508 800 526 826 524 l 911 436 "},"ÿ":{"ha":1157,"x_min":0,"x_max":0,"o":""},"$":{"ha":840,"x_min":0,"x_max":0,"o":"m 547 529 b 794 269 647 499 794 458 b 518 -15 794 103 682 8 l 518 -121 b 478 -161 518 -146 510 -161 l 369 -161 b 329 -121 338 -161 329 -146 l 329 -12 b 51 272 185 18 51 114 b 92 311 51 304 60 311 l 226 311 b 276 272 258 311 274 307 b 303 215 278 254 285 236 b 439 169 331 182 388 169 b 575 264 514 169 575 186 b 333 381 575 342 451 343 b 64 657 193 425 64 481 b 329 925 64 813 185 899 l 329 1032 b 369 1072 329 1057 338 1072 l 478 1072 b 518 1032 510 1072 518 1057 l 518 921 b 771 669 653 893 771 813 b 731 631 771 636 763 631 l 594 631 b 557 668 568 631 564 650 b 528 710 551 683 544 694 b 410 747 501 735 451 747 b 288 667 364 747 288 729 b 547 529 288 582 492 551 "},"»":{"ha":657,"x_min":0,"x_max":0,"o":"m 599 507 b 615 469 610 497 615 483 l 615 361 b 599 324 615 349 610 333 l 408 158 b 372 174 394 144 372 153 l 372 297 b 401 344 372 319 388 333 l 488 415 l 401 486 b 372 535 388 497 372 513 l 372 657 b 408 674 372 679 394 688 m 83 657 b 119 674 83 679 106 688 l 310 507 b 326 469 321 497 326 483 l 326 361 b 310 324 326 349 321 333 l 119 158 b 83 174 106 144 83 153 l 83 297 b 113 344 83 319 99 333 l 199 415 l 113 486 b 83 535 99 497 83 513 "},"‰":{"ha":1726,"x_min":0,"x_max":0,"o":"m 479 639 b 278 456 479 526 386 456 b 76 639 169 456 76 526 l 76 760 b 278 944 76 872 169 944 b 479 760 386 944 479 872 l 479 639 m 331 757 b 278 817 331 785 310 817 b 224 757 246 817 224 785 l 224 642 b 278 582 224 613 246 582 b 331 642 310 582 331 613 m 1447 513 b 1649 329 1556 513 1649 439 l 1649 207 b 1447 22 1649 94 1556 22 b 1246 207 1339 22 1246 94 l 1246 329 b 1447 513 1246 439 1339 513 m 1501 325 b 1447 386 1501 354 1479 386 b 1394 325 1415 386 1394 354 l 1394 211 b 1447 150 1394 182 1415 150 b 1501 211 1479 150 1501 182 m 910 969 b 932 933 935 969 939 950 l 443 40 b 393 0 433 24 421 0 b 313 0 393 0 335 0 b 290 35 286 0 283 18 l 778 928 b 829 969 788 944 801 969 b 910 969 829 969 888 969 m 957 513 b 1158 329 1065 513 1158 439 l 1158 207 b 957 22 1158 94 1065 22 b 756 207 849 22 756 94 l 756 329 b 957 513 756 439 849 513 m 1011 325 b 957 386 1011 354 989 386 b 904 325 925 386 904 354 l 904 211 b 957 150 904 182 925 150 b 1011 211 989 150 1011 182 "},"Ÿ":{"ha":851,"x_min":0,"x_max":0,"o":"m 172 1021 b 132 1061 147 1021 132 1029 l 132 1151 b 172 1192 132 1183 147 1192 l 325 1192 b 365 1151 350 1192 365 1183 l 365 1061 b 325 1021 365 1029 350 1021 l 172 1021 m 517 1021 b 476 1061 492 1021 476 1029 l 476 1151 b 517 1192 476 1183 492 1192 l 669 1192 b 710 1151 694 1192 710 1183 l 710 1061 b 669 1021 710 1029 694 1021 l 517 1021 m 800 914 b 822 875 826 914 831 890 l 536 343 l 536 40 b 496 0 536 8 521 0 l 357 0 b 317 40 332 0 317 8 l 317 343 l 19 875 b 42 914 13 890 15 914 l 201 914 b 267 872 233 914 247 910 l 429 574 l 586 872 b 650 914 606 910 618 914 l 800 914 "},"A":{"ha":910,"x_min":0,"x_max":0,"o":"m 889 39 b 865 0 896 22 896 0 l 719 0 b 667 42 689 0 678 8 l 628 151 l 288 151 l 249 42 b 196 0 238 8 226 0 l 50 0 b 26 39 19 0 19 22 l 335 871 b 392 914 346 900 361 914 l 525 914 b 582 871 556 914 569 900 l 889 39 m 563 346 l 458 653 l 354 346 "},"¶":{"ha":1157,"x_min":0,"x_max":0,"o":"m 815 914 b 869 874 854 914 869 906 l 869 40 b 829 0 869 8 854 0 l 733 0 b 693 40 708 0 693 8 l 693 751 l 585 751 l 585 40 b 544 0 585 8 569 0 l 449 0 b 408 40 424 0 408 8 l 408 400 l 364 400 b 182 582 264 400 182 482 l 182 732 b 363 914 182 832 278 914 l 815 914 "},"{":{"ha":693,"x_min":0,"x_max":0,"o":"m 592 456 b 632 415 624 456 632 440 l 632 301 b 592 261 632 276 624 261 l 547 261 b 479 238 517 260 496 253 b 457 154 464 221 457 194 l 457 -6 b 393 -161 457 -47 446 -108 b 235 -217 356 -197 301 -217 l 101 -217 b 61 -176 69 -217 61 -201 l 61 -62 b 101 -22 61 -37 69 -22 l 167 -22 b 231 -3 196 -21 217 -17 b 253 85 247 13 253 38 l 253 225 b 350 357 253 332 322 350 l 358 360 l 349 361 b 253 493 322 368 253 386 l 253 633 b 231 721 253 681 247 704 b 167 740 217 735 196 739 l 101 740 b 61 781 69 740 61 756 l 61 894 b 101 935 61 919 69 935 l 235 935 b 393 879 301 935 356 915 b 457 724 446 826 457 765 l 457 564 b 479 481 457 524 464 497 b 557 456 497 464 522 456 l 592 456 "},"}":{"ha":693,"x_min":0,"x_max":0,"o":"m 136 456 b 214 481 171 456 196 464 b 236 564 229 497 236 524 l 236 724 b 300 879 236 765 247 826 b 458 935 338 915 392 935 l 592 935 b 632 894 624 935 632 919 l 632 781 b 592 740 632 756 624 740 l 526 740 b 463 721 497 739 476 735 b 440 633 446 704 440 681 l 440 493 b 344 361 440 386 371 368 l 335 360 l 343 357 b 440 225 371 350 440 332 l 440 85 b 463 -3 440 38 446 13 b 526 -22 476 -17 497 -21 l 592 -22 b 632 -62 624 -22 632 -37 l 632 -176 b 592 -217 632 -201 624 -217 l 458 -217 b 300 -161 392 -217 338 -197 b 236 -6 247 -108 236 -47 l 236 154 b 214 238 236 194 229 221 b 146 261 197 253 176 260 l 101 261 b 61 301 69 261 61 276 l 61 415 b 101 456 61 440 69 456 "},"§":{"ha":751,"x_min":0,"x_max":0,"o":"m 689 371 b 599 201 689 293 656 229 b 660 63 636 165 660 111 b 382 -169 660 -97 519 -169 b 96 40 171 -169 96 -61 b 136 89 96 83 107 89 l 242 89 b 286 60 283 89 286 60 b 311 17 290 42 299 28 b 378 -6 326 3 351 -6 b 454 61 424 -6 454 21 b 307 171 454 108 386 138 b 63 410 199 217 63 275 b 175 600 63 499 103 567 b 118 719 138 633 118 672 b 388 935 118 860 257 935 b 657 735 635 935 657 738 b 617 688 657 708 657 688 l 513 688 b 465 725 482 688 474 707 b 449 751 461 735 456 744 b 390 771 435 764 415 771 b 324 715 358 771 324 754 b 399 643 324 679 365 660 l 407 640 b 550 572 408 639 514 589 b 689 371 640 532 689 460 m 457 308 b 510 356 486 308 510 329 b 460 417 510 381 494 400 l 336 476 b 304 483 325 481 315 483 b 256 438 278 483 257 464 b 301 379 253 408 274 396 l 431 314 b 457 308 439 310 449 308 "},"a":{"ha":910,"x_min":0,"x_max":0,"o":"m 889 39 b 865 0 896 22 896 0 l 719 0 b 667 42 689 0 678 8 l 628 151 l 288 151 l 249 42 b 196 0 238 8 226 0 l 50 0 b 26 39 19 0 19 22 l 335 871 b 392 914 346 900 361 914 l 525 914 b 582 871 556 914 569 900 l 889 39 m 563 346 l 458 653 l 354 346 "},"b":{"ha":954,"x_min":0,"x_max":0,"o":"m 754 474 b 882 267 765 469 882 417 b 551 0 882 90 744 0 l 143 0 b 103 40 111 0 103 15 l 103 875 b 143 915 103 900 111 915 l 532 915 b 856 664 758 915 856 794 b 754 474 856 524 767 479 m 554 197 b 661 288 622 197 661 225 b 546 372 661 353 613 372 l 514 372 b 474 413 482 372 474 388 l 474 518 b 514 558 474 543 482 558 l 532 558 l 532 558 b 647 642 613 558 647 588 b 532 719 647 704 604 719 l 321 719 l 321 197 l 554 197 "},"c":{"ha":878,"x_min":0,"x_max":0,"o":"m 807 271 b 446 -21 807 92 618 -21 b 74 293 281 -21 74 75 l 74 621 b 446 935 74 839 281 935 b 807 671 618 935 789 847 b 764 631 807 638 796 631 l 631 631 b 589 674 601 631 600 657 b 446 740 560 719 521 740 b 292 601 354 740 292 689 l 292 313 b 446 174 292 224 354 174 b 592 268 521 174 581 201 b 629 318 596 296 599 318 l 765 318 b 807 271 796 318 807 304 "},"d":{"ha":903,"x_min":0,"x_max":0,"o":"m 454 914 b 828 601 619 914 828 818 l 828 313 b 454 0 828 94 619 0 l 143 0 b 103 40 111 0 103 15 l 103 874 b 143 914 103 899 111 914 l 454 914 m 610 582 b 454 721 610 669 546 721 l 321 721 l 321 193 l 454 193 b 610 332 546 193 610 243 "},"e":{"ha":871,"x_min":0,"x_max":0,"o":"m 765 194 b 806 154 797 194 806 179 l 806 40 b 765 0 806 15 797 0 l 143 0 b 103 40 111 0 103 15 l 103 874 b 143 914 103 899 111 914 l 742 914 b 782 874 774 914 782 899 l 782 758 b 742 718 782 733 774 718 l 322 718 l 322 567 l 694 567 b 735 526 726 567 735 551 l 735 418 b 694 378 735 393 726 378 l 322 378 l 322 194 l 765 194 "},"f":{"ha":836,"x_min":0,"x_max":0,"o":"m 740 914 b 781 874 772 914 781 899 l 781 760 b 740 719 781 735 772 719 l 321 719 l 321 557 l 682 557 b 722 517 714 557 722 542 l 722 407 b 682 367 722 382 714 367 l 321 367 l 321 42 b 281 0 321 6 313 0 l 143 0 b 103 40 111 0 103 15 l 103 874 b 143 914 103 899 111 914 l 740 914 "},"g":{"ha":897,"x_min":0,"x_max":0,"o":"m 782 510 b 822 469 814 510 822 494 l 822 268 b 449 -21 810 68 607 -21 b 75 281 285 -21 75 63 l 75 622 b 449 935 75 842 285 935 b 822 649 622 935 822 835 b 782 610 822 615 814 610 l 647 610 b 607 657 608 610 614 638 b 449 742 592 700 542 742 b 296 592 357 742 296 681 l 296 313 b 449 172 296 224 357 172 b 603 321 539 172 603 214 l 478 321 b 438 361 446 321 438 336 l 438 469 b 478 510 438 494 446 510 l 782 510 "},"h":{"ha":951,"x_min":0,"x_max":0,"o":"m 808 914 b 849 874 833 914 849 906 l 849 40 b 808 0 849 8 833 0 l 671 0 b 631 40 646 0 631 8 l 631 354 l 321 354 l 321 40 b 281 0 321 8 307 0 l 143 0 b 103 40 118 0 103 8 l 103 874 b 143 914 103 906 118 914 l 281 914 b 321 874 307 914 321 906 l 321 560 l 631 560 l 631 874 b 671 914 631 906 646 914 l 808 914 "},"i":{"ha":617,"x_min":0,"x_max":0,"o":"m 500 190 b 540 150 532 190 540 175 l 540 40 b 500 0 540 15 532 0 l 107 0 b 67 40 75 0 67 15 l 67 150 b 107 190 67 175 75 190 l 194 190 l 194 721 l 110 721 b 69 761 78 721 69 736 l 69 874 b 110 914 69 899 78 914 l 496 914 b 536 874 528 914 536 899 l 536 761 b 496 721 536 736 528 721 l 413 721 l 413 190 l 500 190 "},"j":{"ha":806,"x_min":0,"x_max":0,"o":"m 672 921 b 713 881 704 921 713 906 l 713 299 b 368 0 713 82 533 0 b 42 300 183 0 42 104 b 75 338 42 307 43 338 l 222 338 b 257 308 254 338 257 315 b 368 193 261 226 306 193 b 494 329 460 193 494 243 l 494 725 l 251 725 b 211 765 218 725 211 740 l 211 881 b 251 921 211 906 218 921 l 672 921 "},"k":{"ha":908,"x_min":0,"x_max":0,"o":"m 864 914 b 878 875 890 914 890 888 l 565 536 l 864 44 b 843 0 875 26 869 0 l 674 0 b 604 44 640 0 622 15 b 406 378 604 44 481 253 l 319 288 l 319 40 b 281 0 319 8 304 0 l 143 0 b 103 40 117 0 103 8 l 103 874 b 143 914 103 906 117 914 l 281 914 b 319 874 304 914 319 906 l 319 564 l 607 881 b 676 914 635 911 644 914 l 864 914 "},"l":{"ha":808,"x_min":0,"x_max":0,"o":"m 721 194 b 761 154 753 194 761 179 l 761 40 b 721 0 761 15 753 0 l 143 0 b 103 40 111 0 103 15 l 103 874 b 143 914 103 906 118 914 l 281 914 b 321 874 306 914 321 906 l 321 194 l 721 194 "},"m":{"ha":1065,"x_min":0,"x_max":0,"o":"m 922 915 b 963 875 954 915 963 900 l 963 40 b 922 0 963 8 947 0 l 789 0 b 749 40 764 0 749 8 l 749 511 l 610 268 b 569 239 603 257 590 239 l 500 239 b 461 268 479 239 468 257 l 321 511 l 321 40 b 281 0 321 8 306 0 l 143 0 b 103 40 118 0 103 8 l 103 875 b 143 915 103 900 111 915 l 281 915 b 344 868 328 915 333 885 l 535 526 l 726 868 b 789 915 736 885 743 915 l 922 915 "},"n":{"ha":947,"x_min":0,"x_max":0,"o":"m 804 914 b 844 874 829 914 844 906 l 844 40 b 804 0 844 15 836 0 l 678 0 b 615 47 643 0 633 19 l 321 524 l 321 40 b 281 0 321 8 306 0 l 143 0 b 103 40 118 0 103 8 l 103 874 b 143 914 103 899 111 914 l 274 914 b 336 867 308 914 318 894 l 631 392 l 631 874 b 671 914 631 906 646 914 l 804 914 "},"o":{"ha":896,"x_min":0,"x_max":0,"o":"m 821 293 b 447 -21 821 74 613 -21 b 76 293 282 -21 76 74 l 76 621 b 447 935 76 840 282 935 b 821 621 613 935 821 840 m 603 601 b 447 742 603 690 539 742 b 293 601 357 742 293 690 l 293 313 b 447 172 293 224 357 172 b 603 313 539 172 603 224 "},"p":{"ha":872,"x_min":0,"x_max":0,"o":"m 456 914 b 819 592 694 914 819 783 b 454 271 819 399 692 271 l 321 271 l 321 40 b 281 0 321 8 306 0 l 143 0 b 103 40 118 0 103 8 l 103 874 b 143 914 103 899 111 914 l 456 914 m 454 458 b 610 588 563 458 610 518 b 454 718 610 660 563 718 l 321 718 l 321 458 l 454 458 "},"q":{"ha":897,"x_min":0,"x_max":0,"o":"m 824 65 b 818 1 842 49 842 25 l 751 -53 b 689 -60 729 -75 707 -78 l 622 8 b 446 -22 564 -17 506 -22 b 75 292 281 -22 75 72 l 75 619 b 446 933 75 839 281 933 b 819 619 611 933 819 839 l 819 292 b 771 125 819 221 807 171 l 824 65 m 603 601 b 447 742 603 690 539 742 b 293 601 357 742 293 690 l 293 313 b 447 172 293 224 357 172 b 603 313 539 172 603 224 "},"r":{"ha":925,"x_min":0,"x_max":0,"o":"m 851 44 b 831 0 864 25 857 0 l 667 0 b 597 42 633 0 617 13 l 447 265 b 432 336 435 282 432 297 l 432 447 b 472 488 432 472 440 488 l 500 488 b 632 600 568 488 632 535 b 504 718 632 672 576 718 l 319 718 l 319 40 b 279 0 319 8 304 0 l 142 0 b 103 40 117 0 103 8 l 103 872 b 142 913 103 897 110 913 l 492 913 b 768 824 643 913 710 882 b 849 606 819 774 849 694 b 656 329 849 460 742 358 l 851 44 "},"s":{"ha":840,"x_min":0,"x_max":0,"o":"m 533 531 b 781 271 633 500 781 460 b 411 -21 781 74 625 -21 b 38 274 238 -21 38 79 b 78 313 38 306 46 313 l 213 313 b 263 274 244 313 260 308 b 289 217 264 256 271 238 b 425 171 317 183 374 171 b 561 265 500 171 561 188 b 319 382 561 343 438 344 b 50 658 179 426 50 482 b 388 935 50 839 214 928 b 757 671 564 935 757 854 b 717 632 757 638 749 632 l 581 632 b 543 669 554 632 550 651 b 514 711 538 683 531 694 b 396 749 488 736 438 749 b 274 668 350 749 274 731 b 533 531 274 583 478 553 "},"t":{"ha":797,"x_min":0,"x_max":0,"o":"m 721 914 b 761 874 753 914 761 899 l 761 758 b 721 718 761 733 753 718 l 508 718 l 508 40 b 468 0 508 8 493 0 l 331 0 b 290 40 306 0 290 8 l 290 718 l 76 718 b 36 758 44 718 36 733 l 36 874 b 76 914 36 899 44 914 l 721 914 "},"u":{"ha":918,"x_min":0,"x_max":0,"o":"m 786 914 b 826 874 811 914 826 906 l 826 279 b 458 -21 826 61 624 -21 b 92 279 293 -21 92 61 l 92 874 b 132 914 92 906 107 914 l 269 914 b 310 874 294 914 310 906 l 310 310 b 458 172 310 222 367 172 b 608 310 550 172 608 222 l 608 874 b 649 914 608 906 624 914 l 786 914 "},"v":{"ha":883,"x_min":0,"x_max":0,"o":"m 832 914 b 857 874 858 914 864 892 l 560 42 b 503 0 543 6 533 0 l 369 0 b 313 42 339 0 329 6 l 14 874 b 39 914 7 892 13 914 l 193 914 b 250 869 229 914 239 903 l 439 294 l 626 869 b 685 914 638 903 647 914 l 832 914 "},"w":{"ha":1247,"x_min":0,"x_max":0,"o":"m 1193 914 b 1217 874 1218 914 1222 890 l 961 29 b 924 0 961 29 954 0 l 807 0 b 763 32 771 0 763 32 l 624 475 l 485 32 b 440 0 485 32 476 0 l 318 0 b 281 29 288 0 281 29 l 24 874 b 49 914 19 890 24 914 l 201 914 b 257 869 243 914 251 886 l 394 397 l 528 869 b 575 914 533 889 543 914 l 672 914 b 718 869 703 914 713 889 l 853 397 l 990 869 b 1046 914 994 886 1004 914 l 1193 914 "},"x":{"ha":814,"x_min":0,"x_max":0,"o":"m 782 43 b 765 0 793 26 786 0 l 607 0 b 546 39 576 0 565 3 l 408 286 l 269 39 b 208 0 251 3 239 0 l 50 0 b 33 43 29 0 22 26 l 281 468 l 29 875 b 50 914 21 890 26 914 l 214 914 b 269 874 240 914 251 903 l 408 650 l 546 874 b 603 914 565 903 575 914 l 765 914 b 786 875 789 914 796 890 l 536 468 "},"y":{"ha":839,"x_min":0,"x_max":0,"o":"m 799 914 b 821 875 825 914 828 890 l 535 343 l 535 40 b 494 0 535 8 519 0 l 356 0 b 315 40 329 0 315 8 l 315 343 l 18 875 b 40 914 11 890 14 914 l 200 914 b 265 872 232 914 246 910 l 428 574 l 585 872 b 649 914 603 910 617 914 l 799 914 "},"z":{"ha":788,"x_min":0,"x_max":0,"o":"m 697 194 b 738 154 729 194 738 179 l 738 40 b 697 0 738 15 729 0 l 92 0 b 50 40 56 0 50 7 l 50 149 b 68 201 50 181 68 201 l 443 719 l 103 719 b 63 760 71 719 63 735 l 63 874 b 103 914 63 899 71 914 l 661 914 b 701 874 693 914 701 899 l 701 765 b 683 711 701 747 697 729 l 311 194 l 697 194 "},"Š":{"ha":840,"x_min":0,"x_max":0,"o":"m 533 531 b 781 271 633 500 781 460 b 411 -21 781 74 625 -21 b 38 274 238 -21 38 79 b 78 313 38 306 46 313 l 213 313 b 263 274 244 313 260 308 b 289 217 264 256 271 238 b 425 171 317 183 374 171 b 561 265 500 171 561 188 b 319 382 561 343 438 344 b 50 658 179 426 50 482 b 388 935 50 839 214 928 b 757 671 564 935 757 854 b 717 632 757 638 749 632 l 581 632 b 543 669 554 632 550 651 b 514 711 538 683 531 694 b 396 749 488 736 438 749 b 274 668 350 749 274 731 b 533 531 274 583 478 553 m 281 1261 b 329 1232 303 1261 318 1246 l 400 1146 l 471 1232 b 518 1261 482 1246 496 1261 l 642 1261 b 657 1225 663 1261 671 1239 l 492 1035 b 454 1018 482 1024 467 1018 l 346 1018 b 308 1035 332 1018 318 1024 l 142 1225 b 158 1261 128 1239 136 1261 l 281 1261 "},"Ž":{"ha":788,"x_min":0,"x_max":0,"o":"m 697 194 b 738 154 729 194 738 179 l 738 40 b 697 0 738 15 729 0 l 92 0 b 50 40 56 0 50 7 l 50 149 b 68 201 50 181 68 201 l 443 719 l 103 719 b 63 760 71 719 63 735 l 63 874 b 103 914 63 899 71 914 l 661 914 b 701 874 693 914 701 899 l 701 765 b 683 711 701 747 697 729 l 311 194 l 697 194 m 281 1265 b 329 1236 303 1265 318 1250 l 400 1150 l 471 1236 b 518 1265 482 1250 496 1265 l 642 1265 b 657 1229 663 1265 671 1243 l 492 1039 b 454 1022 482 1028 467 1022 l 346 1022 b 308 1039 332 1022 318 1028 l 142 1229 b 158 1265 128 1243 136 1265 l 281 1265 "},"š":{"ha":840,"x_min":0,"x_max":0,"o":"m 533 531 b 781 271 633 500 781 460 b 411 -21 781 74 625 -21 b 38 274 238 -21 38 79 b 78 313 38 306 46 313 l 213 313 b 263 274 244 313 260 308 b 289 217 264 256 271 238 b 425 171 317 183 374 171 b 561 265 500 171 561 188 b 319 382 561 343 438 344 b 50 658 179 426 50 482 b 388 935 50 839 214 928 b 757 671 564 935 757 854 b 717 632 757 638 749 632 l 581 632 b 543 669 554 632 550 651 b 514 711 538 683 531 694 b 396 749 488 736 438 749 b 274 668 350 749 274 731 b 533 531 274 583 478 553 m 279 1279 b 328 1250 301 1279 317 1264 l 399 1164 l 469 1250 b 517 1279 481 1264 494 1279 l 640 1279 b 656 1243 661 1279 669 1257 l 490 1053 b 453 1036 481 1042 465 1036 l 344 1036 b 307 1053 331 1036 317 1042 l 140 1243 b 157 1279 126 1257 135 1279 l 279 1279 "},"ž":{"ha":788,"x_min":0,"x_max":0,"o":"m 697 194 b 738 154 729 194 738 179 l 738 40 b 697 0 738 15 729 0 l 92 0 b 50 40 56 0 50 7 l 50 149 b 68 201 50 181 68 201 l 443 719 l 103 719 b 63 760 71 719 63 735 l 63 874 b 103 914 63 899 71 914 l 661 914 b 701 874 693 914 701 899 l 701 765 b 683 711 701 747 697 729 l 311 194 l 697 194 m 283 1268 b 332 1239 306 1268 321 1253 l 403 1153 l 474 1239 b 521 1268 485 1253 499 1268 l 644 1268 b 660 1232 665 1268 674 1246 l 494 1042 b 457 1025 485 1031 469 1025 l 349 1025 b 311 1042 335 1025 321 1031 l 144 1232 b 161 1268 131 1246 139 1268 l 283 1268 "},"œ":{"ha":1282,"x_min":0,"x_max":0,"o":"m 1178 194 b 1218 154 1210 194 1218 179 l 1218 40 b 1178 0 1218 15 1210 0 l 433 0 b 67 315 269 3 67 99 l 67 599 b 433 914 67 815 269 914 l 1156 914 b 1194 874 1186 914 1194 899 l 1194 760 b 1156 719 1194 735 1186 719 l 801 719 l 801 565 l 1107 565 b 1147 525 1139 565 1147 550 l 1147 417 b 1107 376 1147 392 1139 376 l 801 376 l 801 194 l 1178 194 m 596 728 l 440 728 b 286 568 349 728 286 657 l 286 346 b 440 188 286 257 349 188 l 596 188 "},"‹":{"ha":353,"x_min":0,"x_max":0,"o":"m 249 674 b 285 657 263 688 285 679 l 285 535 b 256 486 285 513 269 497 l 169 415 l 256 344 b 285 297 269 333 285 319 l 285 174 b 249 158 285 153 263 144 l 58 324 b 42 361 47 333 42 349 l 42 469 b 58 507 42 483 47 497 l 249 674 "},"›":{"ha":342,"x_min":0,"x_max":0,"o":"m 90 674 l 281 507 b 297 469 292 497 297 483 l 297 361 b 281 324 297 349 292 333 l 90 158 b 54 174 76 144 54 153 l 54 297 b 83 344 54 319 69 333 l 169 415 l 83 486 b 54 535 69 497 54 513 l 54 657 b 90 674 54 679 76 688 "},"¡":{"ha":439,"x_min":0,"x_max":0,"o":"m 254 410 b 294 369 288 410 290 404 b 354 -187 353 -179 354 -183 b 314 -217 354 -211 342 -217 l 128 -217 b 86 -187 99 -217 86 -212 b 147 369 86 -183 88 -179 b 186 410 151 406 154 410 l 254 410 m 143 463 b 103 503 118 463 103 471 l 103 657 b 143 697 103 689 118 697 l 297 697 b 338 657 322 697 338 689 l 338 503 b 297 463 338 471 322 463 l 143 463 "},"Ç":{"ha":878,"x_min":0,"x_max":0,"o":"m 807 271 b 540 -10 807 124 681 22 l 517 -64 b 472 -397 729 -86 692 -397 l 379 -397 b 246 -346 322 -397 276 -378 b 339 -251 183 -283 276 -192 b 382 -269 350 -261 365 -269 l 469 -269 b 469 -162 531 -269 533 -165 l 369 -162 b 350 -124 346 -162 340 -147 b 401 -18 372 -81 388 -46 b 74 293 246 -3 74 94 l 74 621 b 446 935 74 839 281 935 b 807 671 618 935 789 847 b 764 631 807 638 796 631 l 631 631 b 589 674 601 631 600 657 b 446 740 560 719 521 740 b 292 601 354 740 292 689 l 292 313 b 446 174 292 224 354 174 b 592 268 521 174 581 201 b 629 318 596 296 599 318 l 765 318 b 807 271 796 318 807 304 "},"â":{"ha":910,"x_min":0,"x_max":0,"o":"m 889 39 b 865 0 896 22 896 0 l 719 0 b 667 42 689 0 678 8 l 628 151 l 288 151 l 249 42 b 196 0 238 8 226 0 l 50 0 b 26 39 19 0 19 22 l 335 871 b 392 914 346 900 361 914 l 525 914 b 582 871 556 914 569 900 l 889 39 m 563 346 l 458 653 l 354 346 m 582 1024 b 535 1053 560 1024 546 1039 l 464 1139 l 393 1053 b 344 1024 382 1039 367 1024 l 222 1024 b 206 1060 200 1024 192 1046 l 372 1250 b 410 1267 382 1261 396 1267 l 518 1267 b 556 1250 531 1267 546 1261 l 721 1060 b 706 1024 735 1046 726 1024 l 582 1024 "},"á":{"ha":910,"x_min":0,"x_max":0,"o":"m 889 39 b 865 0 896 22 896 0 l 719 0 b 667 42 689 0 678 8 l 628 151 l 288 151 l 249 42 b 196 0 238 8 226 0 l 50 0 b 26 39 19 0 19 22 l 335 871 b 392 914 346 900 361 914 l 525 914 b 582 871 556 914 569 900 l 889 39 m 563 346 l 458 653 l 354 346 m 372 1028 b 354 1067 346 1028 346 1054 l 447 1217 b 510 1256 468 1251 479 1256 l 686 1256 b 713 1217 721 1256 725 1229 l 574 1067 b 508 1028 554 1047 543 1028 "},"à":{"ha":910,"x_min":0,"x_max":0,"o":"m 889 39 b 865 0 896 22 896 0 l 719 0 b 667 42 689 0 678 8 l 628 151 l 288 151 l 249 42 b 196 0 238 8 226 0 l 50 0 b 26 39 19 0 19 22 l 335 871 b 392 914 346 900 361 914 l 525 914 b 582 871 556 914 569 900 l 889 39 m 563 346 l 458 653 l 354 346 m 401 1033 b 336 1072 367 1033 356 1053 l 197 1222 b 224 1261 185 1235 189 1261 l 400 1261 b 463 1222 431 1261 442 1257 l 556 1072 b 538 1033 564 1060 564 1033 "},"ã":{"ha":910,"x_min":0,"x_max":0,"o":"m 889 39 b 865 0 896 22 896 0 l 719 0 b 667 42 689 0 678 8 l 628 151 l 288 151 l 249 42 b 196 0 238 8 226 0 l 50 0 b 26 39 19 0 19 22 l 335 871 b 392 914 346 900 361 914 l 525 914 b 582 871 556 914 569 900 l 889 39 m 563 346 l 458 653 l 354 346 m 697 1200 b 714 1172 714 1200 714 1181 l 714 1171 b 564 1018 714 1089 654 1018 b 451 1043 528 1018 482 1032 b 353 1075 451 1043 369 1072 b 304 1043 335 1078 313 1071 b 269 1018 300 1029 294 1018 l 206 1018 b 189 1046 189 1018 189 1038 l 189 1047 b 339 1200 189 1129 249 1200 b 451 1175 375 1200 421 1186 b 550 1143 451 1175 533 1146 b 599 1175 568 1140 590 1147 b 633 1200 603 1189 608 1200 l 697 1200 "},"ä":{"ha":910,"x_min":0,"x_max":0,"o":"m 889 39 b 865 0 896 22 896 0 l 719 0 b 667 42 689 0 678 8 l 628 151 l 288 151 l 249 42 b 196 0 238 8 226 0 l 50 0 b 26 39 19 0 19 22 l 335 871 b 392 914 346 900 361 914 l 525 914 b 582 871 556 914 569 900 l 889 39 m 563 346 l 458 653 l 354 346 m 365 1203 b 406 1163 389 1203 406 1194 l 406 1072 b 365 1032 406 1040 389 1032 l 213 1032 b 172 1072 186 1032 172 1040 l 172 1163 b 213 1203 172 1194 186 1203 l 365 1203 m 708 1203 b 749 1163 733 1203 749 1194 l 749 1072 b 708 1032 749 1040 733 1032 l 556 1032 b 515 1072 531 1032 515 1040 l 515 1163 b 556 1203 515 1194 531 1203 l 708 1203 "},"å":{"ha":910,"x_min":0,"x_max":0,"o":"m 563 346 l 458 653 l 354 346 m 385 1033 b 458 960 385 994 419 960 b 531 1033 497 960 531 996 b 458 1106 531 1071 496 1106 b 385 1033 421 1106 385 1072 m 301 1033 b 458 1189 301 1119 374 1189 b 614 1033 543 1189 614 1118 b 551 908 614 983 589 938 b 582 871 565 901 574 889 l 889 39 b 865 0 896 22 896 0 l 719 0 b 667 42 689 0 678 8 l 628 151 l 288 151 l 249 42 b 196 0 238 8 226 0 l 50 0 b 26 39 19 0 19 22 l 335 871 b 364 908 342 889 350 901 b 301 1033 325 936 301 982 "},"æ":{"ha":1347,"x_min":0,"x_max":0,"o":"m 1243 194 b 1283 154 1275 194 1283 179 l 1283 40 b 1243 0 1283 15 1275 0 l 654 0 b 614 33 633 0 614 4 l 614 151 l 319 151 l 267 42 b 204 0 251 14 236 0 l 42 0 b 22 39 22 0 14 19 l 417 860 b 490 915 433 893 453 915 l 1219 915 b 1260 875 1251 915 1260 900 l 1260 761 b 1219 721 1260 736 1251 721 l 822 721 l 822 567 l 1172 567 b 1213 526 1204 567 1213 551 l 1213 418 b 1172 378 1213 393 1204 378 l 822 378 l 822 194 l 1243 194 m 614 722 l 569 722 l 400 347 l 614 347 "},"ç":{"ha":878,"x_min":0,"x_max":0,"o":"m 807 271 b 532 -11 807 121 675 19 l 511 -61 b 467 -394 724 -83 686 -394 l 374 -394 b 240 -343 317 -394 271 -375 b 333 -249 178 -281 271 -189 b 376 -267 344 -258 360 -267 l 464 -267 b 464 -160 525 -267 528 -162 l 364 -160 b 344 -121 340 -160 335 -144 l 394 -18 b 74 293 240 0 74 96 l 74 621 b 446 935 74 839 281 935 b 807 671 618 935 789 847 b 764 631 807 638 796 631 l 631 631 b 589 674 601 631 600 657 b 446 740 560 719 521 740 b 292 601 354 740 292 689 l 292 313 b 446 174 292 224 354 174 b 592 268 521 174 581 201 b 629 318 596 296 599 318 l 765 318 b 807 271 796 318 807 304 "},"è":{"ha":871,"x_min":0,"x_max":0,"o":"m 765 194 b 806 154 797 194 806 179 l 806 40 b 765 0 806 15 797 0 l 143 0 b 103 40 111 0 103 15 l 103 874 b 143 914 103 899 111 914 l 742 914 b 782 874 774 914 782 899 l 782 758 b 742 718 782 733 774 718 l 322 718 l 322 567 l 694 567 b 735 526 726 567 735 551 l 735 418 b 694 378 735 393 726 378 l 322 378 l 322 194 l 765 194 m 431 1014 b 365 1053 396 1014 385 1033 l 226 1203 b 253 1242 214 1215 218 1242 l 429 1242 b 492 1203 460 1242 471 1238 l 585 1053 b 567 1014 593 1040 593 1014 "},"é":{"ha":871,"x_min":0,"x_max":0,"o":"m 765 194 b 806 154 797 194 806 179 l 806 40 b 765 0 806 15 797 0 l 143 0 b 103 40 111 0 103 15 l 103 874 b 143 914 103 899 111 914 l 742 914 b 782 874 774 914 782 899 l 782 758 b 742 718 782 733 774 718 l 322 718 l 322 567 l 694 567 b 735 526 726 567 735 551 l 735 418 b 694 378 735 393 726 378 l 322 378 l 322 194 l 765 194 m 356 1021 b 338 1060 329 1021 329 1047 l 431 1210 b 493 1249 451 1244 463 1249 l 669 1249 b 696 1210 704 1249 708 1222 l 557 1060 b 492 1021 538 1040 526 1021 "},"ê":{"ha":871,"x_min":0,"x_max":0,"o":"m 765 194 b 806 154 797 194 806 179 l 806 40 b 765 0 806 15 797 0 l 143 0 b 103 40 111 0 103 15 l 103 874 b 143 914 103 899 111 914 l 742 914 b 782 874 774 914 782 899 l 782 758 b 742 718 782 733 774 718 l 322 718 l 322 567 l 694 567 b 735 526 726 567 735 551 l 735 418 b 694 378 735 393 726 378 l 322 378 l 322 194 l 765 194 m 563 1022 b 515 1051 540 1022 526 1038 l 444 1138 l 374 1051 b 325 1022 363 1038 347 1022 l 203 1022 b 186 1058 181 1022 172 1044 l 353 1249 b 390 1265 363 1260 376 1265 l 499 1265 b 536 1249 511 1265 526 1260 l 701 1058 b 686 1022 715 1044 707 1022 l 563 1022 "},"ë":{"ha":871,"x_min":0,"x_max":0,"o":"m 765 194 b 806 154 797 194 806 179 l 806 40 b 765 0 806 15 797 0 l 143 0 b 103 40 111 0 103 15 l 103 874 b 143 914 103 899 111 914 l 742 914 b 782 874 774 914 782 899 l 782 758 b 742 718 782 733 774 718 l 322 718 l 322 567 l 694 567 b 735 526 726 567 735 551 l 735 418 b 694 378 735 393 726 378 l 322 378 l 322 194 l 765 194 m 357 1190 b 397 1150 381 1190 397 1182 l 397 1060 b 357 1019 397 1028 381 1019 l 204 1019 b 164 1060 178 1019 164 1028 l 164 1150 b 204 1190 164 1182 178 1190 l 357 1190 m 700 1190 b 740 1150 725 1190 740 1182 l 740 1060 b 700 1019 740 1028 725 1019 l 547 1019 b 507 1060 522 1019 507 1028 l 507 1150 b 547 1190 507 1182 522 1190 l 700 1190 "},"ì":{"ha":668,"x_min":0,"x_max":0,"o":"m 531 190 b 571 150 563 190 571 175 l 571 40 b 531 0 571 15 563 0 l 138 0 b 97 40 106 0 97 15 l 97 150 b 138 190 97 175 106 190 l 225 190 l 225 721 l 140 721 b 100 761 108 721 100 736 l 100 874 b 140 914 100 899 108 914 l 526 914 b 567 874 558 914 567 899 l 567 761 b 526 721 567 736 558 721 l 443 721 l 443 190 l 531 190 m 296 1018 b 231 1057 261 1018 250 1038 l 92 1207 b 118 1246 79 1219 83 1246 l 294 1246 b 357 1207 325 1246 336 1242 l 450 1057 b 432 1018 458 1044 458 1018 "},"í":{"ha":668,"x_min":0,"x_max":0,"o":"m 531 190 b 571 150 563 190 571 175 l 571 40 b 531 0 571 15 563 0 l 138 0 b 97 40 106 0 97 15 l 97 150 b 138 190 97 175 106 190 l 225 190 l 225 721 l 140 721 b 100 761 108 721 100 736 l 100 874 b 140 914 100 899 108 914 l 526 914 b 567 874 558 914 567 899 l 567 761 b 526 721 567 736 558 721 l 443 721 l 443 190 l 531 190 m 236 1010 b 218 1049 210 1010 210 1036 l 311 1199 b 374 1238 332 1233 343 1238 l 550 1238 b 576 1199 585 1238 589 1211 l 438 1049 b 372 1010 418 1029 407 1010 "},"î":{"ha":668,"x_min":0,"x_max":0,"o":"m 531 190 b 571 150 563 190 571 175 l 571 40 b 531 0 571 15 563 0 l 138 0 b 97 40 106 0 97 15 l 97 150 b 138 190 97 175 106 190 l 225 190 l 225 721 l 140 721 b 100 761 108 721 100 736 l 100 874 b 140 914 100 899 108 914 l 526 914 b 567 874 558 914 567 899 l 567 761 b 526 721 567 736 558 721 l 443 721 l 443 190 l 531 190 m 453 1021 b 406 1050 431 1021 417 1036 l 335 1136 l 264 1050 b 215 1021 253 1036 238 1021 l 93 1021 b 76 1057 71 1021 63 1043 l 243 1247 b 281 1264 253 1258 267 1264 l 389 1264 b 426 1247 401 1264 417 1258 l 592 1057 b 576 1021 606 1043 597 1021 l 453 1021 "},"ï":{"ha":668,"x_min":0,"x_max":0,"o":"m 531 190 b 571 150 563 190 571 175 l 571 40 b 531 0 571 15 563 0 l 138 0 b 97 40 106 0 97 15 l 97 150 b 138 190 97 175 106 190 l 225 190 l 225 721 l 140 721 b 100 761 108 721 100 736 l 100 874 b 140 914 100 899 108 914 l 526 914 b 567 874 558 914 567 899 l 567 761 b 526 721 567 736 558 721 l 443 721 l 443 190 l 531 190 m 244 1190 b 285 1149 268 1190 285 1182 l 285 1057 b 244 1017 285 1025 268 1017 l 94 1017 b 56 1057 69 1017 56 1025 l 56 1149 b 94 1190 56 1182 69 1190 l 244 1190 m 582 1190 b 622 1149 607 1190 622 1182 l 622 1057 b 582 1017 622 1025 607 1017 l 432 1017 b 393 1057 407 1017 393 1025 l 393 1149 b 432 1190 393 1182 407 1190 l 582 1190 "},"Ð":{"ha":903,"x_min":0,"x_max":0,"o":"m 454 914 b 828 601 619 914 828 818 l 828 313 b 454 0 828 94 619 0 l 143 0 b 103 40 111 0 103 15 l 103 354 l 46 354 b 6 394 21 354 6 363 l 6 497 b 46 538 6 529 21 538 l 103 538 l 103 874 b 143 914 103 899 111 914 l 454 914 m 400 538 b 440 497 425 538 440 529 l 440 394 b 400 354 440 363 425 354 l 321 354 l 321 193 l 454 193 b 610 332 546 193 610 243 l 610 582 b 454 721 610 669 546 721 l 321 721 l 321 538 l 400 538 "},"ð":{"ha":903,"x_min":0,"x_max":0,"o":"m 454 914 b 828 601 619 914 828 818 l 828 313 b 454 0 828 94 619 0 l 143 0 b 103 40 111 0 103 15 l 103 354 l 46 354 b 6 394 21 354 6 363 l 6 497 b 46 538 6 529 21 538 l 103 538 l 103 874 b 143 914 103 899 111 914 l 454 914 m 400 538 b 440 497 425 538 440 529 l 440 394 b 400 354 440 363 425 354 l 321 354 l 321 193 l 454 193 b 610 332 546 193 610 243 l 610 582 b 454 721 610 669 546 721 l 321 721 l 321 538 l 400 538 "},"ñ":{"ha":947,"x_min":0,"x_max":0,"o":"m 804 914 b 844 874 829 914 844 906 l 844 40 b 804 0 844 15 836 0 l 678 0 b 615 47 643 0 633 19 l 321 524 l 321 40 b 281 0 321 8 306 0 l 143 0 b 103 40 118 0 103 8 l 103 874 b 143 914 103 899 111 914 l 274 914 b 336 867 308 914 318 894 l 631 392 l 631 874 b 671 914 631 906 646 914 l 804 914 m 714 1196 b 731 1168 731 1196 731 1176 l 731 1167 b 581 1014 731 1085 671 1014 b 468 1039 544 1014 499 1028 b 369 1071 468 1039 386 1068 b 321 1039 351 1074 329 1067 b 286 1014 317 1025 311 1014 l 222 1014 b 206 1042 206 1014 206 1033 l 206 1043 b 356 1196 206 1125 265 1196 b 468 1171 392 1196 438 1182 b 567 1139 468 1171 550 1142 b 615 1171 585 1136 607 1143 b 650 1196 619 1185 625 1196 l 714 1196 "},"ò":{"ha":896,"x_min":0,"x_max":0,"o":"m 821 293 b 447 -21 821 74 613 -21 b 76 293 282 -21 76 74 l 76 621 b 447 935 76 840 282 935 b 821 621 613 935 821 840 m 603 601 b 447 742 603 690 539 742 b 293 601 357 742 293 690 l 293 313 b 447 172 293 224 357 172 b 603 313 539 172 603 224 m 408 1019 b 343 1058 374 1019 363 1039 l 204 1208 b 231 1247 192 1221 196 1247 l 407 1247 b 469 1208 438 1247 449 1243 l 563 1058 b 544 1019 571 1046 571 1019 "},"ó":{"ha":896,"x_min":0,"x_max":0,"o":"m 821 293 b 447 -21 821 74 613 -21 b 76 293 282 -21 76 74 l 76 621 b 447 935 76 840 282 935 b 821 621 613 935 821 840 m 603 601 b 447 742 603 690 539 742 b 293 601 357 742 293 690 l 293 313 b 447 172 293 224 357 172 b 603 313 539 172 603 224 m 350 1025 b 332 1064 324 1025 324 1051 l 425 1214 b 488 1253 446 1249 457 1253 l 664 1253 b 690 1214 699 1253 703 1226 l 551 1064 b 486 1025 532 1044 521 1025 "},"ô":{"ha":896,"x_min":0,"x_max":0,"o":"m 821 293 b 447 -21 821 74 613 -21 b 76 293 282 -21 76 74 l 76 621 b 447 935 76 840 282 935 b 821 621 613 935 821 840 m 603 601 b 447 742 603 690 539 742 b 293 601 357 742 293 690 l 293 313 b 447 172 293 224 357 172 b 603 313 539 172 603 224 m 567 1019 b 519 1049 544 1019 531 1035 l 449 1135 l 378 1049 b 329 1019 367 1035 351 1019 l 207 1019 b 190 1056 185 1019 176 1042 l 357 1246 b 394 1263 367 1257 381 1263 l 503 1263 b 540 1246 515 1263 531 1257 l 706 1056 b 690 1019 719 1042 711 1019 l 567 1019 "},"õ":{"ha":896,"x_min":0,"x_max":0,"o":"m 821 293 b 447 -21 821 74 613 -21 b 76 293 282 -21 76 74 l 76 621 b 447 935 76 840 282 935 b 821 621 613 935 821 840 m 603 601 b 447 742 603 690 539 742 b 293 601 357 742 293 690 l 293 313 b 447 172 293 224 357 172 b 603 313 539 172 603 224 m 696 1201 b 713 1174 713 1201 713 1182 l 713 1172 b 563 1019 713 1090 653 1019 b 450 1044 526 1019 481 1033 b 351 1076 450 1044 368 1074 b 303 1044 333 1079 311 1072 b 268 1019 299 1031 293 1019 l 204 1019 b 188 1047 188 1019 188 1039 l 188 1049 b 338 1201 188 1131 247 1201 b 450 1176 374 1201 419 1188 b 549 1144 450 1176 532 1147 b 597 1176 567 1142 589 1149 b 632 1201 601 1190 607 1201 l 696 1201 "},"ö":{"ha":896,"x_min":0,"x_max":0,"o":"m 821 293 b 447 -21 821 74 613 -21 b 76 293 282 -21 76 74 l 76 621 b 447 935 76 840 282 935 b 821 621 613 935 821 840 m 603 601 b 447 742 603 690 539 742 b 293 601 357 742 293 690 l 293 313 b 447 172 293 224 357 172 b 603 313 539 172 603 224 m 353 1194 b 393 1154 376 1194 393 1186 l 393 1064 b 353 1024 393 1032 376 1024 l 200 1024 b 160 1064 174 1024 160 1032 l 160 1154 b 200 1194 160 1186 174 1194 l 353 1194 m 696 1194 b 736 1154 721 1194 736 1186 l 736 1064 b 696 1024 736 1032 721 1024 l 543 1024 b 503 1064 518 1024 503 1032 l 503 1154 b 543 1194 503 1186 518 1194 l 696 1194 "},"ø":{"ha":896,"x_min":0,"x_max":0,"o":"m 821 293 b 447 -21 821 74 613 -21 b 342 -8 413 -21 378 -17 l 314 -82 b 271 -119 307 -99 297 -119 l 183 -119 b 151 -81 149 -119 147 -94 l 203 51 b 76 293 129 103 76 182 l 76 621 b 447 935 76 840 282 935 b 546 924 479 935 513 931 l 579 1008 b 622 1046 586 1025 596 1046 l 708 1046 b 740 1007 743 1046 744 1021 l 685 867 b 821 621 763 815 821 735 m 603 601 b 597 643 603 617 601 631 l 414 174 b 447 172 424 172 435 172 b 603 313 539 172 603 224 m 293 313 b 294 285 293 303 293 293 l 474 740 b 447 742 465 740 456 742 b 293 601 357 742 293 690 l 293 313 "},"Ø":{"ha":896,"x_min":0,"x_max":0,"o":"m 821 293 b 447 -21 821 74 613 -21 b 342 -8 413 -21 378 -17 l 314 -82 b 271 -119 307 -99 297 -119 l 183 -119 b 151 -81 149 -119 147 -94 l 203 51 b 76 293 129 103 76 182 l 76 621 b 447 935 76 840 282 935 b 546 924 479 935 513 931 l 579 1008 b 622 1046 586 1025 596 1046 l 708 1046 b 740 1007 743 1046 744 1021 l 685 867 b 821 621 763 815 821 735 m 603 601 b 597 643 603 617 601 631 l 414 174 b 447 172 424 172 435 172 b 603 313 539 172 603 224 m 293 313 b 294 285 293 303 293 293 l 474 740 b 447 742 465 740 456 742 b 293 601 357 742 293 690 l 293 313 "},"ù":{"ha":918,"x_min":0,"x_max":0,"o":"m 786 914 b 826 874 811 914 826 906 l 826 279 b 458 -21 826 61 624 -21 b 92 279 293 -21 92 61 l 92 874 b 132 914 92 906 107 914 l 269 914 b 310 874 294 914 310 906 l 310 310 b 458 172 310 222 367 172 b 608 310 550 172 608 222 l 608 874 b 649 914 608 906 624 914 l 786 914 m 424 1019 b 358 1058 389 1019 378 1039 l 219 1208 b 246 1247 207 1221 211 1247 l 422 1247 b 485 1208 453 1247 464 1243 l 578 1058 b 560 1019 586 1046 586 1019 "},"ú":{"ha":918,"x_min":0,"x_max":0,"o":"m 786 914 b 826 874 811 914 826 906 l 826 279 b 458 -21 826 61 624 -21 b 92 279 293 -21 92 61 l 92 874 b 132 914 92 906 107 914 l 269 914 b 310 874 294 914 310 906 l 310 310 b 458 172 310 222 367 172 b 608 310 550 172 608 222 l 608 874 b 649 914 608 906 624 914 l 786 914 m 364 1011 b 346 1050 338 1011 338 1038 l 439 1200 b 501 1239 460 1235 471 1239 l 678 1239 b 704 1200 713 1239 717 1213 l 565 1050 b 500 1011 546 1031 535 1011 "},"û":{"ha":918,"x_min":0,"x_max":0,"o":"m 786 914 b 826 874 811 914 826 906 l 826 279 b 458 -21 826 61 624 -21 b 92 279 293 -21 92 61 l 92 874 b 132 914 92 906 107 914 l 269 914 b 310 874 294 914 310 906 l 310 310 b 458 172 310 222 367 172 b 608 310 550 172 608 222 l 608 874 b 649 914 608 906 624 914 l 786 914 m 586 1024 b 539 1053 564 1024 550 1039 l 468 1139 l 397 1053 b 349 1024 386 1039 371 1024 l 226 1024 b 210 1060 204 1024 196 1046 l 376 1250 b 414 1267 386 1261 400 1267 l 522 1267 b 560 1250 535 1267 550 1261 l 725 1060 b 710 1024 739 1046 731 1024 l 586 1024 "},"ü":{"ha":918,"x_min":0,"x_max":0,"o":"m 786 914 b 826 874 811 914 826 906 l 826 279 b 458 -21 826 61 624 -21 b 92 279 293 -21 92 61 l 92 874 b 132 914 92 906 107 914 l 269 914 b 310 874 294 914 310 906 l 310 310 b 458 172 310 222 367 172 b 608 310 550 172 608 222 l 608 874 b 649 914 608 906 624 914 l 786 914 m 361 1204 b 401 1164 385 1204 401 1196 l 401 1074 b 361 1033 401 1042 385 1033 l 208 1033 b 168 1074 182 1033 168 1042 l 168 1164 b 208 1204 168 1196 182 1204 l 361 1204 m 704 1204 b 744 1164 729 1204 744 1196 l 744 1074 b 704 1033 744 1042 729 1033 l 551 1033 b 511 1074 526 1033 511 1042 l 511 1164 b 551 1204 511 1196 526 1204 l 704 1204 "},"ý":{"ha":839,"x_min":0,"x_max":0,"o":"m 799 914 b 821 875 825 914 828 890 l 535 343 l 535 40 b 494 0 535 8 519 0 l 356 0 b 315 40 329 0 315 8 l 315 343 l 18 875 b 40 914 11 890 14 914 l 200 914 b 265 872 232 914 246 910 l 428 574 l 585 872 b 649 914 603 910 617 914 l 799 914 m 332 1015 b 314 1054 306 1015 306 1042 l 407 1204 b 469 1243 428 1239 439 1243 l 646 1243 b 672 1204 681 1243 685 1217 l 533 1054 b 468 1015 514 1035 503 1015 "},"Þ":{"ha":872,"x_min":0,"x_max":0,"o":"m 456 782 b 819 460 694 782 819 651 b 454 139 819 267 692 139 l 321 139 l 321 40 b 281 0 321 8 306 0 l 143 0 b 103 40 118 0 103 8 l 103 876 b 143 917 103 908 118 917 l 281 917 b 321 876 306 917 321 908 l 321 782 l 456 782 m 454 326 b 610 456 563 326 610 386 b 454 586 610 528 563 586 l 321 586 l 321 326 l 454 326 "},"þ":{"ha":872,"x_min":0,"x_max":0,"o":"m 456 782 b 819 460 694 782 819 651 b 454 139 819 267 692 139 l 321 139 l 321 40 b 281 0 321 8 306 0 l 143 0 b 103 40 118 0 103 8 l 103 876 b 143 917 103 908 118 917 l 281 917 b 321 876 306 917 321 908 l 321 782 l 456 782 m 454 326 b 610 456 563 326 610 386 b 454 586 610 528 563 586 l 321 586 l 321 326 l 454 326 "},"А":{"ha":910,"x_min":0,"x_max":0,"o":"m 889 39 b 865 0 896 22 896 0 l 719 0 b 667 42 689 0 678 8 l 628 151 l 288 151 l 249 42 b 196 0 238 8 226 0 l 50 0 b 26 39 19 0 19 22 l 335 871 b 392 914 346 900 361 914 l 525 914 b 582 871 556 914 569 900 l 889 39 m 563 346 l 458 653 l 354 346 "},"Б":{"ha":929,"x_min":0,"x_max":0,"o":"m 739 915 b 779 875 771 915 779 900 l 779 768 b 739 728 779 743 771 728 l 321 728 l 321 576 l 501 576 b 864 293 747 576 864 490 b 499 0 864 93 738 0 l 143 0 b 103 40 111 0 103 15 l 103 875 b 143 915 103 907 118 915 m 321 394 l 321 192 l 497 192 b 651 294 601 192 651 222 b 501 394 651 364 610 394 "},"В":{"ha":954,"x_min":0,"x_max":0,"o":"m 754 474 b 882 267 765 469 882 417 b 551 0 882 90 744 0 l 143 0 b 103 40 111 0 103 15 l 103 875 b 143 915 103 900 111 915 l 532 915 b 856 664 758 915 856 794 b 754 474 856 524 767 479 m 554 197 b 661 288 622 197 661 225 b 546 372 661 353 613 372 l 514 372 b 474 413 482 372 474 388 l 474 518 b 514 558 474 543 482 558 l 532 558 l 532 558 b 647 642 613 558 647 588 b 532 719 647 704 604 719 l 321 719 l 321 197 l 554 197 "},"Г":{"ha":750,"x_min":0,"x_max":0,"o":"m 321 725 l 321 40 b 281 0 321 8 306 0 l 143 0 b 103 40 118 0 103 8 l 103 875 b 143 915 103 907 118 915 l 660 915 b 700 875 692 915 700 900 l 700 765 b 660 725 700 740 692 725 "},"Д":{"ha":978,"x_min":0,"x_max":0,"o":"m 742 15 l 233 15 l 233 -72 b 193 -112 233 -104 218 -112 l 78 -112 b 38 -72 53 -112 38 -104 l 38 167 b 78 207 38 192 46 207 b 171 299 154 207 167 247 l 215 874 b 256 914 215 906 231 914 l 789 914 b 829 874 814 914 829 906 l 829 207 l 896 207 b 936 167 928 207 936 192 l 936 -72 b 896 -112 936 -104 921 -112 l 782 -112 b 742 -72 757 -112 742 -104 m 385 288 b 329 197 382 236 363 208 l 618 197 l 618 726 l 419 726 l 385 288 "},"Е":{"ha":871,"x_min":0,"x_max":0,"o":"m 765 194 b 806 154 797 194 806 179 l 806 40 b 765 0 806 15 797 0 l 143 0 b 103 40 111 0 103 15 l 103 874 b 143 914 103 899 111 914 l 742 914 b 782 874 774 914 782 899 l 782 758 b 742 718 782 733 774 718 l 322 718 l 322 567 l 694 567 b 735 526 726 567 735 551 l 735 418 b 694 378 735 393 726 378 l 322 378 l 322 194 l 765 194 "},"Ж":{"ha":1307,"x_min":0,"x_max":0,"o":"m 1236 914 b 1250 875 1263 914 1263 888 l 974 542 l 1278 44 b 1257 0 1289 26 1283 0 l 1092 0 b 1022 44 1058 0 1040 15 b 825 383 1022 44 900 258 l 761 303 l 761 40 b 722 0 761 8 746 0 l 585 0 b 544 40 558 0 544 8 l 544 304 l 482 383 b 285 44 407 258 285 44 b 215 0 267 15 249 0 l 50 0 b 29 44 24 0 18 26 l 333 542 l 57 875 b 71 914 44 888 44 914 l 247 914 b 317 881 279 914 289 911 l 544 575 l 544 874 b 585 914 544 906 558 914 l 722 914 b 761 874 746 914 761 906 l 761 572 l 990 881 b 1060 914 1018 911 1028 914 l 1236 914 "},"З":{"ha":797,"x_min":0,"x_max":0,"o":"m 268 513 b 306 544 268 532 281 544 l 368 544 b 496 635 456 544 496 574 b 369 746 496 722 428 746 b 239 668 324 746 260 735 b 204 639 233 644 228 639 l 83 639 b 44 679 53 639 44 643 b 361 933 44 828 186 933 b 703 639 549 932 703 839 b 592 465 703 553 649 482 b 729 274 668 438 729 365 b 376 -21 729 53 564 -19 b 43 242 201 -21 43 93 b 82 283 43 278 51 283 l 206 283 b 240 253 229 283 235 276 b 385 171 261 186 339 171 b 515 275 443 171 515 200 b 368 383 515 349 464 383 l 303 383 b 268 421 274 383 268 396 "},"И":{"ha":947,"x_min":0,"x_max":0,"o":"m 144 914 l 278 914 b 318 874 303 914 318 906 l 318 392 l 613 867 b 675 914 631 894 640 914 l 806 914 b 846 874 838 914 846 899 l 846 40 b 806 0 846 8 831 0 l 668 0 b 628 40 643 0 628 8 l 628 524 l 333 47 b 271 0 315 19 306 0 l 144 0 b 104 40 113 0 104 15 l 104 874 b 144 914 104 906 119 914 "},"Й":{"ha":947,"x_min":0,"x_max":0,"o":"m 144 914 b 104 874 119 914 104 906 l 104 40 b 144 0 104 15 113 0 l 271 0 b 333 47 306 0 315 19 l 628 524 l 628 40 b 668 0 628 8 643 0 l 806 0 b 846 40 831 0 846 8 l 846 874 b 806 914 846 899 838 914 l 675 914 b 613 867 640 914 631 894 l 318 392 l 318 874 b 278 914 318 906 303 914 l 144 914 m 708 1210 b 721 1182 725 1210 721 1185 b 493 1011 704 1065 607 1013 b 265 1182 379 1013 281 1065 b 278 1210 264 1185 260 1210 l 347 1210 b 369 1188 361 1210 365 1197 b 493 1119 388 1142 444 1119 b 617 1188 542 1119 597 1142 b 639 1210 621 1197 625 1210 l 708 1210 "},"К":{"ha":908,"x_min":0,"x_max":0,"o":"m 864 914 b 878 875 890 914 890 888 l 565 536 l 864 44 b 843 0 875 26 869 0 l 674 0 b 604 44 640 0 622 15 b 406 378 604 44 481 253 l 319 288 l 319 40 b 281 0 319 8 304 0 l 143 0 b 103 40 117 0 103 8 l 103 874 b 143 914 103 906 117 914 l 281 914 b 319 874 304 914 319 906 l 319 564 l 607 881 b 676 914 635 911 644 914 l 864 914 "},"Л":{"ha":928,"x_min":0,"x_max":0,"o":"m 190 874 b 231 914 190 906 206 914 l 785 914 b 825 874 810 914 825 906 l 825 40 b 785 0 825 8 810 0 l 647 0 b 607 40 622 0 607 8 l 607 719 l 385 719 l 354 267 b 74 -6 339 42 290 -10 b 32 33 38 -6 32 3 l 32 138 b 63 175 32 161 38 175 b 140 268 128 175 136 214 "},"М":{"ha":1065,"x_min":0,"x_max":0,"o":"m 922 915 b 963 875 954 915 963 900 l 963 40 b 922 0 963 8 947 0 l 789 0 b 749 40 764 0 749 8 l 749 511 l 610 268 b 569 239 603 257 590 239 l 500 239 b 461 268 479 239 468 257 l 321 511 l 321 40 b 281 0 321 8 306 0 l 143 0 b 103 40 118 0 103 8 l 103 875 b 143 915 103 900 111 915 l 281 915 b 344 868 328 915 333 885 l 535 526 l 726 868 b 789 915 736 885 743 915 l 922 915 "},"Н":{"ha":951,"x_min":0,"x_max":0,"o":"m 808 914 b 849 874 833 914 849 906 l 849 40 b 808 0 849 8 833 0 l 671 0 b 631 40 646 0 631 8 l 631 354 l 321 354 l 321 40 b 281 0 321 8 307 0 l 143 0 b 103 40 118 0 103 8 l 103 874 b 143 914 103 906 118 914 l 281 914 b 321 874 307 914 321 906 l 321 560 l 631 560 l 631 874 b 671 914 631 906 646 914 l 808 914 "},"О":{"ha":896,"x_min":0,"x_max":0,"o":"m 821 293 b 447 -21 821 74 613 -21 b 76 293 282 -21 76 74 l 76 621 b 447 935 76 840 282 935 b 821 621 613 935 821 840 m 603 601 b 447 742 603 690 539 742 b 293 601 357 742 293 690 l 293 313 b 447 172 293 224 357 172 b 603 313 539 172 603 224 "},"П":{"ha":951,"x_min":0,"x_max":0,"o":"m 808 914 b 849 874 833 914 849 906 l 849 40 b 808 0 849 8 833 0 l 671 0 b 631 40 646 0 631 8 l 631 719 l 321 719 l 321 40 b 281 0 321 8 307 0 l 143 0 b 103 40 118 0 103 8 l 103 874 b 143 914 103 906 118 914 l 808 914 "},"Р":{"ha":872,"x_min":0,"x_max":0,"o":"m 456 914 b 819 592 694 914 819 783 b 454 271 819 399 692 271 l 321 271 l 321 40 b 281 0 321 8 306 0 l 143 0 b 103 40 118 0 103 8 l 103 874 b 143 914 103 899 111 914 l 456 914 m 454 458 b 610 588 563 458 610 518 b 454 718 610 660 563 718 l 321 718 l 321 458 l 454 458 "},"С":{"ha":878,"x_min":0,"x_max":0,"o":"m 807 271 b 446 -21 807 92 618 -21 b 74 293 281 -21 74 75 l 74 621 b 446 935 74 839 281 935 b 807 671 618 935 789 847 b 764 631 807 638 796 631 l 631 631 b 589 674 601 631 600 657 b 446 740 560 719 521 740 b 292 601 354 740 292 689 l 292 313 b 446 174 292 224 354 174 b 592 268 521 174 581 201 b 629 318 596 296 599 318 l 765 318 b 807 271 796 318 807 304 "},"Т":{"ha":797,"x_min":0,"x_max":0,"o":"m 721 914 b 761 874 753 914 761 899 l 761 758 b 721 718 761 733 753 718 l 508 718 l 508 40 b 468 0 508 8 493 0 l 331 0 b 290 40 306 0 290 8 l 290 718 l 76 718 b 36 758 44 718 36 733 l 36 874 b 76 914 36 899 44 914 l 721 914 "},"У":{"ha":907,"x_min":0,"x_max":0,"o":"m 856 915 b 881 875 882 915 888 893 l 476 39 b 415 0 458 3 446 0 l 261 0 b 244 43 240 0 233 26 l 349 256 l 39 875 b 64 915 32 893 38 915 l 229 915 b 283 879 260 915 271 908 l 381 681 l 464 490 l 549 679 l 643 874 b 701 915 657 903 665 915 l 856 915 "},"Ф":{"ha":1117,"x_min":0,"x_max":0,"o":"m 669 38 b 629 -3 669 6 654 -3 l 492 -3 b 451 38 467 -3 451 6 l 451 108 l 401 108 b 44 424 236 108 44 161 l 44 488 b 401 808 44 756 236 808 l 451 808 l 451 879 b 492 919 451 911 467 919 l 629 919 b 669 876 661 919 669 897 l 669 808 l 719 808 b 1076 488 885 808 1076 756 l 1076 424 b 719 108 1076 161 885 108 l 669 108 m 719 290 b 861 425 811 290 861 336 l 861 488 b 719 628 861 576 811 628 l 665 628 l 665 290 m 260 425 b 401 290 260 336 310 290 l 457 290 l 457 628 l 401 628 b 260 488 310 628 260 576 "},"Х":{"ha":814,"x_min":0,"x_max":0,"o":"m 782 43 b 765 0 793 26 786 0 l 607 0 b 546 39 576 0 565 3 l 408 286 l 269 39 b 208 0 251 3 239 0 l 50 0 b 33 43 29 0 22 26 l 281 468 l 29 875 b 50 914 21 890 26 914 l 214 914 b 269 874 240 914 251 903 l 408 650 l 546 874 b 603 914 565 903 575 914 l 765 914 b 786 875 789 914 796 890 l 536 468 "},"Ц":{"ha":978,"x_min":0,"x_max":0,"o":"m 142 0 b 101 40 117 0 101 8 l 101 874 b 142 914 101 906 117 914 l 279 914 b 319 874 304 914 319 906 l 319 182 l 610 182 l 610 874 b 650 914 610 906 624 914 l 788 914 b 828 874 813 914 828 906 l 828 192 l 894 192 b 935 151 926 192 935 176 l 935 -87 b 894 -128 935 -119 919 -128 l 781 -128 b 740 -87 756 -128 740 -119 l 740 0 l 142 0 "},"Ч":{"ha":918,"x_min":0,"x_max":0,"o":"m 286 624 b 421 501 286 539 331 501 l 597 501 l 597 874 b 638 914 597 906 613 914 l 775 914 b 815 874 800 914 815 906 l 815 40 b 775 0 815 8 800 0 l 638 0 b 597 40 613 0 597 8 l 597 308 l 418 308 b 69 622 239 308 69 363 l 69 875 b 110 915 69 907 85 915 l 246 915 b 286 875 271 915 286 907 l 286 624 "},"Ш":{"ha":1397,"x_min":0,"x_max":0,"o":"m 143 0 b 103 40 118 0 103 8 l 103 875 b 143 915 103 907 118 915 l 281 915 b 321 875 306 915 321 907 l 321 190 l 589 190 l 589 875 b 629 915 589 907 604 915 l 771 915 b 808 875 799 915 808 904 l 808 190 l 1076 190 l 1076 875 b 1117 915 1076 907 1090 915 l 1254 915 b 1294 875 1279 915 1294 907 l 1294 40 b 1254 0 1294 8 1279 0 l 143 0 "},"Щ":{"ha":1446,"x_min":0,"x_max":0,"o":"m 1076 875 b 1117 915 1076 907 1090 915 l 1254 915 b 1294 875 1279 915 1294 907 l 1294 192 l 1360 192 b 1400 151 1392 192 1400 176 l 1400 -87 b 1360 -128 1400 -119 1385 -128 l 1246 -128 b 1206 -87 1221 -128 1206 -119 l 1206 0 l 143 0 b 103 40 118 0 103 8 l 103 875 b 143 915 103 907 118 915 l 281 915 b 321 875 306 915 321 907 l 321 190 l 589 190 l 589 875 b 629 915 589 907 604 915 l 771 915 b 808 875 799 915 808 904 l 808 190 l 1076 190 "},"Ъ":{"ha":969,"x_min":0,"x_max":0,"o":"m 221 0 b 181 40 189 0 181 15 l 181 717 l 86 717 b 46 757 54 717 46 732 l 46 875 b 86 915 46 900 54 915 l 358 915 b 399 875 383 915 399 907 l 399 618 l 532 618 b 897 311 769 618 897 508 b 533 0 897 119 772 0 m 399 431 l 399 196 l 532 196 b 688 313 640 196 688 240 b 532 431 688 382 640 431 "},"Ы":{"ha":1272,"x_min":0,"x_max":0,"o":"m 143 0 b 103 40 111 0 103 15 l 103 875 b 143 915 103 907 118 915 l 281 915 b 321 875 306 915 321 907 l 321 618 l 454 618 b 819 311 692 618 819 508 b 456 0 819 119 694 0 m 321 431 l 321 196 l 454 196 b 610 313 563 196 610 240 b 454 431 610 382 563 431 m 1169 40 b 1129 0 1169 8 1154 0 l 992 0 b 951 40 967 0 951 8 l 951 875 b 992 915 951 907 967 915 l 1129 915 b 1169 875 1154 915 1169 907 "},"Ь":{"ha":892,"x_min":0,"x_max":0,"o":"m 143 0 b 103 40 111 0 103 15 l 103 875 b 143 915 103 907 118 915 l 281 915 b 321 875 306 915 321 907 l 321 618 l 454 618 b 819 311 692 618 819 508 b 456 0 819 119 694 0 m 321 431 l 321 196 l 454 196 b 610 313 563 196 610 240 b 454 431 610 382 563 431 "},"Э":{"ha":878,"x_min":0,"x_max":0,"o":"m 63 271 b 104 318 63 304 74 318 l 240 318 b 278 268 271 318 274 296 b 424 174 289 201 349 174 b 578 313 515 174 578 224 l 578 378 l 354 378 b 314 418 322 378 314 393 l 314 522 b 354 563 314 547 322 563 l 578 563 l 578 601 b 424 740 578 689 515 740 b 281 674 349 740 310 719 b 239 631 269 657 268 631 l 106 631 b 63 671 74 631 63 638 b 424 935 81 847 251 935 b 796 621 589 935 796 839 l 796 293 b 424 -21 796 75 589 -21 b 63 271 251 -21 63 92 "},"Ю":{"ha":1307,"x_min":0,"x_max":0,"o":"m 1226 293 b 858 -21 1226 74 1024 -21 b 493 293 693 -21 493 74 l 493 360 l 321 360 l 321 40 b 281 0 321 8 307 0 l 143 0 b 103 40 118 0 103 8 l 103 874 b 143 914 103 906 118 914 l 281 914 b 321 874 307 914 321 906 l 321 553 l 493 553 l 493 621 b 858 935 493 840 693 935 b 1226 621 1024 935 1226 840 m 1008 601 b 858 742 1008 690 950 742 b 710 601 768 742 710 690 l 710 313 b 858 172 710 224 768 172 b 1008 313 950 172 1008 224 "},"Я":{"ha":911,"x_min":0,"x_max":0,"o":"m 60 44 l 256 329 b 63 606 169 358 63 460 b 143 824 63 694 92 774 b 419 913 201 882 268 913 l 769 913 b 808 872 801 913 808 897 l 808 40 b 769 0 808 8 794 0 l 632 0 b 592 40 607 0 592 8 l 592 718 l 407 718 b 279 600 335 718 279 672 b 411 488 279 535 343 488 l 439 488 b 479 447 471 488 479 472 l 479 336 b 464 265 479 297 476 282 l 314 42 b 244 0 294 13 278 0 l 81 0 b 60 44 54 0 47 25 "},"а":{"ha":910,"x_min":0,"x_max":0,"o":"m 889 39 b 865 0 896 22 896 0 l 719 0 b 667 42 689 0 678 8 l 628 151 l 288 151 l 249 42 b 196 0 238 8 226 0 l 50 0 b 26 39 19 0 19 22 l 335 871 b 392 914 346 900 361 914 l 525 914 b 582 871 556 914 569 900 l 889 39 m 563 346 l 458 653 l 354 346 "},"б":{"ha":929,"x_min":0,"x_max":0,"o":"m 739 915 b 779 875 771 915 779 900 l 779 768 b 739 728 779 743 771 728 l 321 728 l 321 576 l 501 576 b 864 293 747 576 864 490 b 499 0 864 93 738 0 l 143 0 b 103 40 111 0 103 15 l 103 875 b 143 915 103 907 118 915 m 321 394 l 321 192 l 497 192 b 651 294 601 192 651 222 b 501 394 651 364 610 394 "},"в":{"ha":954,"x_min":0,"x_max":0,"o":"m 754 474 b 882 267 765 469 882 417 b 551 0 882 90 744 0 l 143 0 b 103 40 111 0 103 15 l 103 875 b 143 915 103 900 111 915 l 532 915 b 856 664 758 915 856 794 b 754 474 856 524 767 479 m 554 197 b 661 288 622 197 661 225 b 546 372 661 353 613 372 l 514 372 b 474 413 482 372 474 388 l 474 518 b 514 558 474 543 482 558 l 532 558 l 532 558 b 647 642 613 558 647 588 b 532 719 647 704 604 719 l 321 719 l 321 197 l 554 197 "},"г":{"ha":750,"x_min":0,"x_max":0,"o":"m 321 725 l 321 40 b 281 0 321 8 306 0 l 143 0 b 103 40 118 0 103 8 l 103 875 b 143 915 103 907 118 915 l 660 915 b 700 875 692 915 700 900 l 700 765 b 660 725 700 740 692 725 "},"д":{"ha":990,"x_min":0,"x_max":0,"o":"m 751 15 l 243 15 l 243 -72 b 203 -112 243 -104 228 -112 l 88 -112 b 47 -72 63 -112 47 -104 l 47 167 b 88 207 47 192 56 207 b 181 299 164 207 176 247 l 225 874 b 265 914 225 906 240 914 l 799 914 b 839 874 824 914 839 906 l 839 207 l 906 207 b 946 167 938 207 946 192 l 946 -72 b 906 -112 946 -104 931 -112 l 792 -112 b 751 -72 767 -112 751 -104 m 394 288 b 339 197 392 236 372 208 l 628 197 l 628 726 l 429 726 l 394 288 "},"е":{"ha":871,"x_min":0,"x_max":0,"o":"m 765 194 b 806 154 797 194 806 179 l 806 40 b 765 0 806 15 797 0 l 143 0 b 103 40 111 0 103 15 l 103 874 b 143 914 103 899 111 914 l 742 914 b 782 874 774 914 782 899 l 782 758 b 742 718 782 733 774 718 l 322 718 l 322 567 l 694 567 b 735 526 726 567 735 551 l 735 418 b 694 378 735 393 726 378 l 322 378 l 322 194 l 765 194 "},"ж":{"ha":1307,"x_min":0,"x_max":0,"o":"m 1236 914 b 1250 875 1263 914 1263 888 l 974 542 l 1278 44 b 1257 0 1289 26 1283 0 l 1092 0 b 1022 44 1058 0 1040 15 b 825 383 1022 44 900 258 l 761 303 l 761 40 b 722 0 761 8 746 0 l 585 0 b 544 40 558 0 544 8 l 544 304 l 482 383 b 285 44 407 258 285 44 b 215 0 267 15 249 0 l 50 0 b 29 44 24 0 18 26 l 333 542 l 57 875 b 71 914 44 888 44 914 l 247 914 b 317 881 279 914 289 911 l 544 575 l 544 874 b 585 914 544 906 558 914 l 722 914 b 761 874 746 914 761 906 l 761 572 l 990 881 b 1060 914 1018 911 1028 914 l 1236 914 "},"з":{"ha":797,"x_min":0,"x_max":0,"o":"m 268 513 b 306 544 268 532 281 544 l 368 544 b 496 635 456 544 496 574 b 369 746 496 722 428 746 b 239 668 324 746 260 735 b 204 639 233 644 228 639 l 83 639 b 44 679 53 639 44 643 b 361 933 44 828 186 933 b 703 639 549 932 703 839 b 592 465 703 553 649 482 b 729 274 668 438 729 365 b 376 -21 729 53 564 -19 b 43 242 201 -21 43 93 b 82 283 43 278 51 283 l 206 283 b 240 253 229 283 235 276 b 385 171 261 186 339 171 b 515 275 443 171 515 200 b 368 383 515 349 464 383 l 303 383 b 268 421 274 383 268 396 "},"и":{"ha":947,"x_min":0,"x_max":0,"o":"m 144 914 l 278 914 b 318 874 303 914 318 906 l 318 392 l 613 867 b 675 914 631 894 640 914 l 806 914 b 846 874 838 914 846 899 l 846 40 b 806 0 846 8 831 0 l 668 0 b 628 40 643 0 628 8 l 628 524 l 333 47 b 271 0 315 19 306 0 l 144 0 b 104 40 113 0 104 15 l 104 874 b 144 914 104 906 119 914 "},"й":{"ha":947,"x_min":0,"x_max":0,"o":"m 144 914 b 104 874 119 914 104 906 l 104 40 b 144 0 104 15 113 0 l 271 0 b 333 47 306 0 315 19 l 628 524 l 628 40 b 668 0 628 8 643 0 l 806 0 b 846 40 831 0 846 8 l 846 874 b 806 914 846 899 838 914 l 675 914 b 613 867 640 914 631 894 l 318 392 l 318 874 b 278 914 318 906 303 914 l 144 914 m 708 1210 b 721 1182 725 1210 721 1185 b 493 1011 704 1065 607 1013 b 265 1182 379 1013 281 1065 b 278 1210 264 1185 260 1210 l 347 1210 b 369 1188 361 1210 365 1197 b 493 1119 388 1142 444 1119 b 617 1188 542 1119 597 1142 b 639 1210 621 1197 625 1210 l 708 1210 "},"к":{"ha":908,"x_min":0,"x_max":0,"o":"m 864 914 b 878 875 890 914 890 888 l 565 536 l 864 44 b 843 0 875 26 869 0 l 674 0 b 604 44 640 0 622 15 b 406 378 604 44 481 253 l 319 288 l 319 40 b 281 0 319 8 304 0 l 143 0 b 103 40 117 0 103 8 l 103 874 b 143 914 103 906 117 914 l 281 914 b 319 874 304 914 319 906 l 319 564 l 607 881 b 676 914 635 911 644 914 l 864 914 "},"л":{"ha":928,"x_min":0,"x_max":0,"o":"m 190 874 b 231 914 190 906 206 914 l 785 914 b 825 874 810 914 825 906 l 825 40 b 785 0 825 8 810 0 l 647 0 b 607 40 622 0 607 8 l 607 719 l 385 719 l 354 267 b 74 -6 339 42 290 -10 b 32 33 38 -6 32 3 l 32 138 b 63 175 32 161 38 175 b 140 268 128 175 136 214 "},"м":{"ha":1065,"x_min":0,"x_max":0,"o":"m 922 915 b 963 875 954 915 963 900 l 963 40 b 922 0 963 8 947 0 l 789 0 b 749 40 764 0 749 8 l 749 511 l 610 268 b 569 239 603 257 590 239 l 500 239 b 461 268 479 239 468 257 l 321 511 l 321 40 b 281 0 321 8 306 0 l 143 0 b 103 40 118 0 103 8 l 103 875 b 143 915 103 900 111 915 l 281 915 b 344 868 328 915 333 885 l 535 526 l 726 868 b 789 915 736 885 743 915 l 922 915 "},"н":{"ha":951,"x_min":0,"x_max":0,"o":"m 808 914 b 849 874 833 914 849 906 l 849 40 b 808 0 849 8 833 0 l 671 0 b 631 40 646 0 631 8 l 631 354 l 321 354 l 321 40 b 281 0 321 8 307 0 l 143 0 b 103 40 118 0 103 8 l 103 874 b 143 914 103 906 118 914 l 281 914 b 321 874 307 914 321 906 l 321 560 l 631 560 l 631 874 b 671 914 631 906 646 914 l 808 914 "},"о":{"ha":896,"x_min":0,"x_max":0,"o":"m 821 293 b 447 -21 821 74 613 -21 b 76 293 282 -21 76 74 l 76 621 b 447 935 76 840 282 935 b 821 621 613 935 821 840 m 603 601 b 447 742 603 690 539 742 b 293 601 357 742 293 690 l 293 313 b 447 172 293 224 357 172 b 603 313 539 172 603 224 "},"п":{"ha":951,"x_min":0,"x_max":0,"o":"m 808 914 b 849 874 833 914 849 906 l 849 40 b 808 0 849 8 833 0 l 671 0 b 631 40 646 0 631 8 l 631 719 l 321 719 l 321 40 b 281 0 321 8 307 0 l 143 0 b 103 40 118 0 103 8 l 103 874 b 143 914 103 906 118 914 l 808 914 "},"р":{"ha":872,"x_min":0,"x_max":0,"o":"m 456 914 b 819 592 694 914 819 783 b 454 271 819 399 692 271 l 321 271 l 321 40 b 281 0 321 8 306 0 l 143 0 b 103 40 118 0 103 8 l 103 874 b 143 914 103 899 111 914 l 456 914 m 454 458 b 610 588 563 458 610 518 b 454 718 610 660 563 718 l 321 718 l 321 458 l 454 458 "},"с":{"ha":878,"x_min":0,"x_max":0,"o":"m 807 271 b 446 -21 807 92 618 -21 b 74 293 281 -21 74 75 l 74 621 b 446 935 74 839 281 935 b 807 671 618 935 789 847 b 764 631 807 638 796 631 l 631 631 b 589 674 601 631 600 657 b 446 740 560 719 521 740 b 292 601 354 740 292 689 l 292 313 b 446 174 292 224 354 174 b 592 268 521 174 581 201 b 629 318 596 296 599 318 l 765 318 b 807 271 796 318 807 304 "},"т":{"ha":797,"x_min":0,"x_max":0,"o":"m 721 914 b 761 874 753 914 761 899 l 761 758 b 721 718 761 733 753 718 l 508 718 l 508 40 b 468 0 508 8 493 0 l 331 0 b 290 40 306 0 290 8 l 290 718 l 76 718 b 36 758 44 718 36 733 l 36 874 b 76 914 36 899 44 914 l 721 914 "},"у":{"ha":899,"x_min":0,"x_max":0,"o":"m 847 915 b 872 875 874 915 879 893 l 468 39 b 407 0 450 3 438 0 l 253 0 b 236 43 232 0 225 26 l 340 256 l 31 875 b 56 915 24 893 29 915 l 221 915 b 275 879 251 915 263 908 l 372 681 l 456 490 l 540 679 l 635 874 b 693 915 649 903 657 915 l 847 915 "},"ф":{"ha":1117,"x_min":0,"x_max":0,"o":"m 669 38 b 629 -3 669 6 654 -3 l 492 -3 b 451 38 467 -3 451 6 l 451 108 l 401 108 b 44 424 236 108 44 161 l 44 488 b 401 808 44 756 236 808 l 451 808 l 451 879 b 492 919 451 911 467 919 l 629 919 b 669 876 661 919 669 897 l 669 808 l 719 808 b 1076 488 885 808 1076 756 l 1076 424 b 719 108 1076 161 885 108 l 669 108 m 719 290 b 861 425 811 290 861 336 l 861 488 b 719 628 861 576 811 628 l 665 628 l 665 290 m 260 425 b 401 290 260 336 310 290 l 457 290 l 457 628 l 401 628 b 260 488 310 628 260 576 "},"х":{"ha":814,"x_min":0,"x_max":0,"o":"m 782 43 b 765 0 793 26 786 0 l 607 0 b 546 39 576 0 565 3 l 408 286 l 269 39 b 208 0 251 3 239 0 l 50 0 b 33 43 29 0 22 26 l 281 468 l 29 875 b 50 914 21 890 26 914 l 214 914 b 269 874 240 914 251 903 l 408 650 l 546 874 b 603 914 565 903 575 914 l 765 914 b 786 875 789 914 796 890 l 536 468 "},"ц":{"ha":978,"x_min":0,"x_max":0,"o":"m 142 0 b 101 40 117 0 101 8 l 101 874 b 142 914 101 906 117 914 l 279 914 b 319 874 304 914 319 906 l 319 182 l 610 182 l 610 874 b 650 914 610 906 624 914 l 788 914 b 828 874 813 914 828 906 l 828 192 l 894 192 b 935 151 926 192 935 176 l 935 -87 b 894 -128 935 -119 919 -128 l 781 -128 b 740 -87 756 -128 740 -119 l 740 0 l 142 0 "},"ч":{"ha":918,"x_min":0,"x_max":0,"o":"m 286 624 b 421 501 286 539 331 501 l 597 501 l 597 874 b 638 914 597 906 613 914 l 775 914 b 815 874 800 914 815 906 l 815 40 b 775 0 815 8 800 0 l 638 0 b 597 40 613 0 597 8 l 597 308 l 418 308 b 69 622 239 308 69 363 l 69 875 b 110 915 69 907 85 915 l 246 915 b 286 875 271 915 286 907 l 286 624 "},"ш":{"ha":1397,"x_min":0,"x_max":0,"o":"m 143 0 b 103 40 118 0 103 8 l 103 875 b 143 915 103 907 118 915 l 281 915 b 321 875 306 915 321 907 l 321 190 l 589 190 l 589 875 b 629 915 589 907 604 915 l 771 915 b 808 875 799 915 808 904 l 808 190 l 1076 190 l 1076 875 b 1117 915 1076 907 1090 915 l 1254 915 b 1294 875 1279 915 1294 907 l 1294 40 b 1254 0 1294 8 1279 0 l 143 0 "},"щ":{"ha":1446,"x_min":0,"x_max":0,"o":"m 1076 875 b 1117 915 1076 907 1090 915 l 1254 915 b 1294 875 1279 915 1294 907 l 1294 192 l 1360 192 b 1400 151 1392 192 1400 176 l 1400 -87 b 1360 -128 1400 -119 1385 -128 l 1246 -128 b 1206 -87 1221 -128 1206 -119 l 1206 0 l 143 0 b 103 40 118 0 103 8 l 103 875 b 143 915 103 907 118 915 l 281 915 b 321 875 306 915 321 907 l 321 190 l 589 190 l 589 875 b 629 915 589 907 604 915 l 771 915 b 808 875 799 915 808 904 l 808 190 l 1076 190 "},"ъ":{"ha":974,"x_min":0,"x_max":0,"o":"m 225 0 b 185 40 193 0 185 15 l 185 717 l 90 717 b 50 757 58 717 50 732 l 50 875 b 90 915 50 900 58 915 l 363 915 b 403 875 388 915 403 907 l 403 618 l 536 618 b 901 311 774 618 901 508 b 538 0 901 119 776 0 m 403 431 l 403 196 l 536 196 b 692 313 644 196 692 240 b 536 431 692 382 644 431 "},"ы":{"ha":1272,"x_min":0,"x_max":0,"o":"m 143 0 b 103 40 111 0 103 15 l 103 875 b 143 915 103 907 118 915 l 281 915 b 321 875 306 915 321 907 l 321 618 l 454 618 b 819 311 692 618 819 508 b 456 0 819 119 694 0 m 321 431 l 321 196 l 454 196 b 610 313 563 196 610 240 b 454 431 610 382 563 431 m 1169 40 b 1129 0 1169 8 1154 0 l 992 0 b 951 40 967 0 951 8 l 951 875 b 992 915 951 907 967 915 l 1129 915 b 1169 875 1154 915 1169 907 "},"ь":{"ha":892,"x_min":0,"x_max":0,"o":"m 143 0 b 103 40 111 0 103 15 l 103 875 b 143 915 103 907 118 915 l 281 915 b 321 875 306 915 321 907 l 321 618 l 454 618 b 819 311 692 618 819 508 b 456 0 819 119 694 0 m 321 431 l 321 196 l 454 196 b 610 313 563 196 610 240 b 454 431 610 382 563 431 "},"э":{"ha":878,"x_min":0,"x_max":0,"o":"m 63 271 b 104 318 63 304 74 318 l 240 318 b 278 268 271 318 274 296 b 424 174 289 201 349 174 b 578 313 515 174 578 224 l 578 378 l 354 378 b 314 418 322 378 314 393 l 314 522 b 354 563 314 547 322 563 l 578 563 l 578 601 b 424 740 578 689 515 740 b 281 674 349 740 310 719 b 239 631 269 657 268 631 l 106 631 b 63 671 74 631 63 638 b 424 935 81 847 251 935 b 796 621 589 935 796 839 l 796 293 b 424 -21 796 75 589 -21 b 63 271 251 -21 63 92 "},"ю":{"ha":1307,"x_min":0,"x_max":0,"o":"m 1226 293 b 858 -21 1226 74 1024 -21 b 493 293 693 -21 493 74 l 493 360 l 321 360 l 321 40 b 281 0 321 8 307 0 l 143 0 b 103 40 118 0 103 8 l 103 874 b 143 914 103 906 118 914 l 281 914 b 321 874 307 914 321 906 l 321 553 l 493 553 l 493 621 b 858 935 493 840 693 935 b 1226 621 1024 935 1226 840 m 1008 601 b 858 742 1008 690 950 742 b 710 601 768 742 710 690 l 710 313 b 858 172 710 224 768 172 b 1008 313 950 172 1008 224 "},"я":{"ha":911,"x_min":0,"x_max":0,"o":"m 60 44 l 256 329 b 63 606 169 358 63 460 b 143 824 63 694 92 774 b 419 913 201 882 268 913 l 769 913 b 808 872 801 913 808 897 l 808 40 b 769 0 808 8 794 0 l 632 0 b 592 40 607 0 592 8 l 592 718 l 407 718 b 279 600 335 718 279 672 b 411 488 279 535 343 488 l 439 488 b 479 447 471 488 479 472 l 479 336 b 464 265 479 297 476 282 l 314 42 b 244 0 294 13 278 0 l 81 0 b 60 44 54 0 47 25 "},"Α":{"ha":910,"x_min":0,"x_max":0,"o":"m 889 39 b 865 0 896 22 896 0 l 719 0 b 667 42 689 0 678 8 l 628 151 l 288 151 l 249 42 b 196 0 238 8 226 0 l 50 0 b 26 39 19 0 19 22 l 335 871 b 392 914 346 900 361 914 l 525 914 b 582 871 556 914 569 900 l 889 39 m 563 346 l 458 653 l 354 346 "},"Β":{"ha":954,"x_min":0,"x_max":0,"o":"m 754 474 b 882 267 765 469 882 417 b 551 0 882 90 744 0 l 143 0 b 103 40 111 0 103 15 l 103 875 b 143 915 103 900 111 915 l 532 915 b 856 664 758 915 856 794 b 754 474 856 524 767 479 m 554 197 b 661 288 622 197 661 225 b 546 372 661 353 613 372 l 514 372 b 474 413 482 372 474 388 l 474 518 b 514 558 474 543 482 558 l 532 558 l 532 558 b 647 642 613 558 647 588 b 532 719 647 704 604 719 l 321 719 l 321 197 l 554 197 "},"Ε":{"ha":871,"x_min":0,"x_max":0,"o":"m 765 194 b 806 154 797 194 806 179 l 806 40 b 765 0 806 15 797 0 l 143 0 b 103 40 111 0 103 15 l 103 874 b 143 914 103 899 111 914 l 742 914 b 782 874 774 914 782 899 l 782 758 b 742 718 782 733 774 718 l 322 718 l 322 567 l 694 567 b 735 526 726 567 735 551 l 735 418 b 694 378 735 393 726 378 l 322 378 l 322 194 l 765 194 "},"Η":{"ha":951,"x_min":0,"x_max":0,"o":"m 808 914 b 849 874 833 914 849 906 l 849 40 b 808 0 849 8 833 0 l 671 0 b 631 40 646 0 631 8 l 631 354 l 321 354 l 321 40 b 281 0 321 8 307 0 l 143 0 b 103 40 118 0 103 8 l 103 874 b 143 914 103 906 118 914 l 281 914 b 321 874 307 914 321 906 l 321 560 l 631 560 l 631 874 b 671 914 631 906 646 914 l 808 914 "},"Ι":{"ha":617,"x_min":0,"x_max":0,"o":"m 500 190 b 540 150 532 190 540 175 l 540 40 b 500 0 540 15 532 0 l 107 0 b 67 40 75 0 67 15 l 67 150 b 107 190 67 175 75 190 l 194 190 l 194 721 l 110 721 b 69 761 78 721 69 736 l 69 874 b 110 914 69 899 78 914 l 496 914 b 536 874 528 914 536 899 l 536 761 b 496 721 536 736 528 721 l 413 721 l 413 190 l 500 190 "},"Μ":{"ha":1065,"x_min":0,"x_max":0,"o":"m 922 915 b 963 875 954 915 963 900 l 963 40 b 922 0 963 8 947 0 l 789 0 b 749 40 764 0 749 8 l 749 511 l 610 268 b 569 239 603 257 590 239 l 500 239 b 461 268 479 239 468 257 l 321 511 l 321 40 b 281 0 321 8 306 0 l 143 0 b 103 40 118 0 103 8 l 103 875 b 143 915 103 900 111 915 l 281 915 b 344 868 328 915 333 885 l 535 526 l 726 868 b 789 915 736 885 743 915 l 922 915 "},"Ο":{"ha":896,"x_min":0,"x_max":0,"o":"m 821 293 b 447 -21 821 74 613 -21 b 76 293 282 -21 76 74 l 76 621 b 447 935 76 840 282 935 b 821 621 613 935 821 840 m 603 601 b 447 742 603 690 539 742 b 293 601 357 742 293 690 l 293 313 b 447 172 293 224 357 172 b 603 313 539 172 603 224 "},"Ρ":{"ha":872,"x_min":0,"x_max":0,"o":"m 456 914 b 819 592 694 914 819 783 b 454 271 819 399 692 271 l 321 271 l 321 40 b 281 0 321 8 306 0 l 143 0 b 103 40 118 0 103 8 l 103 874 b 143 914 103 899 111 914 l 456 914 m 454 458 b 610 588 563 458 610 518 b 454 718 610 660 563 718 l 321 718 l 321 458 l 454 458 "},"Τ":{"ha":797,"x_min":0,"x_max":0,"o":"m 721 914 b 761 874 753 914 761 899 l 761 758 b 721 718 761 733 753 718 l 508 718 l 508 40 b 468 0 508 8 493 0 l 331 0 b 290 40 306 0 290 8 l 290 718 l 76 718 b 36 758 44 718 36 733 l 36 874 b 76 914 36 899 44 914 l 721 914 "},"Υ":{"ha":839,"x_min":0,"x_max":0,"o":"m 799 914 b 821 875 825 914 828 890 l 535 343 l 535 40 b 494 0 535 8 519 0 l 356 0 b 315 40 329 0 315 8 l 315 343 l 18 875 b 40 914 11 890 14 914 l 200 914 b 265 872 232 914 246 910 l 428 574 l 585 872 b 649 914 603 910 617 914 l 799 914 "},"Ζ":{"ha":788,"x_min":0,"x_max":0,"o":"m 697 194 b 738 154 729 194 738 179 l 738 40 b 697 0 738 15 729 0 l 92 0 b 50 40 56 0 50 7 l 50 149 b 68 201 50 181 68 201 l 443 719 l 103 719 b 63 760 71 719 63 735 l 63 874 b 103 914 63 899 71 914 l 661 914 b 701 874 693 914 701 899 l 701 765 b 683 711 701 747 697 729 l 311 194 l 697 194 "},"µ":{"ha":1065,"x_min":0,"x_max":0,"o":"m 922 915 b 963 875 954 915 963 900 l 963 40 b 922 0 963 8 947 0 l 789 0 b 749 40 764 0 749 8 l 749 511 l 610 268 b 569 239 603 257 590 239 l 500 239 b 461 268 479 239 468 257 l 321 511 l 321 40 b 281 0 321 8 306 0 l 143 0 b 103 40 118 0 103 8 l 103 875 b 143 915 103 900 111 915 l 281 915 b 344 868 328 915 333 885 l 535 526 l 726 868 b 789 915 736 885 743 915 l 922 915 "},"Ν":{"ha":947,"x_min":0,"x_max":0,"o":"m 804 914 b 844 874 829 914 844 906 l 844 40 b 804 0 844 15 836 0 l 678 0 b 615 47 643 0 633 19 l 321 524 l 321 40 b 281 0 321 8 306 0 l 143 0 b 103 40 118 0 103 8 l 103 874 b 143 914 103 899 111 914 l 274 914 b 336 867 308 914 318 894 l 631 392 l 631 874 b 671 914 631 906 646 914 l 804 914 "},"Κ":{"ha":908,"x_min":0,"x_max":0,"o":"m 864 914 b 878 875 890 914 890 888 l 565 536 l 864 44 b 843 0 875 26 869 0 l 674 0 b 604 44 640 0 622 15 b 406 378 604 44 481 253 l 319 288 l 319 40 b 281 0 319 8 304 0 l 143 0 b 103 40 117 0 103 8 l 103 874 b 143 914 103 906 117 914 l 281 914 b 319 874 304 914 319 906 l 319 564 l 607 881 b 676 914 635 911 644 914 l 864 914 "},"΄":{"ha":772,"x_min":0,"x_max":0,"o":"m 321 617 b 292 656 301 617 292 635 l 292 875 b 354 914 294 910 324 914 l 494 914 b 528 890 507 914 528 908 l 465 656 b 400 617 460 636 435 617 "},"Ά":{"ha":910,"x_min":0,"x_max":0,"o":"m 889 39 b 865 0 896 22 896 0 l 719 0 b 667 42 689 0 678 8 l 628 151 l 288 151 l 249 42 b 196 0 238 8 226 0 l 50 0 b 26 39 19 0 19 22 l 335 871 b 392 914 346 900 361 914 l 525 914 b 582 871 556 914 569 900 l 889 39 m 563 346 l 458 653 l 354 346 m 29 617 b 0 656 10 617 0 635 l 0 875 b 63 914 3 910 32 914 l 203 914 b 236 890 215 914 236 908 l 174 656 b 108 617 168 636 143 617 "},"Έ":{"ha":1079,"x_min":0,"x_max":0,"o":"m 974 194 b 1014 154 1006 194 1014 179 l 1014 40 b 974 0 1014 15 1006 0 l 351 0 b 311 40 319 0 311 15 l 311 874 b 351 914 311 899 319 914 l 950 914 b 990 874 982 914 990 899 l 990 758 b 950 718 990 733 982 718 l 531 718 l 531 567 l 903 567 b 943 526 935 567 943 551 l 943 418 b 903 378 943 393 935 378 l 531 378 l 531 194 l 974 194 m 29 617 b 0 656 10 617 0 635 l 0 875 b 63 914 3 910 32 914 l 203 914 b 236 890 215 914 236 908 l 174 656 b 108 617 168 636 143 617 "},"Ή":{"ha":1174,"x_min":0,"x_max":0,"o":"m 1031 914 b 1071 874 1056 914 1071 906 l 1071 40 b 1031 0 1071 8 1056 0 l 893 0 b 853 40 868 0 853 8 l 853 354 l 543 354 l 543 40 b 503 0 543 8 529 0 l 365 0 b 325 40 340 0 325 8 l 325 874 b 365 914 325 906 340 914 l 503 914 b 543 874 529 914 543 906 l 543 560 l 853 560 l 853 874 b 893 914 853 906 868 914 l 1031 914 m 29 617 b 0 656 10 617 0 635 l 0 875 b 63 914 3 910 32 914 l 203 914 b 236 890 215 914 236 908 l 174 656 b 108 617 168 636 143 617 "},"Ί":{"ha":867,"x_min":0,"x_max":0,"o":"m 750 190 b 790 150 782 190 790 175 l 790 40 b 750 0 790 15 782 0 l 357 0 b 317 40 325 0 317 15 l 317 150 b 357 190 317 175 325 190 l 444 190 l 444 721 l 360 721 b 319 761 328 721 319 736 l 319 874 b 360 914 319 899 328 914 l 746 914 b 786 874 778 914 786 899 l 786 761 b 746 721 786 736 778 721 l 663 721 l 663 190 l 750 190 m 29 617 b 0 656 10 617 0 635 l 0 875 b 63 914 3 910 32 914 l 203 914 b 236 890 215 914 236 908 l 174 656 b 108 617 168 636 143 617 "},"Ό":{"ha":1092,"x_min":0,"x_max":0,"o":"m 1015 293 b 642 -21 1015 74 807 -21 b 271 293 476 -21 271 74 l 271 621 b 642 935 271 840 476 935 b 1015 621 807 935 1015 840 m 797 601 b 642 742 797 690 733 742 b 488 601 551 742 488 690 l 488 313 b 642 172 488 224 551 172 b 797 313 733 172 797 224 m 29 617 b 0 656 10 617 0 635 l 0 875 b 63 914 3 910 32 914 l 203 914 b 236 890 215 914 236 908 l 174 656 b 108 617 168 636 143 617 "},"Ύ":{"ha":1117,"x_min":0,"x_max":0,"o":"m 1076 914 b 1099 875 1103 914 1106 890 l 813 343 l 813 40 b 772 0 813 8 797 0 l 633 0 b 593 40 607 0 593 8 l 593 343 l 296 875 b 318 914 289 890 292 914 l 478 914 b 543 872 510 914 524 910 l 706 574 l 863 872 b 926 914 881 910 894 914 l 1076 914 m 29 617 b 0 656 10 617 0 635 l 0 875 b 63 914 3 910 32 914 l 203 914 b 236 890 215 914 236 908 l 174 656 b 108 617 168 636 143 617 "},"Γ":{"ha":836,"x_min":0,"x_max":0,"o":"m 740 914 b 781 874 772 914 781 899 l 781 760 b 740 719 781 735 772 719 l 321 719 l 321 42 b 281 0 321 6 313 0 l 143 0 b 103 40 111 0 103 15 l 103 874 b 143 914 103 899 111 914 l 740 914 "},"∆":{"ha":910,"x_min":0,"x_max":0,"o":"m 50 0 b 26 39 19 0 19 22 l 335 871 b 392 914 346 900 361 914 l 525 914 b 582 871 556 914 569 900 l 889 39 b 865 0 896 22 896 0 l 50 0 m 300 194 l 614 194 l 458 653 "},"Θ":{"ha":896,"x_min":0,"x_max":0,"o":"m 821 293 b 447 -21 821 74 613 -21 b 76 293 282 -21 76 74 l 76 621 b 447 935 76 840 282 935 b 821 621 613 935 821 840 m 603 360 l 417 360 b 376 400 392 360 376 368 l 376 508 b 417 549 376 540 392 549 l 603 549 l 603 601 b 447 742 603 690 539 742 b 293 601 357 742 293 690 l 293 313 b 447 172 293 224 357 172 b 603 313 539 172 603 224 "},"Λ":{"ha":910,"x_min":0,"x_max":0,"o":"m 254 42 b 201 0 243 8 232 0 l 50 0 b 26 39 19 0 19 22 l 335 871 b 392 914 346 900 361 914 l 525 914 b 582 871 556 914 569 900 l 889 39 b 865 0 896 22 896 0 l 707 0 b 654 42 676 0 665 8 l 451 633 "},"Ξ":{"ha":839,"x_min":0,"x_max":0,"o":"m 726 193 b 767 153 751 193 767 185 l 767 39 b 726 -1 767 7 751 -1 l 113 -1 b 72 39 88 -1 72 7 l 72 153 b 113 193 72 185 88 193 l 726 193 m 657 554 b 697 514 682 554 697 546 l 697 400 b 657 360 697 368 682 360 l 182 360 b 142 400 157 360 142 368 l 142 514 b 182 554 142 546 157 554 l 657 554 m 726 913 b 767 872 751 913 767 904 l 767 758 b 726 718 767 726 751 718 l 113 718 b 72 758 88 718 72 726 l 72 872 b 113 913 72 904 88 913 l 726 913 "},"Π":{"ha":925,"x_min":0,"x_max":0,"o":"m 782 914 b 822 874 814 914 822 899 l 822 40 b 782 0 822 15 814 0 l 644 0 b 604 42 613 0 604 6 l 604 719 l 321 719 l 321 42 b 281 0 321 6 313 0 l 143 0 b 103 40 111 0 103 15 l 103 874 b 143 914 103 899 111 914 "},"Χ":{"ha":814,"x_min":0,"x_max":0,"o":"m 782 43 b 765 0 793 26 786 0 l 607 0 b 546 39 576 0 565 3 l 408 286 l 269 39 b 208 0 251 3 239 0 l 50 0 b 33 43 29 0 22 26 l 281 468 l 29 875 b 50 914 21 890 26 914 l 214 914 b 269 874 240 914 251 903 l 408 650 l 546 874 b 603 914 565 903 575 914 l 765 914 b 786 875 789 914 796 890 l 536 468 "},"α":{"ha":910,"x_min":0,"x_max":0,"o":"m 889 39 b 865 0 896 22 896 0 l 719 0 b 667 42 689 0 678 8 l 628 151 l 288 151 l 249 42 b 196 0 238 8 226 0 l 50 0 b 26 39 19 0 19 22 l 335 871 b 392 914 346 900 361 914 l 525 914 b 582 871 556 914 569 900 l 889 39 m 563 346 l 458 653 l 354 346 "},"β":{"ha":954,"x_min":0,"x_max":0,"o":"m 754 474 b 882 267 765 469 882 417 b 551 0 882 90 744 0 l 143 0 b 103 40 111 0 103 15 l 103 875 b 143 915 103 900 111 915 l 532 915 b 856 664 758 915 856 794 b 754 474 856 524 767 479 m 554 197 b 661 288 622 197 661 225 b 546 372 661 353 613 372 l 514 372 b 474 413 482 372 474 388 l 474 518 b 514 558 474 543 482 558 l 532 558 l 532 558 b 647 642 613 558 647 588 b 532 719 647 704 604 719 l 321 719 l 321 197 l 554 197 "},"γ":{"ha":836,"x_min":0,"x_max":0,"o":"m 740 914 b 781 874 772 914 781 899 l 781 760 b 740 719 781 735 772 719 l 321 719 l 321 42 b 281 0 321 6 313 0 l 143 0 b 103 40 111 0 103 15 l 103 874 b 143 914 103 899 111 914 l 740 914 "},"δ":{"ha":910,"x_min":0,"x_max":0,"o":"m 50 0 b 26 39 19 0 19 22 l 335 871 b 392 914 346 900 361 914 l 525 914 b 582 871 556 914 569 900 l 889 39 b 865 0 896 22 896 0 l 50 0 m 300 194 l 614 194 l 458 653 "},"ε":{"ha":871,"x_min":0,"x_max":0,"o":"m 765 194 b 806 154 797 194 806 179 l 806 40 b 765 0 806 15 797 0 l 143 0 b 103 40 111 0 103 15 l 103 874 b 143 914 103 899 111 914 l 742 914 b 782 874 774 914 782 899 l 782 758 b 742 718 782 733 774 718 l 322 718 l 322 567 l 694 567 b 735 526 726 567 735 551 l 735 418 b 694 378 735 393 726 378 l 322 378 l 322 194 l 765 194 "},"ζ":{"ha":788,"x_min":0,"x_max":0,"o":"m 697 194 b 738 154 729 194 738 179 l 738 40 b 697 0 738 15 729 0 l 92 0 b 50 40 56 0 50 7 l 50 149 b 68 201 50 181 68 201 l 443 719 l 103 719 b 63 760 71 719 63 735 l 63 874 b 103 914 63 899 71 914 l 661 914 b 701 874 693 914 701 899 l 701 765 b 683 711 701 747 697 729 l 311 194 l 697 194 "},"η":{"ha":951,"x_min":0,"x_max":0,"o":"m 808 914 b 849 874 833 914 849 906 l 849 40 b 808 0 849 8 833 0 l 671 0 b 631 40 646 0 631 8 l 631 354 l 321 354 l 321 40 b 281 0 321 8 307 0 l 143 0 b 103 40 118 0 103 8 l 103 874 b 143 914 103 906 118 914 l 281 914 b 321 874 307 914 321 906 l 321 560 l 631 560 l 631 874 b 671 914 631 906 646 914 l 808 914 "},"θ":{"ha":896,"x_min":0,"x_max":0,"o":"m 821 293 b 447 -21 821 74 613 -21 b 76 293 282 -21 76 74 l 76 621 b 447 935 76 840 282 935 b 821 621 613 935 821 840 m 603 360 l 417 360 b 376 400 392 360 376 368 l 376 508 b 417 549 376 540 392 549 l 603 549 l 603 601 b 447 742 603 690 539 742 b 293 601 357 742 293 690 l 293 313 b 447 172 293 224 357 172 b 603 313 539 172 603 224 "},"ι":{"ha":617,"x_min":0,"x_max":0,"o":"m 500 190 b 540 150 532 190 540 175 l 540 40 b 500 0 540 15 532 0 l 107 0 b 67 40 75 0 67 15 l 67 150 b 107 190 67 175 75 190 l 194 190 l 194 721 l 110 721 b 69 761 78 721 69 736 l 69 874 b 110 914 69 899 78 914 l 496 914 b 536 874 528 914 536 899 l 536 761 b 496 721 536 736 528 721 l 413 721 l 413 190 l 500 190 "},"κ":{"ha":908,"x_min":0,"x_max":0,"o":"m 864 914 b 878 875 890 914 890 888 l 565 536 l 864 44 b 843 0 875 26 869 0 l 674 0 b 604 44 640 0 622 15 b 406 378 604 44 481 253 l 319 288 l 319 40 b 281 0 319 8 304 0 l 143 0 b 103 40 117 0 103 8 l 103 874 b 143 914 103 906 117 914 l 281 914 b 319 874 304 914 319 906 l 319 564 l 607 881 b 676 914 635 911 644 914 l 864 914 "},"λ":{"ha":910,"x_min":0,"x_max":0,"o":"m 254 42 b 201 0 243 8 232 0 l 50 0 b 26 39 19 0 19 22 l 335 871 b 392 914 346 900 361 914 l 525 914 b 582 871 556 914 569 900 l 889 39 b 865 0 896 22 896 0 l 707 0 b 654 42 676 0 665 8 l 451 633 "},"ν":{"ha":947,"x_min":0,"x_max":0,"o":"m 804 914 b 844 874 829 914 844 906 l 844 40 b 804 0 844 15 836 0 l 678 0 b 615 47 643 0 633 19 l 321 524 l 321 40 b 281 0 321 8 306 0 l 143 0 b 103 40 118 0 103 8 l 103 874 b 143 914 103 899 111 914 l 274 914 b 336 867 308 914 318 894 l 631 392 l 631 874 b 671 914 631 906 646 914 l 804 914 "},"ξ":{"ha":839,"x_min":0,"x_max":0,"o":"m 726 193 b 767 153 751 193 767 185 l 767 39 b 726 -1 767 7 751 -1 l 113 -1 b 72 39 88 -1 72 7 l 72 153 b 113 193 72 185 88 193 l 726 193 m 657 554 b 697 514 682 554 697 546 l 697 400 b 657 360 697 368 682 360 l 182 360 b 142 400 157 360 142 368 l 142 514 b 182 554 142 546 157 554 l 657 554 m 726 913 b 767 872 751 913 767 904 l 767 758 b 726 718 767 726 751 718 l 113 718 b 72 758 88 718 72 726 l 72 872 b 113 913 72 904 88 913 l 726 913 "},"ο":{"ha":896,"x_min":0,"x_max":0,"o":"m 821 293 b 447 -21 821 74 613 -21 b 76 293 282 -21 76 74 l 76 621 b 447 935 76 840 282 935 b 821 621 613 935 821 840 m 603 601 b 447 742 603 690 539 742 b 293 601 357 742 293 690 l 293 313 b 447 172 293 224 357 172 b 603 313 539 172 603 224 "},"π":{"ha":925,"x_min":0,"x_max":0,"o":"m 782 914 b 822 874 814 914 822 899 l 822 40 b 782 0 822 15 814 0 l 644 0 b 604 42 613 0 604 6 l 604 719 l 321 719 l 321 42 b 281 0 321 6 313 0 l 143 0 b 103 40 111 0 103 15 l 103 874 b 143 914 103 899 111 914 "},"ρ":{"ha":872,"x_min":0,"x_max":0,"o":"m 456 914 b 819 592 694 914 819 783 b 454 271 819 399 692 271 l 321 271 l 321 40 b 281 0 321 8 306 0 l 143 0 b 103 40 118 0 103 8 l 103 874 b 143 914 103 899 111 914 l 456 914 m 454 458 b 610 588 563 458 610 518 b 454 718 610 660 563 718 l 321 718 l 321 458 l 454 458 "},"τ":{"ha":797,"x_min":0,"x_max":0,"o":"m 721 914 b 761 874 753 914 761 899 l 761 758 b 721 718 761 733 753 718 l 508 718 l 508 40 b 468 0 508 8 493 0 l 331 0 b 290 40 306 0 290 8 l 290 718 l 76 718 b 36 758 44 718 36 733 l 36 874 b 76 914 36 899 44 914 l 721 914 "},"υ":{"ha":839,"x_min":0,"x_max":0,"o":"m 799 914 b 821 875 825 914 828 890 l 535 343 l 535 40 b 494 0 535 8 519 0 l 356 0 b 315 40 329 0 315 8 l 315 343 l 18 875 b 40 914 11 890 14 914 l 200 914 b 265 872 232 914 246 910 l 428 574 l 585 872 b 649 914 603 910 617 914 l 799 914 "},"χ":{"ha":814,"x_min":0,"x_max":0,"o":"m 782 43 b 765 0 793 26 786 0 l 607 0 b 546 39 576 0 565 3 l 408 286 l 269 39 b 208 0 251 3 239 0 l 50 0 b 33 43 29 0 22 26 l 281 468 l 29 875 b 50 914 21 890 26 914 l 214 914 b 269 874 240 914 251 903 l 408 650 l 546 874 b 603 914 565 903 575 914 l 765 914 b 786 875 789 914 796 890 l 536 468 "},"Ϊ":{"ha":668,"x_min":0,"x_max":0,"o":"m 531 190 b 571 150 563 190 571 175 l 571 40 b 531 0 571 15 563 0 l 138 0 b 97 40 106 0 97 15 l 97 150 b 138 190 97 175 106 190 l 225 190 l 225 721 l 140 721 b 100 761 108 721 100 736 l 100 874 b 140 914 100 899 108 914 l 526 914 b 567 874 558 914 567 899 l 567 761 b 526 721 567 736 558 721 l 443 721 l 443 190 l 531 190 m 244 1190 b 285 1149 268 1190 285 1182 l 285 1057 b 244 1017 285 1025 268 1017 l 94 1017 b 56 1057 69 1017 56 1025 l 56 1149 b 94 1190 56 1182 69 1190 l 244 1190 m 582 1190 b 622 1149 607 1190 622 1182 l 622 1057 b 582 1017 622 1025 607 1017 l 432 1017 b 393 1057 407 1017 393 1025 l 393 1149 b 432 1190 393 1182 407 1190 l 582 1190 "},"Ϋ":{"ha":851,"x_min":0,"x_max":0,"o":"m 172 1021 b 132 1061 147 1021 132 1029 l 132 1151 b 172 1192 132 1183 147 1192 l 325 1192 b 365 1151 350 1192 365 1183 l 365 1061 b 325 1021 365 1029 350 1021 l 172 1021 m 517 1021 b 476 1061 492 1021 476 1029 l 476 1151 b 517 1192 476 1183 492 1192 l 669 1192 b 710 1151 694 1192 710 1183 l 710 1061 b 669 1021 710 1029 694 1021 l 517 1021 m 800 914 b 822 875 826 914 831 890 l 536 343 l 536 40 b 496 0 536 8 521 0 l 357 0 b 317 40 332 0 317 8 l 317 343 l 19 875 b 42 914 13 890 15 914 l 201 914 b 267 872 233 914 247 910 l 429 574 l 586 872 b 650 914 606 910 618 914 l 800 914 "},"ϋ":{"ha":851,"x_min":0,"x_max":0,"o":"m 172 1021 b 132 1061 147 1021 132 1029 l 132 1151 b 172 1192 132 1183 147 1192 l 325 1192 b 365 1151 350 1192 365 1183 l 365 1061 b 325 1021 365 1029 350 1021 l 172 1021 m 517 1021 b 476 1061 492 1021 476 1029 l 476 1151 b 517 1192 476 1183 492 1192 l 669 1192 b 710 1151 694 1192 710 1183 l 710 1061 b 669 1021 710 1029 694 1021 l 517 1021 m 800 914 b 822 875 826 914 831 890 l 536 343 l 536 40 b 496 0 536 8 521 0 l 357 0 b 317 40 332 0 317 8 l 317 343 l 19 875 b 42 914 13 890 15 914 l 201 914 b 267 872 233 914 247 910 l 429 574 l 586 872 b 650 914 606 910 618 914 l 800 914 "},"ϊ":{"ha":668,"x_min":0,"x_max":0,"o":"m 531 190 b 571 150 563 190 571 175 l 571 40 b 531 0 571 15 563 0 l 138 0 b 97 40 106 0 97 15 l 97 150 b 138 190 97 175 106 190 l 225 190 l 225 721 l 140 721 b 100 761 108 721 100 736 l 100 874 b 140 914 100 899 108 914 l 526 914 b 567 874 558 914 567 899 l 567 761 b 526 721 567 736 558 721 l 443 721 l 443 190 l 531 190 m 244 1190 b 285 1149 268 1190 285 1182 l 285 1057 b 244 1017 285 1025 268 1017 l 94 1017 b 56 1057 69 1017 56 1025 l 56 1149 b 94 1190 56 1182 69 1190 l 244 1190 m 582 1190 b 622 1149 607 1190 622 1182 l 622 1057 b 582 1017 622 1025 607 1017 l 432 1017 b 393 1057 407 1017 393 1025 l 393 1149 b 432 1190 393 1182 407 1190 l 582 1190 "},"ΐ":{"ha":668,"x_min":0,"x_max":0,"o":"m 531 190 b 571 150 563 190 571 175 l 571 40 b 531 0 571 15 563 0 l 138 0 b 97 40 106 0 97 15 l 97 150 b 138 190 97 175 106 190 l 225 190 l 225 721 l 140 721 b 100 761 108 721 100 736 l 100 874 b 140 914 100 899 108 914 l 526 914 b 567 874 558 914 567 899 l 567 761 b 526 721 567 736 558 721 l 443 721 l 443 190 l 531 190 m 244 1190 b 285 1149 268 1190 285 1182 l 285 1057 b 244 1017 285 1025 268 1017 l 94 1017 b 56 1057 69 1017 56 1025 l 56 1149 b 94 1190 56 1182 69 1190 l 244 1190 m 582 1190 b 622 1149 607 1190 622 1182 l 622 1057 b 582 1017 622 1025 607 1017 l 432 1017 b 393 1057 407 1017 393 1025 l 393 1149 b 432 1190 393 1182 407 1190 l 582 1190 "},"ΰ":{"ha":851,"x_min":0,"x_max":0,"o":"m 172 1021 b 132 1061 147 1021 132 1029 l 132 1151 b 172 1192 132 1183 147 1192 l 325 1192 b 365 1151 350 1192 365 1183 l 365 1061 b 325 1021 365 1029 350 1021 l 172 1021 m 517 1021 b 476 1061 492 1021 476 1029 l 476 1151 b 517 1192 476 1183 492 1192 l 669 1192 b 710 1151 694 1192 710 1183 l 710 1061 b 669 1021 710 1029 694 1021 l 517 1021 m 800 914 b 822 875 826 914 831 890 l 536 343 l 536 40 b 496 0 536 8 521 0 l 357 0 b 317 40 332 0 317 8 l 317 343 l 19 875 b 42 914 13 890 15 914 l 201 914 b 267 872 233 914 247 910 l 429 574 l 586 872 b 650 914 606 910 618 914 l 800 914 "},"ί":{"ha":867,"x_min":0,"x_max":0,"o":"m 750 190 b 790 150 782 190 790 175 l 790 40 b 750 0 790 15 782 0 l 357 0 b 317 40 325 0 317 15 l 317 150 b 357 190 317 175 325 190 l 444 190 l 444 721 l 360 721 b 319 761 328 721 319 736 l 319 874 b 360 914 319 899 328 914 l 746 914 b 786 874 778 914 786 899 l 786 761 b 746 721 786 736 778 721 l 663 721 l 663 190 l 750 190 m 29 617 b 0 656 10 617 0 635 l 0 875 b 63 914 3 910 32 914 l 203 914 b 236 890 215 914 236 908 l 174 656 b 108 617 168 636 143 617 "},"έ":{"ha":1079,"x_min":0,"x_max":0,"o":"m 974 194 b 1014 154 1006 194 1014 179 l 1014 40 b 974 0 1014 15 1006 0 l 351 0 b 311 40 319 0 311 15 l 311 874 b 351 914 311 899 319 914 l 950 914 b 990 874 982 914 990 899 l 990 758 b 950 718 990 733 982 718 l 531 718 l 531 567 l 903 567 b 943 526 935 567 943 551 l 943 418 b 903 378 943 393 935 378 l 531 378 l 531 194 l 974 194 m 29 617 b 0 656 10 617 0 635 l 0 875 b 63 914 3 910 32 914 l 203 914 b 236 890 215 914 236 908 l 174 656 b 108 617 168 636 143 617 "},"ή":{"ha":1174,"x_min":0,"x_max":0,"o":"m 1031 914 b 1071 874 1056 914 1071 906 l 1071 40 b 1031 0 1071 8 1056 0 l 893 0 b 853 40 868 0 853 8 l 853 354 l 543 354 l 543 40 b 503 0 543 8 529 0 l 365 0 b 325 40 340 0 325 8 l 325 874 b 365 914 325 906 340 914 l 503 914 b 543 874 529 914 543 906 l 543 560 l 853 560 l 853 874 b 893 914 853 906 868 914 l 1031 914 m 29 617 b 0 656 10 617 0 635 l 0 875 b 63 914 3 910 32 914 l 203 914 b 236 890 215 914 236 908 l 174 656 b 108 617 168 636 143 617 "},"ά":{"ha":910,"x_min":0,"x_max":0,"o":"m 889 39 b 865 0 896 22 896 0 l 719 0 b 667 42 689 0 678 8 l 628 151 l 288 151 l 249 42 b 196 0 238 8 226 0 l 50 0 b 26 39 19 0 19 22 l 335 871 b 392 914 346 900 361 914 l 525 914 b 582 871 556 914 569 900 l 889 39 m 563 346 l 458 653 l 354 346 m 29 617 b 0 656 10 617 0 635 l 0 875 b 63 914 3 910 32 914 l 203 914 b 236 890 215 914 236 908 l 174 656 b 108 617 168 636 143 617 "},"ό":{"ha":1092,"x_min":0,"x_max":0,"o":"m 1015 293 b 642 -21 1015 74 807 -21 b 271 293 476 -21 271 74 l 271 621 b 642 935 271 840 476 935 b 1015 621 807 935 1015 840 m 797 601 b 642 742 797 690 733 742 b 488 601 551 742 488 690 l 488 313 b 642 172 488 224 551 172 b 797 313 733 172 797 224 m 29 617 b 0 656 10 617 0 635 l 0 875 b 63 914 3 910 32 914 l 203 914 b 236 890 215 914 236 908 l 174 656 b 108 617 168 636 143 617 "},"ύ":{"ha":1117,"x_min":0,"x_max":0,"o":"m 1076 914 b 1099 875 1103 914 1106 890 l 813 343 l 813 40 b 772 0 813 8 797 0 l 633 0 b 593 40 607 0 593 8 l 593 343 l 296 875 b 318 914 289 890 292 914 l 478 914 b 543 872 510 914 524 910 l 706 574 l 863 872 b 926 914 881 910 894 914 l 1076 914 m 29 617 b 0 656 10 617 0 635 l 0 875 b 63 914 3 910 32 914 l 203 914 b 236 890 215 914 236 908 l 174 656 b 108 617 168 636 143 617 "},"Φ":{"ha":1117,"x_min":0,"x_max":0,"o":"m 669 38 b 629 -3 669 6 654 -3 l 492 -3 b 451 38 467 -3 451 6 l 451 108 l 401 108 b 44 424 236 108 44 161 l 44 488 b 401 808 44 756 236 808 l 451 808 l 451 879 b 492 919 451 911 467 919 l 629 919 b 669 876 661 919 669 897 l 669 808 l 719 808 b 1076 488 885 808 1076 756 l 1076 424 b 719 108 1076 161 885 108 l 669 108 m 719 290 b 861 425 811 290 861 336 l 861 488 b 719 628 861 576 811 628 l 665 628 l 665 290 m 260 425 b 401 290 260 336 310 290 l 457 290 l 457 628 l 401 628 b 260 488 310 628 260 576 "},"φ":{"ha":1117,"x_min":0,"x_max":0,"o":"m 669 38 b 629 -3 669 6 654 -3 l 492 -3 b 451 38 467 -3 451 6 l 451 108 l 401 108 b 44 424 236 108 44 161 l 44 488 b 401 808 44 756 236 808 l 451 808 l 451 879 b 492 919 451 911 467 919 l 629 919 b 669 876 661 919 669 897 l 669 808 l 719 808 b 1076 488 885 808 1076 756 l 1076 424 b 719 108 1076 161 885 108 l 669 108 m 719 290 b 861 425 811 290 861 336 l 861 488 b 719 628 861 576 811 628 l 665 628 l 665 290 m 260 425 b 401 290 260 336 310 290 l 457 290 l 457 628 l 401 628 b 260 488 310 628 260 576 "},"Ψ":{"ha":1117,"x_min":0,"x_max":0,"o":"m 719 360 b 861 494 811 360 861 406 l 861 876 b 903 918 861 906 874 918 l 1035 918 b 1076 876 1064 918 1076 906 l 1076 493 b 719 178 1076 231 885 178 l 669 178 l 669 38 b 629 -3 669 6 654 -3 l 492 -3 b 451 38 467 -3 451 6 l 451 178 l 401 178 b 44 493 236 178 44 231 l 44 876 b 86 918 44 906 57 918 l 218 918 b 260 876 247 918 260 906 l 260 494 b 401 360 260 406 310 360 l 457 360 l 451 879 b 492 919 451 911 467 919 l 629 919 b 669 876 661 919 669 897 l 665 360 "},"ψ":{"ha":1117,"x_min":0,"x_max":0,"o":"m 719 360 b 861 494 811 360 861 406 l 861 876 b 903 918 861 906 874 918 l 1035 918 b 1076 876 1064 918 1076 906 l 1076 493 b 719 178 1076 231 885 178 l 669 178 l 669 38 b 629 -3 669 6 654 -3 l 492 -3 b 451 38 467 -3 451 6 l 451 178 l 401 178 b 44 493 236 178 44 231 l 44 876 b 86 918 44 906 57 918 l 218 918 b 260 876 247 918 260 906 l 260 494 b 401 360 260 406 310 360 l 457 360 l 451 879 b 492 919 451 911 467 919 l 629 919 b 669 876 661 919 669 897 l 665 360 "},"Σ":{"ha":847,"x_min":0,"x_max":0,"o":"m 742 194 b 782 154 774 194 782 179 l 782 40 b 742 0 782 15 774 0 l 143 0 b 103 40 111 0 103 15 l 103 114 b 135 182 103 143 118 163 l 367 457 l 136 746 b 103 814 118 769 103 785 l 103 874 b 143 914 103 899 111 914 l 728 914 b 768 874 760 914 768 899 l 768 758 b 728 718 768 733 760 718 l 419 718 b 590 483 575 515 590 525 l 590 431 b 406 194 590 389 576 403 l 742 194 "},"ς":{"ha":847,"x_min":0,"x_max":0,"o":"m 742 194 b 782 154 774 194 782 179 l 782 40 b 742 0 782 15 774 0 l 143 0 b 103 40 111 0 103 15 l 103 114 b 135 182 103 143 118 163 l 367 457 l 136 746 b 103 814 118 769 103 785 l 103 874 b 143 914 103 899 111 914 l 728 914 b 768 874 760 914 768 899 l 768 758 b 728 718 768 733 760 718 l 419 718 b 590 483 575 515 590 525 l 590 431 b 406 194 590 389 576 403 l 742 194 "},"σ":{"ha":847,"x_min":0,"x_max":0,"o":"m 742 194 b 782 154 774 194 782 179 l 782 40 b 742 0 782 15 774 0 l 143 0 b 103 40 111 0 103 15 l 103 114 b 135 182 103 143 118 163 l 367 457 l 136 746 b 103 814 118 769 103 785 l 103 874 b 143 914 103 899 111 914 l 728 914 b 768 874 760 914 768 899 l 768 758 b 728 718 768 733 760 718 l 419 718 b 590 483 575 515 590 525 l 590 431 b 406 194 590 389 576 403 l 742 194 "},"Ω":{"ha":896,"x_min":0,"x_max":0,"o":"m 781 194 b 821 154 813 194 821 179 l 821 40 b 781 0 821 15 813 0 l 539 0 b 497 42 510 0 497 13 l 497 167 b 557 240 497 225 531 214 b 603 349 589 268 603 307 l 603 601 b 447 742 603 690 539 742 b 293 601 357 742 293 690 l 293 349 b 354 228 293 301 310 256 b 400 167 371 217 400 215 l 400 42 b 358 0 400 13 388 0 l 117 0 b 76 40 85 0 76 15 l 76 154 b 117 194 76 179 85 194 l 196 194 b 76 432 125 246 76 324 l 76 621 b 447 935 76 840 282 935 b 821 621 613 935 821 840 l 821 432 b 699 194 821 324 769 246 l 781 194 "},"Ώ":{"ha":1063,"x_min":0,"x_max":0,"o":"m 947 194 b 988 154 979 194 988 179 l 988 40 b 947 0 988 15 979 0 l 706 0 b 664 42 676 0 664 13 l 664 167 b 724 240 664 225 697 214 b 769 349 756 268 769 307 l 769 601 b 614 742 769 690 706 742 b 460 601 524 742 460 690 l 460 349 b 521 228 460 301 476 256 b 567 167 538 217 567 215 l 567 42 b 525 0 567 13 554 0 l 283 0 b 243 40 251 0 243 15 l 243 154 b 283 194 243 179 251 194 l 363 194 b 243 432 292 246 243 324 l 243 621 b 614 935 243 840 449 935 b 988 621 779 935 988 840 l 988 432 b 865 194 988 324 936 246 l 947 194 m 29 617 b 0 656 10 617 0 635 l 0 875 b 63 914 3 910 32 914 l 203 914 b 236 890 215 914 236 908 l 174 656 b 108 617 168 636 143 617 "},"ω":{"ha":896,"x_min":0,"x_max":0,"o":"m 781 194 b 821 154 813 194 821 179 l 821 40 b 781 0 821 15 813 0 l 539 0 b 497 42 510 0 497 13 l 497 167 b 557 240 497 225 531 214 b 603 349 589 268 603 307 l 603 601 b 447 742 603 690 539 742 b 293 601 357 742 293 690 l 293 349 b 354 228 293 301 310 256 b 400 167 371 217 400 215 l 400 42 b 358 0 400 13 388 0 l 117 0 b 76 40 85 0 76 15 l 76 154 b 117 194 76 179 85 194 l 196 194 b 76 432 125 246 76 324 l 76 621 b 447 935 76 840 282 935 b 821 621 613 935 821 840 l 821 432 b 699 194 821 324 769 246 l 781 194 "},"ώ":{"ha":1063,"x_min":0,"x_max":0,"o":"m 947 194 b 988 154 979 194 988 179 l 988 40 b 947 0 988 15 979 0 l 706 0 b 664 42 676 0 664 13 l 664 167 b 724 240 664 225 697 214 b 769 349 756 268 769 307 l 769 601 b 614 742 769 690 706 742 b 460 601 524 742 460 690 l 460 349 b 521 228 460 301 476 256 b 567 167 538 217 567 215 l 567 42 b 525 0 567 13 554 0 l 283 0 b 243 40 251 0 243 15 l 243 154 b 283 194 243 179 251 194 l 363 194 b 243 432 292 246 243 324 l 243 621 b 614 935 243 840 449 935 b 988 621 779 935 988 840 l 988 432 b 865 194 988 324 936 246 l 947 194 m 29 617 b 0 656 10 617 0 635 l 0 875 b 63 914 3 910 32 914 l 203 914 b 236 890 215 914 236 908 l 174 656 b 108 617 168 636 143 617 "},"μ":{"ha":1065,"x_min":0,"x_max":0,"o":"m 922 915 b 963 875 954 915 963 900 l 963 40 b 922 0 963 8 947 0 l 789 0 b 749 40 764 0 749 8 l 749 511 l 610 268 b 569 239 603 257 590 239 l 500 239 b 461 268 479 239 468 257 l 321 511 l 321 40 b 281 0 321 8 306 0 l 143 0 b 103 40 118 0 103 8 l 103 875 b 143 915 103 900 111 915 l 281 915 b 344 868 328 915 333 885 l 535 526 l 726 868 b 789 915 736 885 743 915 l 922 915 "},"Ω":{"ha":896,"x_min":0,"x_max":0,"o":"m 781 194 b 821 154 813 194 821 179 l 821 40 b 781 0 821 15 813 0 l 539 0 b 497 42 510 0 497 13 l 497 167 b 557 240 497 225 531 214 b 603 349 589 268 603 307 l 603 601 b 447 742 603 690 539 742 b 293 601 357 742 293 690 l 293 349 b 354 228 293 301 310 256 b 400 167 371 217 400 215 l 400 42 b 358 0 400 13 388 0 l 117 0 b 76 40 85 0 76 15 l 76 154 b 117 194 76 179 85 194 l 196 194 b 76 432 125 246 76 324 l 76 621 b 447 935 76 840 282 935 b 821 621 613 935 821 840 l 821 432 b 699 194 821 324 769 246 l 781 194 "},"Δ":{"ha":910,"x_min":0,"x_max":0,"o":"m 50 0 b 26 39 19 0 19 22 l 335 871 b 392 914 346 900 361 914 l 525 914 b 582 871 556 914 569 900 l 889 39 b 865 0 896 22 896 0 l 50 0 m 300 194 l 614 194 l 458 653 "}}}
